<svg width="300" height="221" viewBox="0 0 300 221" fill="none" xmlns="http://www.w3.org/2000/svg">
<mask id="mask0_630_160" style="mask-type:alpha" maskUnits="userSpaceOnUse" x="0" y="0" width="300" height="221">
<rect width="300" height="221" rx="5" fill="#BB3CFF"/>
</mask>
<g mask="url(#mask0_630_160)">
<path d="M329.558 76.1567C329.15 66.9111 327.655 60.5554 325.512 55.0475C323.302 49.2014 319.903 43.9674 315.449 39.6162C311.097 35.1973 305.827 31.7636 300.047 29.5888C294.507 27.4474 288.183 25.9518 278.936 25.5445C269.62 25.102 266.662 25 243.034 25C219.406 25 216.448 25.102 207.166 25.5099C197.919 25.9178 191.562 27.4141 186.055 29.5541C180.206 31.7636 174.971 35.1627 170.619 39.6162C166.199 43.9671 162.767 49.2357 160.59 55.0142C158.448 60.5554 156.952 66.8771 156.545 76.122C156.102 85.4366 156 88.3935 156 112.017C156 135.641 156.102 138.598 156.51 147.878C156.918 157.124 158.415 163.479 160.557 168.987C162.767 174.833 166.199 180.067 170.619 184.418C174.971 188.837 180.241 192.271 186.02 194.446C191.562 196.587 197.885 198.083 207.133 198.49C216.413 198.899 219.373 199 243.001 199C266.629 199 269.587 198.899 278.868 198.49C288.115 198.083 294.473 196.588 299.98 194.446C305.764 192.21 311.017 188.79 315.402 184.406C319.788 180.022 323.208 174.77 325.445 168.987C327.585 163.446 329.082 157.123 329.49 147.878C329.898 138.598 330 135.641 330 112.017C330 88.3935 329.965 85.4363 329.558 76.1567ZM313.886 147.198C313.511 155.696 312.084 160.285 310.894 163.344C307.969 170.924 301.952 176.94 294.37 179.864C291.31 181.054 286.688 182.481 278.221 182.854C269.042 183.263 266.289 183.364 243.069 183.364C219.848 183.364 217.06 183.263 207.914 182.854C199.415 182.481 194.825 181.054 191.765 179.864C187.992 178.47 184.558 176.261 181.771 173.371C178.881 170.55 176.671 167.151 175.276 163.379C174.086 160.319 172.659 155.696 172.286 147.233C171.877 138.055 171.776 135.301 171.776 112.085C171.776 88.8687 171.877 86.0817 172.286 76.9388C172.659 68.441 174.086 63.8522 175.276 60.793C176.671 57.0193 178.881 53.5866 181.805 50.7986C184.626 47.9094 188.025 45.6999 191.8 44.3073C194.86 43.1176 199.484 41.69 207.949 41.3158C217.128 40.9079 219.882 40.8059 243.101 40.8059C266.357 40.8059 269.11 40.9079 278.256 41.3158C286.755 41.6903 291.345 43.1173 294.405 44.307C298.178 45.6999 301.612 47.9094 304.399 50.7986C307.289 53.6202 309.499 57.0193 310.894 60.793C312.084 63.8522 313.511 68.474 313.885 76.9388C314.293 86.1164 314.395 88.8687 314.395 112.085C314.395 135.301 314.294 138.021 313.886 147.198Z" fill="#D688FF"/>
<path d="M243.034 67.319C218.353 67.319 198.327 87.3391 198.327 112.017C198.327 136.696 218.353 156.716 243.034 156.716C267.716 156.716 287.741 136.696 287.741 112.017C287.741 87.3391 267.716 67.319 243.034 67.319ZM243.034 141.012C227.022 141.012 214.034 128.028 214.034 112.017C214.034 96.0068 227.022 83.0229 243.034 83.0229C259.047 83.0229 272.034 96.0068 272.034 112.017C272.034 128.028 259.047 141.012 243.034 141.012ZM299.947 65.5514C299.947 71.3143 295.273 75.9867 289.508 75.9867C283.745 75.9867 279.071 71.3143 279.071 65.5514C279.071 59.7879 283.745 55.1168 289.509 55.1168C295.273 55.1168 299.947 59.7876 299.947 65.5514Z" fill="#D688FF"/>
</g>
</svg>
