<svg width="300" height="221" viewBox="0 0 300 221" fill="none" xmlns="http://www.w3.org/2000/svg">
<mask id="mask0_630_164" style="mask-type:alpha" maskUnits="userSpaceOnUse" x="0" y="0" width="300" height="222">
<rect y="0.00195312" width="300" height="221" rx="5" fill="#BB3CFF"/>
</mask>
<g mask="url(#mask0_630_164)">
<path d="M298.653 76.8249C298.355 76.1805 297.881 75.6351 297.286 75.2528C296.692 74.8706 296.001 74.6674 295.295 74.6671H251.381L294.721 5.73084C295.076 5.16634 295.273 4.51622 295.294 3.84837C295.314 3.18052 295.156 2.51945 294.836 1.9342C294.516 1.34852 294.046 0.860055 293.475 0.519823C292.904 0.179591 292.253 6.79416e-05 291.589 0L232.295 0C231.607 9.1603e-05 230.932 0.193268 230.346 0.557901C229.76 0.922534 229.287 1.44423 228.979 2.06457L173.391 114.065C173.108 114.634 172.975 115.266 173.004 115.901C173.032 116.536 173.222 117.153 173.554 117.694C173.886 118.235 174.35 118.683 174.902 118.993C175.454 119.303 176.075 119.466 176.707 119.467H214.815L173.29 218.819C172.948 219.642 172.909 220.562 173.181 221.411C173.453 222.261 174.017 222.985 174.773 223.452C175.529 223.917 176.425 224.094 177.3 223.952C178.175 223.81 178.97 223.357 179.542 222.675L298.13 80.8079C298.585 80.2631 298.875 79.5988 298.968 78.8932C299.061 78.1876 298.951 77.47 298.653 76.8249Z" fill="#63A6D3"/>
<path d="M164.324 114.966C164.324 114.966 158.937 92.0361 152.536 66.2897C157.272 64.2415 161.344 62.8654 165.018 62.0262C176.464 59.4117 182.921 62.6202 185.083 72.0878C186.245 77.1749 184.367 81.3209 180.869 83.9042C186.196 84.769 189.637 88.4433 190.993 94.3783C193.413 104.976 186.741 110.589 174.871 113.3C171.692 114.027 168.165 114.535 164.324 114.966ZM174.828 103.349C177.812 102.742 179.233 101.153 178.216 96.7019C177.345 92.8866 175.448 91.0897 171.915 91.8966C173.793 99.7937 174.828 103.349 174.828 103.349ZM167.332 71.8309C168.875 78.9125 169.817 82.7116 169.817 82.7116C173.295 81.9915 174.343 79.7449 173.536 76.2122C172.616 72.185 170.62 70.9311 167.332 71.8309ZM196.854 107.833C196.854 107.833 191.986 86.1969 185.355 58.7932C185.355 58.7932 189.736 57.7926 198.127 55.8014C198.127 55.8014 203.675 79.4382 209.713 104.896C209.713 104.896 205.458 105.794 196.854 107.833ZM213.41 102.639C213.41 102.639 209.738 85.2642 202.724 56.833C202.724 56.833 207.73 55.3178 214.606 53.5242C214.606 53.5242 219.623 61.8194 228.501 75.6261C226.911 69.9676 224.345 61.3357 220.547 49.2678C220.547 49.2678 224.992 48.5498 232.112 46.8492C232.112 46.8492 236.775 65.6331 244.891 96.9349C244.891 96.9349 241.487 98.3071 233.719 100.751C233.719 100.751 227.895 91.5246 219.352 78.5336C220.607 83.3764 222.471 90.2359 225.399 100.124C225.399 100.124 220.687 100.977 213.41 102.639ZM267.09 93.6485C264.42 87.4933 262.453 83.1106 260.987 79.9513C260.49 83.6332 260.207 86.2997 260.068 87.9671C260.736 90.5651 261.113 91.8914 261.113 91.8914C251.684 93.8965 248.058 94.9477 248.058 94.9477C242.137 68.0508 237.326 47.9629 237.326 47.9629C246.119 46.103 250.342 45.064 250.342 45.064C252.38 54.6346 254.1 62.4933 255.617 69.1347C255.709 50.0084 255.414 41.2294 255.414 41.2294C264.13 39.6844 268.793 38.6192 268.793 38.6192C268.061 50.3836 267.519 59.7257 267.229 65.293C275.322 80.5428 280.69 89.7242 280.69 89.7242C273.336 91.7014 267.09 93.6485 267.09 93.6485ZM295.524 86.1872C283.371 88.963 277.936 83.0679 276.034 71.1618C276.034 71.1618 281.295 70.1088 289.208 68.3013C290.075 74.0504 291.308 76.5194 293.145 76.0998C294.488 75.7932 294.843 74.7455 294.149 71.7074C293.552 69.0932 291.915 67.4599 286.475 66.1006C277.186 63.8364 273.577 59.7542 271.834 52.1236C269.575 42.2321 275.306 37.0572 284.138 35.0398C295.019 32.5545 301.042 38.0924 302.616 50.5192C302.616 50.5192 295.987 51.4388 289.667 52.7338C289.072 46.5507 287.56 44.8145 286.218 45.1211C284.946 45.4116 284.72 47.0244 285.317 49.6386C285.93 52.3235 287.838 54.4897 291.725 55.2372C302.319 57.3522 305.679 60.6733 307.471 68.5159C309.778 78.6194 304.568 84.1214 295.524 86.1872ZM210.851 170.671L207.219 154.774C206.301 154.984 205.171 155.242 203.703 155.652L206.852 168.462C206.852 168.462 201.434 169.477 194.08 171.454C194.08 171.454 189.874 152.715 183.21 125.17C183.21 125.17 186.194 124.562 195.771 122.226C195.771 122.226 197.907 131.254 201.163 144.858C201.163 144.858 202.875 144.541 204.712 144.121C203.033 136.773 200.939 128.257 198.738 118.946C198.738 118.946 203.347 117.968 211.652 115.922C211.652 115.922 216.913 138.955 223.726 167.805C223.726 167.805 218.715 168.652 210.851 170.671ZM227.461 165.465C227.461 165.465 222.593 143.828 215.962 116.425C215.962 116.425 220.343 115.424 228.734 113.433C228.734 113.433 234.282 137.07 240.32 162.527C240.32 162.527 236.065 163.425 227.461 165.465ZM259.576 159.393C249.967 161.587 242.453 157.654 237.869 137.588C233.706 119.36 237.104 110.48 248.268 107.93C259.148 105.445 265.806 113.44 267.785 125.031C267.785 125.031 257.241 127.365 254.823 127.843C253.238 120.251 251.857 118.113 250.373 118.452C248.536 118.871 248.53 121.772 251.538 134.615C254.643 147.882 256.071 150.232 258.05 149.78C259.604 149.425 259.82 147.442 258.41 141.594C258.41 141.594 257.225 141.939 255.491 142.484C255.491 142.484 254.674 138.582 253.032 132.043C253.032 132.043 262.94 129.855 269.157 128.434C275.077 151.094 269.821 157.052 259.576 159.393ZM294.167 149.707L291.214 136.778C290.295 136.987 289.165 137.246 287.697 137.655L291.056 151.384C291.056 151.384 285.638 152.399 278.284 154.376C278.284 154.376 273.222 131.892 266.559 104.347C266.559 104.347 269.543 103.74 279.119 101.404C279.119 101.404 281.643 112.127 285.157 126.861C285.739 126.803 286.869 126.545 288.706 126.125C287.108 119.13 285.079 110.896 282.829 101.374C282.829 101.374 287.438 100.396 295.743 98.3498C295.743 98.3498 300.229 117.992 307.042 146.841C307.042 146.841 302.032 147.688 294.167 149.707Z" fill="white"/>
</g>
</svg>
