<svg width="40" height="40" viewBox="0 0 40 40" fill="none" xmlns="http://www.w3.org/2000/svg">
<path d="M3.33333 13.3333H6.66667V26.6667H3.33333C2.4495 26.666 1.60206 26.3145 0.977091 25.6896C0.352122 25.0646 0.000706223 24.2172 0 23.3333V16.6667C0 14.828 1.49467 13.3333 3.33333 13.3333ZM36.6667 13.3333H33.3333V26.6667H36.6667C38.5053 26.6667 40 25.172 40 23.3333V16.6667C40 14.828 38.5053 13.3333 36.6667 13.3333ZM20 5.33333C14.1187 5.33333 9.33333 10.1187 9.33333 16V24C9.33333 29.8813 14.1187 34.6667 20 34.6667C25.8813 34.6667 30.6667 29.8813 30.6667 24V16C30.6667 10.1187 25.8813 5.33333 20 5.33333ZM20 0C12.6267 0 6.13333 4.24 3.12 10.68C3.18667 10.6667 3.26667 10.6667 3.33333 10.6667H6.13333C8.92 5.8 14.1333 2.66667 20 2.66667C25.8667 2.66667 31.08 5.8 33.8667 10.6667H36.6667C36.7333 10.6667 36.8133 10.6667 36.88 10.68C33.8667 4.24 27.3733 0 20 0ZM36.6667 29.3333H33.8667C31.08 34.2 25.8667 37.3333 20 37.3333H18.6667V40H20C27.3733 40 33.8533 35.76 36.88 29.32C36.8133 29.3333 36.7333 29.3333 36.6667 29.3333Z" fill="#D41D3A"/>
</svg>
