<svg width="25" height="42" viewBox="0 0 25 42" fill="none" xmlns="http://www.w3.org/2000/svg">
<path d="M5.1985 2.18464e-05H19.8015C20.4847 -0.00197149 21.1616 0.132463 21.7932 0.395594C22.4248 0.658725 22.9987 1.04536 23.4818 1.53326C23.9649 2.02117 24.3477 2.60072 24.6083 3.23857C24.8688 3.87643 25.002 4.56002 25 5.25002V36.75C25 39.6613 22.637 42 19.8015 42H5.1985C4.51527 42.002 3.8384 41.8675 3.2068 41.6044C2.5752 41.3413 2.00134 40.9546 1.51822 40.4667C1.0351 39.9788 0.652262 39.3993 0.391714 38.7614C0.131165 38.1236 -0.00195122 37.44 2.28882e-05 36.75V5.25002C-0.00195122 4.56002 0.131165 3.87643 0.391714 3.23857C0.652262 2.60072 1.0351 2.02117 1.51822 1.53326C2.00134 1.04536 2.5752 0.658725 3.2068 0.395594C3.8384 0.132463 4.51527 -0.00197149 5.1985 2.18464e-05ZM12.4764 38.6114C13.7996 38.6114 14.8393 37.5614 14.8393 36.225C14.8393 34.8886 13.7996 33.8386 12.4764 33.8386C11.1531 33.8386 10.1134 34.8886 10.1134 36.225C10.1134 37.5614 11.1531 38.6114 12.4764 38.6114ZM2.36297 31.3091H22.637V7.01592H2.36297V31.3091Z" fill="#D41D3A"/>
</svg>
