<svg width="40" height="26" viewBox="0 0 40 26" fill="none" xmlns="http://www.w3.org/2000/svg">
<path d="M23.5273 0H2.34375C1.0493 0 0 1.0493 0 2.34375V14.7195H2.94844C3.61367 14.7195 4.15 15.274 4.11906 15.9469C4.09 16.5777 3.54688 17.0633 2.91547 17.0633H0V19.3086C0 20.603 1.0493 21.6523 2.34375 21.6523H3.21875C3.75 19.3883 5.78672 17.6969 8.21094 17.6969C10.6352 17.6969 12.6719 19.3883 13.2031 21.6523H25.8711V2.34375C25.8711 1.0493 24.8218 0 23.5273 0ZM17.8906 8.91719L12.0016 14.4445C11.5177 14.8972 10.7531 14.8603 10.3172 14.3609L7.9 11.5977C7.47422 11.1109 7.52344 10.3703 8.01094 9.94453C8.49766 9.51797 9.23828 9.56719 9.66406 10.0547C10.0836 10.5339 9.76234 10.1668 11.2828 11.9047C15.2256 8.20406 13.9826 9.37063 16.2867 7.20859C16.7586 6.76563 17.5 6.78906 17.943 7.26094C18.3859 7.73281 18.3625 8.47422 17.8906 8.91719Z" fill="#D41D3A"/>
<path d="M8.21094 25.6078C9.74827 25.6078 10.9945 24.3616 10.9945 22.8242C10.9945 21.2869 9.74827 20.0406 8.21094 20.0406C6.6736 20.0406 5.42734 21.2869 5.42734 22.8242C5.42734 24.3616 6.6736 25.6078 8.21094 25.6078Z" fill="#D41D3A"/>
<path d="M35.2777 6.19406C35.0255 5.1393 34.0827 4.39531 32.9982 4.39531H28.2148V10.6656H36.3469L35.2777 6.19406ZM37.6562 13.0094H28.2148V20C30.6977 16.2525 36.4608 17.29 37.4844 21.6523H39.4141C39.7367 21.6523 40 21.3898 40 21.0664V15.3531C40 14.0587 38.9507 13.0094 37.6562 13.0094Z" fill="#D41D3A"/>
<path d="M32.4922 25.6078C34.0295 25.6078 35.2758 24.3616 35.2758 22.8242C35.2758 21.2869 34.0295 20.0406 32.4922 20.0406C30.9549 20.0406 29.7086 21.2869 29.7086 22.8242C29.7086 24.3616 30.9549 25.6078 32.4922 25.6078Z" fill="#D41D3A"/>
</svg>
