<svg width="40" height="28" viewBox="0 0 40 28" fill="none" xmlns="http://www.w3.org/2000/svg">
<path d="M0 3C0 2.20435 0.316071 1.44129 0.87868 0.87868C1.44129 0.316071 2.20435 0 3 0H37C37.7957 0 38.5587 0.316071 39.1213 0.87868C39.6839 1.44129 40 2.20435 40 3V6H0V3Z" fill="#D41D3A"/>
<path fill-rule="evenodd" clip-rule="evenodd" d="M0 10V25C0 25.7956 0.316071 26.5587 0.87868 27.1213C1.44129 27.6839 2.20435 28 3 28H37C37.7957 28 38.5587 27.6839 39.1213 27.1213C39.6839 26.5587 40 25.7956 40 25V10H0ZM14 18H4V14H14V18Z" fill="#D41D3A"/>
</svg>
