<svg width="300" height="420" viewBox="0 0 300 420" fill="none" xmlns="http://www.w3.org/2000/svg">
<mask id="mask0_560_625" style="mask-type:alpha" maskUnits="userSpaceOnUse" x="0" y="0" width="300" height="420">
<rect width="300" height="420" rx="8" fill="white"/>
</mask>
<g mask="url(#mask0_560_625)">
<rect width="300" height="420" rx="8" fill="#8DC7ED"/>
<g opacity="0.1">
<path d="M8 43.1902C8 41.5367 8.64397 39.9823 9.81331 38.8131C10.9827 37.6439 12.5373 37 14.191 37C15.8447 37 17.3993 37.6439 18.5687 38.8131L22.9213 43.1651L14.1659 51.9193L9.81331 47.5673C8.64397 46.3981 8 44.8437 8 43.1902ZM23.837 44.0807L28.1896 48.4327C30.6035 50.8463 30.6035 54.7734 28.1896 57.1869C27.0203 58.3561 25.4656 59 23.8119 59C22.1582 59 20.6035 58.3561 19.4342 57.1869L15.0817 52.8349L23.837 44.0807Z" fill="white"/>
<path d="M38 72.1902C38 70.5367 38.644 68.9823 39.8133 67.8131C40.9827 66.6439 42.5373 66 44.191 66C45.8447 66 47.3993 66.6439 48.5687 67.8131L52.9213 72.1651L44.1659 80.9193L39.8133 76.5673C38.644 75.3981 38 73.8437 38 72.1902ZM53.837 73.0807L58.1896 77.4327C60.6035 79.8463 60.6035 83.7734 58.1896 86.1869C57.0203 87.3561 55.4656 88 53.8119 88C52.1582 88 50.6035 87.3561 49.4342 86.1869L45.0817 81.8349L53.837 73.0807Z" fill="white"/>
<path d="M69 103.19C69 101.537 69.644 99.9823 70.8133 98.8131C71.9827 97.6439 73.5373 97 75.191 97C76.8447 97 78.3993 97.6439 79.5687 98.8131L83.9213 103.165L75.1659 111.919L70.8133 107.567C69.644 106.398 69 104.844 69 103.19ZM84.8371 104.081L89.1896 108.433C91.6035 110.846 91.6035 114.773 89.1896 117.187C88.0203 118.356 86.4656 119 84.8119 119C83.1582 119 81.6035 118.356 80.4342 117.187L76.0817 112.835L84.8371 104.081Z" fill="white"/>
<path d="M98 132.19C98 130.537 98.644 128.982 99.8133 127.813C100.983 126.644 102.537 126 104.191 126C105.845 126 107.399 126.644 108.569 127.813L112.921 132.165L104.166 140.919L99.8133 136.567C98.644 135.398 98 133.844 98 132.19ZM113.837 133.081L118.19 137.433C120.603 139.846 120.603 143.773 118.19 146.187C117.02 147.356 115.466 148 113.812 148C112.158 148 110.604 147.356 109.434 146.187L105.082 141.835L113.837 133.081Z" fill="white"/>
<path d="M128 161.19C128 159.537 128.644 157.982 129.813 156.813C130.983 155.644 132.537 155 134.191 155C135.845 155 137.399 155.644 138.569 156.813L142.921 161.165L134.166 169.919L129.813 165.567C128.644 164.398 128 162.844 128 161.19ZM143.837 162.081L148.19 166.433C150.603 168.846 150.603 172.773 148.19 175.187C147.02 176.356 145.466 177 143.812 177C142.158 177 140.604 176.356 139.434 175.187L135.082 170.835L143.837 162.081Z" fill="white"/>
<path d="M159 192.19C159 190.537 159.644 188.982 160.813 187.813C161.983 186.644 163.537 186 165.191 186C166.845 186 168.399 186.644 169.569 187.813L173.921 192.165L165.166 200.919L160.813 196.567C159.644 195.398 159 193.844 159 192.19ZM174.837 193.081L179.19 197.433C181.603 199.846 181.603 203.773 179.19 206.187C178.02 207.356 176.466 208 174.812 208C173.158 208 171.604 207.356 170.434 206.187L166.082 201.835L174.837 193.081Z" fill="white"/>
<path d="M188 222.19C188 220.537 188.644 218.982 189.813 217.813C190.983 216.644 192.537 216 194.191 216C195.845 216 197.399 216.644 198.569 217.813L202.921 222.165L194.166 230.919L189.813 226.567C188.644 225.398 188 223.844 188 222.19ZM203.837 223.081L208.19 227.433C210.603 229.846 210.603 233.773 208.19 236.187C207.02 237.356 205.466 238 203.812 238C202.158 238 200.604 237.356 199.434 236.187L195.082 231.835L203.837 223.081Z" fill="white"/>
<path d="M217 251.19C217 249.537 217.644 247.982 218.813 246.813C219.983 245.644 221.537 245 223.191 245C224.845 245 226.399 245.644 227.569 246.813L231.921 251.165L223.166 259.919L218.813 255.567C217.644 254.398 217 252.844 217 251.19ZM232.837 252.081L237.19 256.433C239.603 258.846 239.603 262.773 237.19 265.187C236.02 266.356 234.466 267 232.812 267C231.158 267 229.604 266.356 228.434 265.187L224.082 260.835L232.837 252.081Z" fill="white"/>
<path d="M248 282.19C248 280.537 248.644 278.982 249.813 277.813C250.983 276.644 252.537 276 254.191 276C255.845 276 257.399 276.644 258.569 277.813L262.921 282.165L254.166 290.919L249.813 286.567C248.644 285.398 248 283.844 248 282.19ZM263.837 283.081L268.19 287.433C270.603 289.846 270.603 293.773 268.19 296.187C267.02 297.356 265.466 298 263.812 298C262.158 298 260.604 297.356 259.434 296.187L255.082 291.835L263.837 283.081Z" fill="white"/>
<path d="M278 311.19C278 309.537 278.644 307.982 279.813 306.813C280.983 305.644 282.537 305 284.191 305C285.845 305 287.399 305.644 288.569 306.813L292.921 311.165L284.166 319.919L279.813 315.567C278.644 314.398 278 312.844 278 311.19ZM293.837 312.081L298.19 316.433C300.603 318.846 300.603 322.773 298.19 325.187C297.02 326.356 295.466 327 293.812 327C292.158 327 290.604 326.356 289.434 325.187L285.082 320.835L293.837 312.081Z" fill="white"/>
<path d="M37 14.1902C37 12.5367 37.644 10.9823 38.8133 9.81306C39.9827 8.64388 41.5373 8 43.191 8C44.8447 8 46.3993 8.64388 47.5687 9.81306L51.9213 14.1651L43.1659 22.9193L38.8133 18.5673C37.644 17.3981 37 15.8437 37 14.1902ZM52.837 15.0807L57.1896 19.4327C59.6035 21.8463 59.6035 25.7734 57.1896 28.1869C56.0203 29.3561 54.4656 30 52.8119 30C51.1582 30 49.6035 29.3561 48.4342 28.1869L44.0817 23.8349L52.837 15.0807Z" fill="white"/>
<path d="M67 43.1902C67 41.5367 67.644 39.9823 68.8133 38.8131C69.9827 37.6439 71.5373 37 73.191 37C74.8447 37 76.3993 37.6439 77.5687 38.8131L81.9213 43.1651L73.1659 51.9193L68.8133 47.5673C67.644 46.3981 67 44.8437 67 43.1902ZM82.837 44.0807L87.1896 48.4327C89.6035 50.8463 89.6035 54.7734 87.1896 57.1869C86.0203 58.3561 84.4656 59 82.8119 59C81.1582 59 79.6035 58.3561 78.4342 57.1869L74.0817 52.8349L82.837 44.0807Z" fill="white"/>
<path d="M98 74.1902C98 72.5367 98.644 70.9823 99.8133 69.8131C100.983 68.6439 102.537 68 104.191 68C105.845 68 107.399 68.6439 108.569 69.8131L112.921 74.1651L104.166 82.9193L99.8133 78.5673C98.644 77.3981 98 75.8437 98 74.1902ZM113.837 75.0807L118.19 79.4327C120.603 81.8463 120.603 85.7734 118.19 88.1869C117.02 89.3561 115.466 90 113.812 90C112.158 90 110.604 89.3561 109.434 88.1869L105.082 83.8349L113.837 75.0807Z" fill="white"/>
<path d="M127 103.19C127 101.537 127.644 99.9823 128.813 98.8131C129.983 97.6439 131.537 97 133.191 97C134.845 97 136.399 97.6439 137.569 98.8131L141.921 103.165L133.166 111.919L128.813 107.567C127.644 106.398 127 104.844 127 103.19ZM142.837 104.081L147.19 108.433C149.603 110.846 149.603 114.773 147.19 117.187C146.02 118.356 144.466 119 142.812 119C141.158 119 139.604 118.356 138.434 117.187L134.082 112.835L142.837 104.081Z" fill="white"/>
<path d="M157 132.19C157 130.537 157.644 128.982 158.813 127.813C159.983 126.644 161.537 126 163.191 126C164.845 126 166.399 126.644 167.569 127.813L171.921 132.165L163.166 140.919L158.813 136.567C157.644 135.398 157 133.844 157 132.19ZM172.837 133.081L177.19 137.433C179.603 139.846 179.603 143.773 177.19 146.187C176.02 147.356 174.466 148 172.812 148C171.158 148 169.604 147.356 168.434 146.187L164.082 141.835L172.837 133.081Z" fill="white"/>
<path d="M188 163.19C188 161.537 188.644 159.982 189.813 158.813C190.983 157.644 192.537 157 194.191 157C195.845 157 197.399 157.644 198.569 158.813L202.921 163.165L194.166 171.919L189.813 167.567C188.644 166.398 188 164.844 188 163.19ZM203.837 164.081L208.19 168.433C210.603 170.846 210.603 174.773 208.19 177.187C207.02 178.356 205.466 179 203.812 179C202.158 179 200.604 178.356 199.434 177.187L195.082 172.835L203.837 164.081Z" fill="white"/>
<path d="M217 193.19C217 191.537 217.644 189.982 218.813 188.813C219.983 187.644 221.537 187 223.191 187C224.845 187 226.399 187.644 227.569 188.813L231.921 193.165L223.166 201.919L218.813 197.567C217.644 196.398 217 194.844 217 193.19ZM232.837 194.081L237.19 198.433C239.603 200.846 239.603 204.773 237.19 207.187C236.02 208.356 234.466 209 232.812 209C231.158 209 229.604 208.356 228.434 207.187L224.082 202.835L232.837 194.081Z" fill="white"/>
<path d="M246 222.19C246 220.537 246.644 218.982 247.813 217.813C248.983 216.644 250.537 216 252.191 216C253.845 216 255.399 216.644 256.569 217.813L260.921 222.165L252.166 230.919L247.813 226.567C246.644 225.398 246 223.844 246 222.19ZM261.837 223.081L266.19 227.433C268.603 229.846 268.603 233.773 266.19 236.187C265.02 237.356 263.466 238 261.812 238C260.158 238 258.604 237.356 257.434 236.187L253.082 231.835L261.837 223.081Z" fill="white"/>
<path d="M277 253.19C277 251.537 277.644 249.982 278.813 248.813C279.983 247.644 281.537 247 283.191 247C284.845 247 286.399 247.644 287.569 248.813L291.921 253.165L283.166 261.919L278.813 257.567C277.644 256.398 277 254.844 277 253.19ZM292.837 254.081L297.19 258.433C299.603 260.846 299.603 264.773 297.19 267.187C296.02 268.356 294.466 269 292.812 269C291.158 269 289.604 268.356 288.434 267.187L284.082 262.835L292.837 254.081Z" fill="white"/>
<path d="M307 282.19C307 280.537 307.644 278.982 308.813 277.813C309.983 276.644 311.537 276 313.191 276C314.845 276 316.399 276.644 317.569 277.813L321.921 282.165L313.166 290.919L308.813 286.567C307.644 285.398 307 283.844 307 282.19ZM322.837 283.081L327.19 287.433C329.603 289.846 329.603 293.773 327.19 296.187C326.02 297.356 324.466 298 322.812 298C321.158 298 319.604 297.356 318.434 296.187L314.082 291.835L322.837 283.081Z" fill="white"/>
<path d="M66 -16.8098C66 -18.4633 66.644 -20.0177 67.8133 -21.1869C68.9827 -22.3561 70.5373 -23 72.191 -23C73.8447 -23 75.3993 -22.3561 76.5687 -21.1869L80.9213 -16.8349L72.1659 -8.0807L67.8133 -12.4327C66.644 -13.6019 66 -15.1563 66 -16.8098ZM81.837 -15.9193L86.1896 -11.5673C88.6035 -9.15376 88.6035 -5.22663 86.1896 -2.81306C85.0203 -1.64388 83.4656 -1 81.8119 -1C80.1582 -1 78.6035 -1.64388 77.4342 -2.81306L73.0817 -7.16505L81.837 -15.9193Z" fill="white"/>
<path d="M96 12.1902C96 10.5367 96.644 8.98225 97.8133 7.81306C98.9827 6.64388 100.537 6 102.191 6C103.845 6 105.399 6.64388 106.569 7.81306L110.921 12.1651L102.166 20.9193L97.8133 16.5673C96.644 15.3981 96 13.8437 96 12.1902ZM111.837 13.0807L116.19 17.4327C118.603 19.8463 118.603 23.7734 116.19 26.1869C115.02 27.3561 113.466 28 111.812 28C110.158 28 108.604 27.3561 107.434 26.1869L103.082 21.8349L111.837 13.0807Z" fill="white"/>
<path d="M127 43.1902C127 41.5367 127.644 39.9823 128.813 38.8131C129.983 37.6439 131.537 37 133.191 37C134.845 37 136.399 37.6439 137.569 38.8131L141.921 43.1651L133.166 51.9193L128.813 47.5673C127.644 46.3981 127 44.8437 127 43.1902ZM142.837 44.0807L147.19 48.4327C149.603 50.8463 149.603 54.7734 147.19 57.1869C146.02 58.3561 144.466 59 142.812 59C141.158 59 139.604 58.3561 138.434 57.1869L134.082 52.8349L142.837 44.0807Z" fill="white"/>
<path d="M156 72.1902C156 70.5367 156.644 68.9823 157.813 67.8131C158.983 66.6439 160.537 66 162.191 66C163.845 66 165.399 66.6439 166.569 67.8131L170.921 72.1651L162.166 80.9193L157.813 76.5673C156.644 75.3981 156 73.8437 156 72.1902ZM171.837 73.0807L176.19 77.4327C178.603 79.8463 178.603 83.7734 176.19 86.1869C175.02 87.3561 173.466 88 171.812 88C170.158 88 168.604 87.3561 167.434 86.1869L163.082 81.8349L171.837 73.0807Z" fill="white"/>
<path d="M186 101.19C186 99.5367 186.644 97.9823 187.813 96.8131C188.983 95.6439 190.537 95 192.191 95C193.845 95 195.399 95.6439 196.569 96.8131L200.921 101.165L192.166 109.919L187.813 105.567C186.644 104.398 186 102.844 186 101.19ZM201.837 102.081L206.19 106.433C208.603 108.846 208.603 112.773 206.19 115.187C205.02 116.356 203.466 117 201.812 117C200.158 117 198.604 116.356 197.434 115.187L193.082 110.835L201.837 102.081Z" fill="white"/>
<path d="M217 132.19C217 130.537 217.644 128.982 218.813 127.813C219.983 126.644 221.537 126 223.191 126C224.845 126 226.399 126.644 227.569 127.813L231.921 132.165L223.166 140.919L218.813 136.567C217.644 135.398 217 133.844 217 132.19ZM232.837 133.081L237.19 137.433C239.603 139.846 239.603 143.773 237.19 146.187C236.02 147.356 234.466 148 232.812 148C231.158 148 229.604 147.356 228.434 146.187L224.082 141.835L232.837 133.081Z" fill="white"/>
<path d="M246 162.19C246 160.537 246.644 158.982 247.813 157.813C248.983 156.644 250.537 156 252.191 156C253.845 156 255.399 156.644 256.569 157.813L260.921 162.165L252.166 170.919L247.813 166.567C246.644 165.398 246 163.844 246 162.19ZM261.837 163.081L266.19 167.433C268.603 169.846 268.603 173.773 266.19 176.187C265.02 177.356 263.466 178 261.812 178C260.158 178 258.604 177.356 257.434 176.187L253.082 171.835L261.837 163.081Z" fill="white"/>
<path d="M275 191.19C275 189.537 275.644 187.982 276.813 186.813C277.983 185.644 279.537 185 281.191 185C282.845 185 284.399 185.644 285.569 186.813L289.921 191.165L281.166 199.919L276.813 195.567C275.644 194.398 275 192.844 275 191.19ZM290.837 192.081L295.19 196.433C297.603 198.846 297.603 202.773 295.19 205.187C294.02 206.356 292.466 207 290.812 207C289.158 207 287.604 206.356 286.434 205.187L282.082 200.835L290.837 192.081Z" fill="white"/>
<path d="M306 222.19C306 220.537 306.644 218.982 307.813 217.813C308.983 216.644 310.537 216 312.191 216C313.845 216 315.399 216.644 316.569 217.813L320.921 222.165L312.166 230.919L307.813 226.567C306.644 225.398 306 223.844 306 222.19ZM321.837 223.081L326.19 227.433C328.603 229.846 328.603 233.773 326.19 236.187C325.02 237.356 323.466 238 321.812 238C320.158 238 318.604 237.356 317.434 236.187L313.082 231.835L321.837 223.081Z" fill="white"/>
<path d="M336 251.19C336 249.537 336.644 247.982 337.813 246.813C338.983 245.644 340.537 245 342.191 245C343.845 245 345.399 245.644 346.569 246.813L350.921 251.165L342.166 259.919L337.813 255.567C336.644 254.398 336 252.844 336 251.19ZM351.837 252.081L356.19 256.433C358.603 258.846 358.603 262.773 356.19 265.187C355.02 266.356 353.466 267 351.812 267C350.158 267 348.604 266.356 347.434 265.187L343.082 260.835L351.837 252.081Z" fill="white"/>
<path d="M97 -45.8098C97 -47.4633 97.644 -49.0177 98.8133 -50.1869C99.9827 -51.3561 101.537 -52 103.191 -52C104.845 -52 106.399 -51.3561 107.569 -50.1869L111.921 -45.8349L103.166 -37.0807L98.8133 -41.4327C97.644 -42.6019 97 -44.1563 97 -45.8098ZM112.837 -44.9193L117.19 -40.5673C119.603 -38.1538 119.603 -34.2266 117.19 -31.8131C116.02 -30.6439 114.466 -30 112.812 -30C111.158 -30 109.604 -30.6439 108.434 -31.8131L104.082 -36.1651L112.837 -44.9193Z" fill="white"/>
<path d="M127 -16.8098C127 -18.4633 127.644 -20.0177 128.813 -21.1869C129.983 -22.3561 131.537 -23 133.191 -23C134.845 -23 136.399 -22.3561 137.569 -21.1869L141.921 -16.8349L133.166 -8.0807L128.813 -12.4327C127.644 -13.6019 127 -15.1563 127 -16.8098ZM142.837 -15.9193L147.19 -11.5673C149.603 -9.15376 149.603 -5.22663 147.19 -2.81306C146.02 -1.64388 144.466 -1 142.812 -1C141.158 -1 139.604 -1.64388 138.434 -2.81306L134.082 -7.16505L142.837 -15.9193Z" fill="white"/>
<path d="M158 14.1902C158 12.5367 158.644 10.9823 159.813 9.81306C160.983 8.64388 162.537 8 164.191 8C165.845 8 167.399 8.64388 168.569 9.81306L172.921 14.1651L164.166 22.9193L159.813 18.5673C158.644 17.3981 158 15.8437 158 14.1902ZM173.837 15.0807L178.19 19.4327C180.603 21.8463 180.603 25.7734 178.19 28.1869C177.02 29.3561 175.466 30 173.812 30C172.158 30 170.604 29.3561 169.434 28.1869L165.082 23.8349L173.837 15.0807Z" fill="white"/>
<path d="M187 43.1902C187 41.5367 187.644 39.9823 188.813 38.8131C189.983 37.6439 191.537 37 193.191 37C194.845 37 196.399 37.6439 197.569 38.8131L201.921 43.1651L193.166 51.9193L188.813 47.5673C187.644 46.3981 187 44.8437 187 43.1902ZM202.837 44.0807L207.19 48.4327C209.603 50.8463 209.603 54.7734 207.19 57.1869C206.02 58.3561 204.466 59 202.812 59C201.158 59 199.604 58.3561 198.434 57.1869L194.082 52.8349L202.837 44.0807Z" fill="white"/>
<path d="M217 72.1902C217 70.5367 217.644 68.9823 218.813 67.8131C219.983 66.6439 221.537 66 223.191 66C224.845 66 226.399 66.6439 227.569 67.8131L231.921 72.1651L223.166 80.9193L218.813 76.5673C217.644 75.3981 217 73.8437 217 72.1902ZM232.837 73.0807L237.19 77.4327C239.603 79.8463 239.603 83.7734 237.19 86.1869C236.02 87.3561 234.466 88 232.812 88C231.158 88 229.604 87.3561 228.434 86.1869L224.082 81.8349L232.837 73.0807Z" fill="white"/>
<path d="M248 103.19C248 101.537 248.644 99.9823 249.813 98.8131C250.983 97.6439 252.537 97 254.191 97C255.845 97 257.399 97.6439 258.569 98.8131L262.921 103.165L254.166 111.919L249.813 107.567C248.644 106.398 248 104.844 248 103.19ZM263.837 104.081L268.19 108.433C270.603 110.846 270.603 114.773 268.19 117.187C267.02 118.356 265.466 119 263.812 119C262.158 119 260.604 118.356 259.434 117.187L255.082 112.835L263.837 104.081Z" fill="white"/>
<path d="M277 133.19C277 131.537 277.644 129.982 278.813 128.813C279.983 127.644 281.537 127 283.191 127C284.845 127 286.399 127.644 287.569 128.813L291.921 133.165L283.166 141.919L278.813 137.567C277.644 136.398 277 134.844 277 133.19ZM292.837 134.081L297.19 138.433C299.603 140.846 299.603 144.773 297.19 147.187C296.02 148.356 294.466 149 292.812 149C291.158 149 289.604 148.356 288.434 147.187L284.082 142.835L292.837 134.081Z" fill="white"/>
<path d="M306 162.19C306 160.537 306.644 158.982 307.813 157.813C308.983 156.644 310.537 156 312.191 156C313.845 156 315.399 156.644 316.569 157.813L320.921 162.165L312.166 170.919L307.813 166.567C306.644 165.398 306 163.844 306 162.19ZM321.837 163.081L326.19 167.433C328.603 169.846 328.603 173.773 326.19 176.187C325.02 177.356 323.466 178 321.812 178C320.158 178 318.604 177.356 317.434 176.187L313.082 171.835L321.837 163.081Z" fill="white"/>
<path d="M337 193.19C337 191.537 337.644 189.982 338.813 188.813C339.983 187.644 341.537 187 343.191 187C344.845 187 346.399 187.644 347.569 188.813L351.921 193.165L343.166 201.919L338.813 197.567C337.644 196.398 337 194.844 337 193.19ZM352.837 194.081L357.19 198.433C359.603 200.846 359.603 204.773 357.19 207.187C356.02 208.356 354.466 209 352.812 209C351.158 209 349.604 208.356 348.434 207.187L344.082 202.835L352.837 194.081Z" fill="white"/>
<path d="M367 222.19C367 220.537 367.644 218.982 368.813 217.813C369.983 216.644 371.537 216 373.191 216C374.845 216 376.399 216.644 377.569 217.813L381.921 222.165L373.166 230.919L368.813 226.567C367.644 225.398 367 223.844 367 222.19ZM382.837 223.081L387.19 227.433C389.603 229.846 389.603 233.773 387.19 236.187C386.02 237.356 384.466 238 382.812 238C381.158 238 379.604 237.356 378.434 236.187L374.082 231.835L382.837 223.081Z" fill="white"/>
<path d="M126 -73.8098C126 -75.4633 126.644 -77.0177 127.813 -78.1869C128.983 -79.3561 130.537 -80 132.191 -80C133.845 -80 135.399 -79.3561 136.569 -78.1869L140.921 -73.8349L132.166 -65.0807L127.813 -69.4327C126.644 -70.6019 126 -72.1563 126 -73.8098ZM141.837 -72.9193L146.19 -68.5673C148.603 -66.1538 148.603 -62.2266 146.19 -59.8131C145.02 -58.6439 143.466 -58 141.812 -58C140.158 -58 138.604 -58.6439 137.434 -59.8131L133.082 -64.1651L141.837 -72.9193Z" fill="white"/>
<path d="M156 -44.8098C156 -46.4633 156.644 -48.0177 157.813 -49.1869C158.983 -50.3561 160.537 -51 162.191 -51C163.845 -51 165.399 -50.3561 166.569 -49.1869L170.921 -44.8349L162.166 -36.0807L157.813 -40.4327C156.644 -41.6019 156 -43.1563 156 -44.8098ZM171.837 -43.9193L176.19 -39.5673C178.603 -37.1538 178.603 -33.2266 176.19 -30.8131C175.02 -29.6439 173.466 -29 171.812 -29C170.158 -29 168.604 -29.6439 167.434 -30.8131L163.082 -35.1651L171.837 -43.9193Z" fill="white"/>
<path d="M187 -13.8098C187 -15.4633 187.644 -17.0177 188.813 -18.1869C189.983 -19.3561 191.537 -20 193.191 -20C194.845 -20 196.399 -19.3561 197.569 -18.1869L201.921 -13.8349L193.166 -5.0807L188.813 -9.43268C187.644 -10.6019 187 -12.1563 187 -13.8098ZM202.837 -12.9193L207.19 -8.56732C209.603 -6.15376 209.603 -2.22663 207.19 0.186935C206.02 1.35612 204.466 2 202.812 2C201.158 2 199.604 1.35612 198.434 0.186935L194.082 -4.16505L202.837 -12.9193Z" fill="white"/>
<path d="M216 15.1902C216 13.5367 216.644 11.9823 217.813 10.8131C218.983 9.64388 220.537 9 222.191 9C223.845 9 225.399 9.64388 226.569 10.8131L230.921 15.1651L222.166 23.9193L217.813 19.5673C216.644 18.3981 216 16.8437 216 15.1902ZM231.837 16.0807L236.19 20.4327C238.603 22.8463 238.603 26.7734 236.19 29.1869C235.02 30.3561 233.466 31 231.812 31C230.158 31 228.604 30.3561 227.434 29.1869L223.082 24.8349L231.837 16.0807Z" fill="white"/>
<path d="M246 44.1902C246 42.5367 246.644 40.9823 247.813 39.8131C248.983 38.6439 250.537 38 252.191 38C253.845 38 255.399 38.6439 256.569 39.8131L260.921 44.1651L252.166 52.9193L247.813 48.5673C246.644 47.3981 246 45.8437 246 44.1902ZM261.837 45.0807L266.19 49.4327C268.603 51.8463 268.603 55.7734 266.19 58.1869C265.02 59.3561 263.466 60 261.812 60C260.158 60 258.604 59.3561 257.434 58.1869L253.082 53.8349L261.837 45.0807Z" fill="white"/>
<path d="M277 75.1902C277 73.5367 277.644 71.9823 278.813 70.8131C279.983 69.6439 281.537 69 283.191 69C284.845 69 286.399 69.6439 287.569 70.8131L291.921 75.1651L283.166 83.9193L278.813 79.5673C277.644 78.3981 277 76.8437 277 75.1902ZM292.837 76.0807L297.19 80.4327C299.603 82.8463 299.603 86.7734 297.19 89.1869C296.02 90.3561 294.466 91 292.812 91C291.158 91 289.604 90.3561 288.434 89.1869L284.082 84.8349L292.837 76.0807Z" fill="white"/>
<path d="M306 105.19C306 103.537 306.644 101.982 307.813 100.813C308.983 99.6439 310.537 99 312.191 99C313.845 99 315.399 99.6439 316.569 100.813L320.921 105.165L312.166 113.919L307.813 109.567C306.644 108.398 306 106.844 306 105.19ZM321.837 106.081L326.19 110.433C328.603 112.846 328.603 116.773 326.19 119.187C325.02 120.356 323.466 121 321.812 121C320.158 121 318.604 120.356 317.434 119.187L313.082 114.835L321.837 106.081Z" fill="white"/>
<path d="M335 134.19C335 132.537 335.644 130.982 336.813 129.813C337.983 128.644 339.537 128 341.191 128C342.845 128 344.399 128.644 345.569 129.813L349.921 134.165L341.166 142.919L336.813 138.567C335.644 137.398 335 135.844 335 134.19ZM350.837 135.081L355.19 139.433C357.603 141.846 357.603 145.773 355.19 148.187C354.02 149.356 352.466 150 350.812 150C349.158 150 347.604 149.356 346.434 148.187L342.082 143.835L350.837 135.081Z" fill="white"/>
<path d="M366 165.19C366 163.537 366.644 161.982 367.813 160.813C368.983 159.644 370.537 159 372.191 159C373.845 159 375.399 159.644 376.569 160.813L380.921 165.165L372.166 173.919L367.813 169.567C366.644 168.398 366 166.844 366 165.19ZM381.837 166.081L386.19 170.433C388.603 172.846 388.603 176.773 386.19 179.187C385.02 180.356 383.466 181 381.812 181C380.158 181 378.604 180.356 377.434 179.187L373.082 174.835L381.837 166.081Z" fill="white"/>
<path d="M396 194.19C396 192.537 396.644 190.982 397.813 189.813C398.983 188.644 400.537 188 402.191 188C403.845 188 405.399 188.644 406.569 189.813L410.921 194.165L402.166 202.919L397.813 198.567C396.644 197.398 396 195.844 396 194.19ZM411.837 195.081L416.19 199.433C418.603 201.846 418.603 205.773 416.19 208.187C415.02 209.356 413.466 210 411.812 210C410.158 210 408.604 209.356 407.434 208.187L403.082 203.835L411.837 195.081Z" fill="white"/>
<path d="M158 -104.81C158 -106.463 158.644 -108.018 159.813 -109.187C160.983 -110.356 162.537 -111 164.191 -111C165.845 -111 167.399 -110.356 168.569 -109.187L172.921 -104.835L164.166 -96.0807L159.813 -100.433C158.644 -101.602 158 -103.156 158 -104.81ZM173.837 -103.919L178.19 -99.5673C180.603 -97.1538 180.603 -93.2266 178.19 -90.8131C177.02 -89.6439 175.466 -89 173.812 -89C172.158 -89 170.604 -89.6439 169.434 -90.8131L165.082 -95.1651L173.837 -103.919Z" fill="white"/>
<path d="M188 -75.8098C188 -77.4633 188.644 -79.0177 189.813 -80.1869C190.983 -81.3561 192.537 -82 194.191 -82C195.845 -82 197.399 -81.3561 198.569 -80.1869L202.921 -75.8349L194.166 -67.0807L189.813 -71.4327C188.644 -72.6019 188 -74.1563 188 -75.8098ZM203.837 -74.9193L208.19 -70.5673C210.603 -68.1538 210.603 -64.2266 208.19 -61.8131C207.02 -60.6439 205.466 -60 203.812 -60C202.158 -60 200.604 -60.6439 199.434 -61.8131L195.082 -66.1651L203.837 -74.9193Z" fill="white"/>
<path d="M219 -44.8098C219 -46.4633 219.644 -48.0177 220.813 -49.1869C221.983 -50.3561 223.537 -51 225.191 -51C226.845 -51 228.399 -50.3561 229.569 -49.1869L233.921 -44.8349L225.166 -36.0807L220.813 -40.4327C219.644 -41.6019 219 -43.1563 219 -44.8098ZM234.837 -43.9193L239.19 -39.5673C241.603 -37.1538 241.603 -33.2266 239.19 -30.8131C238.02 -29.6439 236.466 -29 234.812 -29C233.158 -29 231.604 -29.6439 230.434 -30.8131L226.082 -35.1651L234.837 -43.9193Z" fill="white"/>
<path d="M248 -15.8098C248 -17.4633 248.644 -19.0177 249.813 -20.1869C250.983 -21.3561 252.537 -22 254.191 -22C255.845 -22 257.399 -21.3561 258.569 -20.1869L262.921 -15.8349L254.166 -7.0807L249.813 -11.4327C248.644 -12.6019 248 -14.1563 248 -15.8098ZM263.837 -14.9193L268.19 -10.5673C270.603 -8.15376 270.603 -4.22663 268.19 -1.81306C267.02 -0.643875 265.466 0 263.812 0C262.158 0 260.604 -0.643875 259.434 -1.81306L255.082 -6.16505L263.837 -14.9193Z" fill="white"/>
<path d="M278 13.1902C278 11.5367 278.644 9.98225 279.813 8.81306C280.983 7.64388 282.537 7 284.191 7C285.845 7 287.399 7.64388 288.569 8.81306L292.921 13.1651L284.166 21.9193L279.813 17.5673C278.644 16.3981 278 14.8437 278 13.1902ZM293.837 14.0807L298.19 18.4327C300.603 20.8463 300.603 24.7734 298.19 27.1869C297.02 28.3561 295.466 29 293.812 29C292.158 29 290.604 28.3561 289.434 27.1869L285.082 22.8349L293.837 14.0807Z" fill="white"/>
<path d="M309 44.1902C309 42.5367 309.644 40.9823 310.813 39.8131C311.983 38.6439 313.537 38 315.191 38C316.845 38 318.399 38.6439 319.569 39.8131L323.921 44.1651L315.166 52.9193L310.813 48.5673C309.644 47.3981 309 45.8437 309 44.1902ZM324.837 45.0807L329.19 49.4327C331.603 51.8463 331.603 55.7734 329.19 58.1869C328.02 59.3561 326.466 60 324.812 60C323.158 60 321.604 59.3561 320.434 58.1869L316.082 53.8349L324.837 45.0807Z" fill="white"/>
<path d="M338 74.1902C338 72.5367 338.644 70.9823 339.813 69.8131C340.983 68.6439 342.537 68 344.191 68C345.845 68 347.399 68.6439 348.569 69.8131L352.921 74.1651L344.166 82.9193L339.813 78.5673C338.644 77.3981 338 75.8437 338 74.1902ZM353.837 75.0807L358.19 79.4327C360.603 81.8463 360.603 85.7734 358.19 88.1869C357.02 89.3561 355.466 90 353.812 90C352.158 90 350.604 89.3561 349.434 88.1869L345.082 83.8349L353.837 75.0807Z" fill="white"/>
<path d="M367 103.19C367 101.537 367.644 99.9823 368.813 98.8131C369.983 97.6439 371.537 97 373.191 97C374.845 97 376.399 97.6439 377.569 98.8131L381.921 103.165L373.166 111.919L368.813 107.567C367.644 106.398 367 104.844 367 103.19ZM382.837 104.081L387.19 108.433C389.603 110.846 389.603 114.773 387.19 117.187C386.02 118.356 384.466 119 382.812 119C381.158 119 379.604 118.356 378.434 117.187L374.082 112.835L382.837 104.081Z" fill="white"/>
<path d="M398 134.19C398 132.537 398.644 130.982 399.813 129.813C400.983 128.644 402.537 128 404.191 128C405.845 128 407.399 128.644 408.569 129.813L412.921 134.165L404.166 142.919L399.813 138.567C398.644 137.398 398 135.844 398 134.19ZM413.837 135.081L418.19 139.433C420.603 141.846 420.603 145.773 418.19 148.187C417.02 149.356 415.466 150 413.812 150C412.158 150 410.604 149.356 409.434 148.187L405.082 143.835L413.837 135.081Z" fill="white"/>
<path d="M428 163.19C428 161.537 428.644 159.982 429.813 158.813C430.983 157.644 432.537 157 434.191 157C435.845 157 437.399 157.644 438.569 158.813L442.921 163.165L434.166 171.919L429.813 167.567C428.644 166.398 428 164.844 428 163.19ZM443.837 164.081L448.19 168.433C450.603 170.846 450.603 174.773 448.19 177.187C447.02 178.356 445.466 179 443.812 179C442.158 179 440.604 178.356 439.434 177.187L435.082 172.835L443.837 164.081Z" fill="white"/>
<path d="M4 101.19C4 99.5367 4.64397 97.9823 5.81331 96.8131C6.98265 95.6439 8.53732 95 10.191 95C11.8447 95 13.3993 95.6439 14.5687 96.8131L18.9213 101.165L10.1659 109.919L5.81331 105.567C4.64397 104.398 4 102.844 4 101.19ZM19.837 102.081L24.1896 106.433C26.6035 108.846 26.6035 112.773 24.1896 115.187C23.0203 116.356 21.4656 117 19.8119 117C18.1582 117 16.6035 116.356 15.4342 115.187L11.0817 110.835L19.837 102.081Z" fill="white"/>
<path d="M34 130.19C34 128.537 34.644 126.982 35.8133 125.813C36.9827 124.644 38.5373 124 40.191 124C41.8447 124 43.3993 124.644 44.5687 125.813L48.9213 130.165L40.1659 138.919L35.8133 134.567C34.644 133.398 34 131.844 34 130.19ZM49.837 131.081L54.1896 135.433C56.6035 137.846 56.6035 141.773 54.1896 144.187C53.0203 145.356 51.4656 146 49.8119 146C48.1582 146 46.6035 145.356 45.4342 144.187L41.0817 139.835L49.837 131.081Z" fill="white"/>
<path d="M65 161.19C65 159.537 65.644 157.982 66.8133 156.813C67.9827 155.644 69.5373 155 71.191 155C72.8447 155 74.3993 155.644 75.5687 156.813L79.9213 161.165L71.1659 169.919L66.8133 165.567C65.644 164.398 65 162.844 65 161.19ZM80.837 162.081L85.1896 166.433C87.6035 168.846 87.6035 172.773 85.1896 175.187C84.0203 176.356 82.4656 177 80.8119 177C79.1582 177 77.6035 176.356 76.4342 175.187L72.0817 170.835L80.837 162.081Z" fill="white"/>
<path d="M94 190.19C94 188.537 94.644 186.982 95.8133 185.813C96.9827 184.644 98.5373 184 100.191 184C101.845 184 103.399 184.644 104.569 185.813L108.921 190.165L100.166 198.919L95.8133 194.567C94.644 193.398 94 191.844 94 190.19ZM109.837 191.081L114.19 195.433C116.603 197.846 116.603 201.773 114.19 204.187C113.02 205.356 111.466 206 109.812 206C108.158 206 106.604 205.356 105.434 204.187L101.082 199.835L109.837 191.081Z" fill="white"/>
<path d="M124 219.19C124 217.537 124.644 215.982 125.813 214.813C126.983 213.644 128.537 213 130.191 213C131.845 213 133.399 213.644 134.569 214.813L138.921 219.165L130.166 227.919L125.813 223.567C124.644 222.398 124 220.844 124 219.19ZM139.837 220.081L144.19 224.433C146.603 226.846 146.603 230.773 144.19 233.187C143.02 234.356 141.466 235 139.812 235C138.158 235 136.604 234.356 135.434 233.187L131.082 228.835L139.837 220.081Z" fill="white"/>
<path d="M155 250.19C155 248.537 155.644 246.982 156.813 245.813C157.983 244.644 159.537 244 161.191 244C162.845 244 164.399 244.644 165.569 245.813L169.921 250.165L161.166 258.919L156.813 254.567C155.644 253.398 155 251.844 155 250.19ZM170.837 251.081L175.19 255.433C177.603 257.846 177.603 261.773 175.19 264.187C174.02 265.356 172.466 266 170.812 266C169.158 266 167.604 265.356 166.434 264.187L162.082 259.835L170.837 251.081Z" fill="white"/>
<path d="M184 280.19C184 278.537 184.644 276.982 185.813 275.813C186.983 274.644 188.537 274 190.191 274C191.845 274 193.399 274.644 194.569 275.813L198.921 280.165L190.166 288.919L185.813 284.567C184.644 283.398 184 281.844 184 280.19ZM199.837 281.081L204.19 285.433C206.603 287.846 206.603 291.773 204.19 294.187C203.02 295.356 201.466 296 199.812 296C198.158 296 196.604 295.356 195.434 294.187L191.082 289.835L199.837 281.081Z" fill="white"/>
<path d="M213 309.19C213 307.537 213.644 305.982 214.813 304.813C215.983 303.644 217.537 303 219.191 303C220.845 303 222.399 303.644 223.569 304.813L227.921 309.165L219.166 317.919L214.813 313.567C213.644 312.398 213 310.844 213 309.19ZM228.837 310.081L233.19 314.433C235.603 316.846 235.603 320.773 233.19 323.187C232.02 324.356 230.466 325 228.812 325C227.158 325 225.604 324.356 224.434 323.187L220.082 318.835L228.837 310.081Z" fill="white"/>
<path d="M244 340.19C244 338.537 244.644 336.982 245.813 335.813C246.983 334.644 248.537 334 250.191 334C251.845 334 253.399 334.644 254.569 335.813L258.921 340.165L250.166 348.919L245.813 344.567C244.644 343.398 244 341.844 244 340.19ZM259.837 341.081L264.19 345.433C266.603 347.846 266.603 351.773 264.19 354.187C263.02 355.356 261.466 356 259.812 356C258.158 356 256.604 355.356 255.434 354.187L251.082 349.835L259.837 341.081Z" fill="white"/>
<path d="M274 369.19C274 367.537 274.644 365.982 275.813 364.813C276.983 363.644 278.537 363 280.191 363C281.845 363 283.399 363.644 284.569 364.813L288.921 369.165L280.166 377.919L275.813 373.567C274.644 372.398 274 370.844 274 369.19ZM289.837 370.081L294.19 374.433C296.603 376.846 296.603 380.773 294.19 383.187C293.02 384.356 291.466 385 289.812 385C288.158 385 286.604 384.356 285.434 383.187L281.082 378.835L289.837 370.081Z" fill="white"/>
<path d="M-22 134.19C-22 132.537 -21.356 130.982 -20.1867 129.813C-19.0173 128.644 -17.4627 128 -15.809 128C-14.1553 128 -12.6007 128.644 -11.4313 129.813L-7.07872 134.165L-15.8341 142.919L-20.1867 138.567C-21.356 137.398 -22 135.844 -22 134.19ZM-6.16296 135.081L-1.81039 139.433C0.603485 141.846 0.603455 145.773 -1.81039 148.187C-2.97969 149.356 -4.53441 150 -6.18808 150C-7.84175 150 -9.39647 149.356 -10.5658 148.187L-14.9183 143.835L-6.16296 135.081Z" fill="white"/>
<path d="M8 163.19C8 161.537 8.64397 159.982 9.81331 158.813C10.9827 157.644 12.5373 157 14.191 157C15.8447 157 17.3993 157.644 18.5687 158.813L22.9213 163.165L14.1659 171.919L9.81331 167.567C8.64397 166.398 8 164.844 8 163.19ZM23.837 164.081L28.1896 168.433C30.6035 170.846 30.6035 174.773 28.1896 177.187C27.0203 178.356 25.4656 179 23.8119 179C22.1582 179 20.6035 178.356 19.4342 177.187L15.0817 172.835L23.837 164.081Z" fill="white"/>
<path d="M39 194.19C39 192.537 39.644 190.982 40.8133 189.813C41.9827 188.644 43.5373 188 45.191 188C46.8447 188 48.3993 188.644 49.5687 189.813L53.9213 194.165L45.1659 202.919L40.8133 198.567C39.644 197.398 39 195.844 39 194.19ZM54.837 195.081L59.1896 199.433C61.6035 201.846 61.6035 205.773 59.1896 208.187C58.0203 209.356 56.4656 210 54.8119 210C53.1582 210 51.6035 209.356 50.4342 208.187L46.0817 203.835L54.837 195.081Z" fill="white"/>
<path d="M68 223.19C68 221.537 68.644 219.982 69.8133 218.813C70.9827 217.644 72.5373 217 74.191 217C75.8447 217 77.3993 217.644 78.5687 218.813L82.9213 223.165L74.1659 231.919L69.8133 227.567C68.644 226.398 68 224.844 68 223.19ZM83.837 224.081L88.1896 228.433C90.6035 230.846 90.6035 234.773 88.1896 237.187C87.0203 238.356 85.4656 239 83.8119 239C82.1582 239 80.6035 238.356 79.4342 237.187L75.0817 232.835L83.837 224.081Z" fill="white"/>
<path d="M98 252.19C98 250.537 98.644 248.982 99.8133 247.813C100.983 246.644 102.537 246 104.191 246C105.845 246 107.399 246.644 108.569 247.813L112.921 252.165L104.166 260.919L99.8133 256.567C98.644 255.398 98 253.844 98 252.19ZM113.837 253.081L118.19 257.433C120.603 259.846 120.603 263.773 118.19 266.187C117.02 267.356 115.466 268 113.812 268C112.158 268 110.604 267.356 109.434 266.187L105.082 261.835L113.837 253.081Z" fill="white"/>
<path d="M129 283.19C129 281.537 129.644 279.982 130.813 278.813C131.983 277.644 133.537 277 135.191 277C136.845 277 138.399 277.644 139.569 278.813L143.921 283.165L135.166 291.919L130.813 287.567C129.644 286.398 129 284.844 129 283.19ZM144.837 284.081L149.19 288.433C151.603 290.846 151.603 294.773 149.19 297.187C148.02 298.356 146.466 299 144.812 299C143.158 299 141.604 298.356 140.434 297.187L136.082 292.835L144.837 284.081Z" fill="white"/>
<path d="M158 313.19C158 311.537 158.644 309.982 159.813 308.813C160.983 307.644 162.537 307 164.191 307C165.845 307 167.399 307.644 168.569 308.813L172.921 313.165L164.166 321.919L159.813 317.567C158.644 316.398 158 314.844 158 313.19ZM173.837 314.081L178.19 318.433C180.603 320.846 180.603 324.773 178.19 327.187C177.02 328.356 175.466 329 173.812 329C172.158 329 170.604 328.356 169.434 327.187L165.082 322.835L173.837 314.081Z" fill="white"/>
<path d="M187 342.19C187 340.537 187.644 338.982 188.813 337.813C189.983 336.644 191.537 336 193.191 336C194.845 336 196.399 336.644 197.569 337.813L201.921 342.165L193.166 350.919L188.813 346.567C187.644 345.398 187 343.844 187 342.19ZM202.837 343.081L207.19 347.433C209.603 349.846 209.603 353.773 207.19 356.187C206.02 357.356 204.466 358 202.812 358C201.158 358 199.604 357.356 198.434 356.187L194.082 351.835L202.837 343.081Z" fill="white"/>
<path d="M218 373.19C218 371.537 218.644 369.982 219.813 368.813C220.983 367.644 222.537 367 224.191 367C225.845 367 227.399 367.644 228.569 368.813L232.921 373.165L224.166 381.919L219.813 377.567C218.644 376.398 218 374.844 218 373.19ZM233.837 374.081L238.19 378.433C240.603 380.846 240.603 384.773 238.19 387.187C237.02 388.356 235.466 389 233.812 389C232.158 389 230.604 388.356 229.434 387.187L225.082 382.835L233.837 374.081Z" fill="white"/>
<path d="M248 402.19C248 400.537 248.644 398.982 249.813 397.813C250.983 396.644 252.537 396 254.191 396C255.845 396 257.399 396.644 258.569 397.813L262.921 402.165L254.166 410.919L249.813 406.567C248.644 405.398 248 403.844 248 402.19ZM263.837 403.081L268.19 407.433C270.603 409.846 270.603 413.773 268.19 416.187C267.02 417.356 265.466 418 263.812 418C262.158 418 260.604 417.356 259.434 416.187L255.082 411.835L263.837 403.081Z" fill="white"/>
<path d="M-53 164.19C-53 162.537 -52.356 160.982 -51.1867 159.813C-50.0173 158.644 -48.4627 158 -46.809 158C-45.1553 158 -43.6007 158.644 -42.4313 159.813L-38.0787 164.165L-46.8341 172.919L-51.1867 168.567C-52.356 167.398 -53 165.844 -53 164.19ZM-37.163 165.081L-32.8104 169.433C-30.3965 171.846 -30.3966 175.773 -32.8104 178.187C-33.9797 179.356 -35.5344 180 -37.1881 180C-38.8418 180 -40.3965 179.356 -41.5658 178.187L-45.9183 173.835L-37.163 165.081Z" fill="white"/>
<path d="M-23 193.19C-23 191.537 -22.356 189.982 -21.1867 188.813C-20.0173 187.644 -18.4627 187 -16.809 187C-15.1553 187 -13.6007 187.644 -12.4313 188.813L-8.07872 193.165L-16.8341 201.919L-21.1867 197.567C-22.356 196.398 -23 194.844 -23 193.19ZM-7.16296 194.081L-2.81039 198.433C-0.396515 200.846 -0.396545 204.773 -2.81039 207.187C-3.97969 208.356 -5.53441 209 -7.18808 209C-8.84175 209 -10.3965 208.356 -11.5658 207.187L-15.9183 202.835L-7.16296 194.081Z" fill="white"/>
<path d="M8 224.19C8 222.537 8.64397 220.982 9.81331 219.813C10.9827 218.644 12.5373 218 14.191 218C15.8447 218 17.3993 218.644 18.5687 219.813L22.9213 224.165L14.1659 232.919L9.81331 228.567C8.64397 227.398 8 225.844 8 224.19ZM23.837 225.081L28.1896 229.433C30.6035 231.846 30.6035 235.773 28.1896 238.187C27.0203 239.356 25.4656 240 23.8119 240C22.1582 240 20.6035 239.356 19.4342 238.187L15.0817 233.835L23.837 225.081Z" fill="white"/>
<path d="M37 253.19C37 251.537 37.644 249.982 38.8133 248.813C39.9827 247.644 41.5373 247 43.191 247C44.8447 247 46.3993 247.644 47.5687 248.813L51.9213 253.165L43.1659 261.919L38.8133 257.567C37.644 256.398 37 254.844 37 253.19ZM52.837 254.081L57.1896 258.433C59.6035 260.846 59.6035 264.773 57.1896 267.187C56.0203 268.356 54.4656 269 52.8119 269C51.1582 269 49.6035 268.356 48.4342 267.187L44.0817 262.835L52.837 254.081Z" fill="white"/>
<path d="M67 282.19C67 280.537 67.644 278.982 68.8133 277.813C69.9827 276.644 71.5373 276 73.191 276C74.8447 276 76.3993 276.644 77.5687 277.813L81.9213 282.165L73.1659 290.919L68.8133 286.567C67.644 285.398 67 283.844 67 282.19ZM82.837 283.081L87.1896 287.433C89.6035 289.846 89.6035 293.773 87.1896 296.187C86.0203 297.356 84.4656 298 82.8119 298C81.1582 298 79.6035 297.356 78.4342 296.187L74.0817 291.835L82.837 283.081Z" fill="white"/>
<path d="M98 313.19C98 311.537 98.644 309.982 99.8133 308.813C100.983 307.644 102.537 307 104.191 307C105.845 307 107.399 307.644 108.569 308.813L112.921 313.165L104.166 321.919L99.8133 317.567C98.644 316.398 98 314.844 98 313.19ZM113.837 314.081L118.19 318.433C120.603 320.846 120.603 324.773 118.19 327.187C117.02 328.356 115.466 329 113.812 329C112.158 329 110.604 328.356 109.434 327.187L105.082 322.835L113.837 314.081Z" fill="white"/>
<path d="M127 343.19C127 341.537 127.644 339.982 128.813 338.813C129.983 337.644 131.537 337 133.191 337C134.845 337 136.399 337.644 137.569 338.813L141.921 343.165L133.166 351.919L128.813 347.567C127.644 346.398 127 344.844 127 343.19ZM142.837 344.081L147.19 348.433C149.603 350.846 149.603 354.773 147.19 357.187C146.02 358.356 144.466 359 142.812 359C141.158 359 139.604 358.356 138.434 357.187L134.082 352.835L142.837 344.081Z" fill="white"/>
<path d="M156 372.19C156 370.537 156.644 368.982 157.813 367.813C158.983 366.644 160.537 366 162.191 366C163.845 366 165.399 366.644 166.569 367.813L170.921 372.165L162.166 380.919L157.813 376.567C156.644 375.398 156 373.844 156 372.19ZM171.837 373.081L176.19 377.433C178.603 379.846 178.603 383.773 176.19 386.187C175.02 387.356 173.466 388 171.812 388C170.158 388 168.604 387.356 167.434 386.187L163.082 381.835L171.837 373.081Z" fill="white"/>
<path d="M187 403.19C187 401.537 187.644 399.982 188.813 398.813C189.983 397.644 191.537 397 193.191 397C194.845 397 196.399 397.644 197.569 398.813L201.921 403.165L193.166 411.919L188.813 407.567C187.644 406.398 187 404.844 187 403.19ZM202.837 404.081L207.19 408.433C209.603 410.846 209.603 414.773 207.19 417.187C206.02 418.356 204.466 419 202.812 419C201.158 419 199.604 418.356 198.434 417.187L194.082 412.835L202.837 404.081Z" fill="white"/>
<path d="M217 432.19C217 430.537 217.644 428.982 218.813 427.813C219.983 426.644 221.537 426 223.191 426C224.845 426 226.399 426.644 227.569 427.813L231.921 432.165L223.166 440.919L218.813 436.567C217.644 435.398 217 433.844 217 432.19ZM232.837 433.081L237.19 437.433C239.603 439.846 239.603 443.773 237.19 446.187C236.02 447.356 234.466 448 232.812 448C231.158 448 229.604 447.356 228.434 446.187L224.082 441.835L232.837 433.081Z" fill="white"/>
<path d="M-81 196.19C-81 194.537 -80.356 192.982 -79.1867 191.813C-78.0173 190.644 -76.4627 190 -74.809 190C-73.1553 190 -71.6007 190.644 -70.4313 191.813L-66.0787 196.165L-74.8341 204.919L-79.1867 200.567C-80.356 199.398 -81 197.844 -81 196.19ZM-65.163 197.081L-60.8104 201.433C-58.3965 203.846 -58.3966 207.773 -60.8104 210.187C-61.9797 211.356 -63.5344 212 -65.1881 212C-66.8418 212 -68.3965 211.356 -69.5658 210.187L-73.9183 205.835L-65.163 197.081Z" fill="white"/>
<path d="M-51 225.19C-51 223.537 -50.356 221.982 -49.1867 220.813C-48.0173 219.644 -46.4627 219 -44.809 219C-43.1553 219 -41.6007 219.644 -40.4313 220.813L-36.0787 225.165L-44.8341 233.919L-49.1867 229.567C-50.356 228.398 -51 226.844 -51 225.19ZM-35.163 226.081L-30.8104 230.433C-28.3965 232.846 -28.3966 236.773 -30.8104 239.187C-31.9797 240.356 -33.5344 241 -35.1881 241C-36.8417 241 -38.3965 240.356 -39.5658 239.187L-43.9183 234.835L-35.163 226.081Z" fill="white"/>
<path d="M-20 256.19C-20 254.537 -19.356 252.982 -18.1867 251.813C-17.0173 250.644 -15.4627 250 -13.809 250C-12.1553 250 -10.6007 250.644 -9.43132 251.813L-5.07872 256.165L-13.8341 264.919L-18.1867 260.567C-19.356 259.398 -20 257.844 -20 256.19ZM-4.16296 257.081L0.189606 261.433C2.60349 263.846 2.60345 267.773 0.189606 270.187C-0.979691 271.356 -2.53441 272 -4.18808 272C-5.84175 272 -7.39647 271.356 -8.56577 270.187L-12.9183 265.835L-4.16296 257.081Z" fill="white"/>
<path d="M9 285.19C9 283.537 9.64397 281.982 10.8133 280.813C11.9827 279.644 13.5373 279 15.191 279C16.8447 279 18.3993 279.644 19.5687 280.813L23.9213 285.165L15.1659 293.919L10.8133 289.567C9.64397 288.398 9 286.844 9 285.19ZM24.837 286.081L29.1896 290.433C31.6035 292.846 31.6035 296.773 29.1896 299.187C28.0203 300.356 26.4656 301 24.8119 301C23.1582 301 21.6035 300.356 20.4342 299.187L16.0817 294.835L24.837 286.081Z" fill="white"/>
<path d="M39 314.19C39 312.537 39.644 310.982 40.8133 309.813C41.9827 308.644 43.5373 308 45.191 308C46.8447 308 48.3993 308.644 49.5687 309.813L53.9213 314.165L45.1659 322.919L40.8133 318.567C39.644 317.398 39 315.844 39 314.19ZM54.837 315.081L59.1896 319.433C61.6035 321.846 61.6035 325.773 59.1896 328.187C58.0203 329.356 56.4656 330 54.8119 330C53.1582 330 51.6035 329.356 50.4342 328.187L46.0817 323.835L54.837 315.081Z" fill="white"/>
<path d="M70 345.19C70 343.537 70.644 341.982 71.8133 340.813C72.9827 339.644 74.5373 339 76.191 339C77.8447 339 79.3993 339.644 80.5687 340.813L84.9213 345.165L76.1659 353.919L71.8133 349.567C70.644 348.398 70 346.844 70 345.19ZM85.837 346.081L90.1896 350.433C92.6035 352.846 92.6035 356.773 90.1896 359.187C89.0203 360.356 87.4656 361 85.8119 361C84.1582 361 82.6035 360.356 81.4342 359.187L77.0817 354.835L85.837 346.081Z" fill="white"/>
<path d="M99 375.19C99 373.537 99.644 371.982 100.813 370.813C101.983 369.644 103.537 369 105.191 369C106.845 369 108.399 369.644 109.569 370.813L113.921 375.165L105.166 383.919L100.813 379.567C99.644 378.398 99 376.844 99 375.19ZM114.837 376.081L119.19 380.433C121.603 382.846 121.603 386.773 119.19 389.187C118.02 390.356 116.466 391 114.812 391C113.158 391 111.604 390.356 110.434 389.187L106.082 384.835L114.837 376.081Z" fill="white"/>
<path d="M128 404.19C128 402.537 128.644 400.982 129.813 399.813C130.983 398.644 132.537 398 134.191 398C135.845 398 137.399 398.644 138.569 399.813L142.921 404.165L134.166 412.919L129.813 408.567C128.644 407.398 128 405.844 128 404.19ZM143.837 405.081L148.19 409.433C150.603 411.846 150.603 415.773 148.19 418.187C147.02 419.356 145.466 420 143.812 420C142.158 420 140.604 419.356 139.434 418.187L135.082 413.835L143.837 405.081Z" fill="white"/>
<path d="M159 435.19C159 433.537 159.644 431.982 160.813 430.813C161.983 429.644 163.537 429 165.191 429C166.845 429 168.399 429.644 169.569 430.813L173.921 435.165L165.166 443.919L160.813 439.567C159.644 438.398 159 436.844 159 435.19ZM174.837 436.081L179.19 440.433C181.603 442.846 181.603 446.773 179.19 449.187C178.02 450.356 176.466 451 174.812 451C173.158 451 171.604 450.356 170.434 449.187L166.082 444.835L174.837 436.081Z" fill="white"/>
<path d="M189 464.19C189 462.537 189.644 460.982 190.813 459.813C191.983 458.644 193.537 458 195.191 458C196.845 458 198.399 458.644 199.569 459.813L203.921 464.165L195.166 472.919L190.813 468.567C189.644 467.398 189 465.844 189 464.19ZM204.837 465.081L209.19 469.433C211.603 471.846 211.603 475.773 209.19 478.187C208.02 479.356 206.466 480 204.812 480C203.158 480 201.604 479.356 200.434 478.187L196.082 473.835L204.837 465.081Z" fill="white"/>
<path d="M-116 223.19C-116 221.537 -115.356 219.982 -114.187 218.813C-113.017 217.644 -111.463 217 -109.809 217C-108.155 217 -106.601 217.644 -105.431 218.813L-101.079 223.165L-109.834 231.919L-114.187 227.567C-115.356 226.398 -116 224.844 -116 223.19ZM-100.163 224.081L-95.8104 228.433C-93.3965 230.846 -93.3966 234.773 -95.8104 237.187C-96.9797 238.356 -98.5344 239 -100.188 239C-101.842 239 -103.396 238.356 -104.566 237.187L-108.918 232.835L-100.163 224.081Z" fill="white"/>
<path d="M-86 252.19C-86 250.537 -85.356 248.982 -84.1867 247.813C-83.0173 246.644 -81.4627 246 -79.809 246C-78.1553 246 -76.6007 246.644 -75.4313 247.813L-71.0787 252.165L-79.8341 260.919L-84.1867 256.567C-85.356 255.398 -86 253.844 -86 252.19ZM-70.163 253.081L-65.8104 257.433C-63.3965 259.846 -63.3966 263.773 -65.8104 266.187C-66.9797 267.356 -68.5344 268 -70.1881 268C-71.8417 268 -73.3965 267.356 -74.5658 266.187L-78.9183 261.835L-70.163 253.081Z" fill="white"/>
<path d="M-55 283.19C-55 281.537 -54.356 279.982 -53.1867 278.813C-52.0173 277.644 -50.4627 277 -48.809 277C-47.1553 277 -45.6007 277.644 -44.4313 278.813L-40.0787 283.165L-48.8341 291.919L-53.1867 287.567C-54.356 286.398 -55 284.844 -55 283.19ZM-39.163 284.081L-34.8104 288.433C-32.3965 290.846 -32.3966 294.773 -34.8104 297.187C-35.9797 298.356 -37.5344 299 -39.1881 299C-40.8418 299 -42.3965 298.356 -43.5658 297.187L-47.9183 292.835L-39.163 284.081Z" fill="white"/>
<path d="M-26 312.19C-26 310.537 -25.356 308.982 -24.1867 307.813C-23.0173 306.644 -21.4627 306 -19.809 306C-18.1553 306 -16.6007 306.644 -15.4313 307.813L-11.0787 312.165L-19.8341 320.919L-24.1867 316.567C-25.356 315.398 -26 313.844 -26 312.19ZM-10.163 313.081L-5.81039 317.433C-3.39651 319.846 -3.39655 323.773 -5.81039 326.187C-6.97969 327.356 -8.53441 328 -10.1881 328C-11.8418 328 -13.3965 327.356 -14.5658 326.187L-18.9183 321.835L-10.163 313.081Z" fill="white"/>
<path d="M4 341.19C4 339.537 4.64397 337.982 5.81331 336.813C6.98265 335.644 8.53732 335 10.191 335C11.8447 335 13.3993 335.644 14.5687 336.813L18.9213 341.165L10.1659 349.919L5.81331 345.567C4.64397 344.398 4 342.844 4 341.19ZM19.837 342.081L24.1896 346.433C26.6035 348.846 26.6035 352.773 24.1896 355.187C23.0203 356.356 21.4656 357 19.8119 357C18.1582 357 16.6035 356.356 15.4342 355.187L11.0817 350.835L19.837 342.081Z" fill="white"/>
<path d="M35 372.19C35 370.537 35.644 368.982 36.8133 367.813C37.9827 366.644 39.5373 366 41.191 366C42.8447 366 44.3993 366.644 45.5687 367.813L49.9213 372.165L41.1659 380.919L36.8133 376.567C35.644 375.398 35 373.844 35 372.19ZM50.837 373.081L55.1896 377.433C57.6035 379.846 57.6035 383.773 55.1896 386.187C54.0203 387.356 52.4656 388 50.8119 388C49.1582 388 47.6035 387.356 46.4342 386.187L42.0817 381.835L50.837 373.081Z" fill="white"/>
<path d="M64 402.19C64 400.537 64.644 398.982 65.8133 397.813C66.9827 396.644 68.5373 396 70.191 396C71.8447 396 73.3993 396.644 74.5687 397.813L78.9213 402.165L70.1659 410.919L65.8133 406.567C64.644 405.398 64 403.844 64 402.19ZM79.837 403.081L84.1896 407.433C86.6035 409.846 86.6035 413.773 84.1896 416.187C83.0203 417.356 81.4656 418 79.8119 418C78.1582 418 76.6035 417.356 75.4342 416.187L71.0817 411.835L79.837 403.081Z" fill="white"/>
<path d="M93 431.19C93 429.537 93.644 427.982 94.8133 426.813C95.9827 425.644 97.5373 425 99.191 425C100.845 425 102.399 425.644 103.569 426.813L107.921 431.165L99.1659 439.919L94.8133 435.567C93.644 434.398 93 432.844 93 431.19ZM108.837 432.081L113.19 436.433C115.603 438.846 115.603 442.773 113.19 445.187C112.02 446.356 110.466 447 108.812 447C107.158 447 105.604 446.356 104.434 445.187L100.082 440.835L108.837 432.081Z" fill="white"/>
<path d="M124 462.19C124 460.537 124.644 458.982 125.813 457.813C126.983 456.644 128.537 456 130.191 456C131.845 456 133.399 456.644 134.569 457.813L138.921 462.165L130.166 470.919L125.813 466.567C124.644 465.398 124 463.844 124 462.19ZM139.837 463.081L144.19 467.433C146.603 469.846 146.603 473.773 144.19 476.187C143.02 477.356 141.466 478 139.812 478C138.158 478 136.604 477.356 135.434 476.187L131.082 471.835L139.837 463.081Z" fill="white"/>
<path d="M154 491.19C154 489.537 154.644 487.982 155.813 486.813C156.983 485.644 158.537 485 160.191 485C161.845 485 163.399 485.644 164.569 486.813L168.921 491.165L160.166 499.919L155.813 495.567C154.644 494.398 154 492.844 154 491.19ZM169.837 492.081L174.19 496.433C176.603 498.846 176.603 502.773 174.19 505.187C173.02 506.356 171.466 507 169.812 507C168.158 507 166.604 506.356 165.434 505.187L161.082 500.835L169.837 492.081Z" fill="white"/>
<path d="M-146 253.19C-146 251.537 -145.356 249.982 -144.187 248.813C-143.017 247.644 -141.463 247 -139.809 247C-138.155 247 -136.601 247.644 -135.431 248.813L-131.079 253.165L-139.834 261.919L-144.187 257.567C-145.356 256.398 -146 254.844 -146 253.19ZM-130.163 254.081L-125.81 258.433C-123.397 260.846 -123.397 264.773 -125.81 267.187C-126.98 268.356 -128.534 269 -130.188 269C-131.842 269 -133.396 268.356 -134.566 267.187L-138.918 262.835L-130.163 254.081Z" fill="white"/>
<path d="M-116 282.19C-116 280.537 -115.356 278.982 -114.187 277.813C-113.017 276.644 -111.463 276 -109.809 276C-108.155 276 -106.601 276.644 -105.431 277.813L-101.079 282.165L-109.834 290.919L-114.187 286.567C-115.356 285.398 -116 283.844 -116 282.19ZM-100.163 283.081L-95.8104 287.433C-93.3965 289.846 -93.3966 293.773 -95.8104 296.187C-96.9797 297.356 -98.5344 298 -100.188 298C-101.842 298 -103.396 297.356 -104.566 296.187L-108.918 291.835L-100.163 283.081Z" fill="white"/>
<path d="M-85 313.19C-85 311.537 -84.356 309.982 -83.1867 308.813C-82.0173 307.644 -80.4627 307 -78.809 307C-77.1553 307 -75.6007 307.644 -74.4313 308.813L-70.0787 313.165L-78.8341 321.919L-83.1867 317.567C-84.356 316.398 -85 314.844 -85 313.19ZM-69.163 314.081L-64.8104 318.433C-62.3965 320.846 -62.3966 324.773 -64.8104 327.187C-65.9797 328.356 -67.5344 329 -69.1881 329C-70.8418 329 -72.3965 328.356 -73.5658 327.187L-77.9183 322.835L-69.163 314.081Z" fill="white"/>
<path d="M-56 342.19C-56 340.537 -55.356 338.982 -54.1867 337.813C-53.0173 336.644 -51.4627 336 -49.809 336C-48.1553 336 -46.6007 336.644 -45.4313 337.813L-41.0787 342.165L-49.8341 350.919L-54.1867 346.567C-55.356 345.398 -56 343.844 -56 342.19ZM-40.163 343.081L-35.8104 347.433C-33.3965 349.846 -33.3966 353.773 -35.8104 356.187C-36.9797 357.356 -38.5344 358 -40.1881 358C-41.8418 358 -43.3965 357.356 -44.5658 356.187L-48.9183 351.835L-40.163 343.081Z" fill="white"/>
<path d="M-26 371.19C-26 369.537 -25.356 367.982 -24.1867 366.813C-23.0173 365.644 -21.4627 365 -19.809 365C-18.1553 365 -16.6007 365.644 -15.4313 366.813L-11.0787 371.165L-19.8341 379.919L-24.1867 375.567C-25.356 374.398 -26 372.844 -26 371.19ZM-10.163 372.081L-5.81039 376.433C-3.39651 378.846 -3.39655 382.773 -5.81039 385.187C-6.97969 386.356 -8.53441 387 -10.1881 387C-11.8418 387 -13.3965 386.356 -14.5658 385.187L-18.9183 380.835L-10.163 372.081Z" fill="white"/>
<path d="M5 402.19C5 400.537 5.64397 398.982 6.81331 397.813C7.98265 396.644 9.53732 396 11.191 396C12.8447 396 14.3993 396.644 15.5687 397.813L19.9213 402.165L11.1659 410.919L6.81331 406.567C5.64397 405.398 5 403.844 5 402.19ZM20.837 403.081L25.1896 407.433C27.6035 409.846 27.6035 413.773 25.1896 416.187C24.0203 417.356 22.4656 418 20.8119 418C19.1582 418 17.6035 417.356 16.4342 416.187L12.0817 411.835L20.837 403.081Z" fill="white"/>
<path d="M34 432.19C34 430.537 34.644 428.982 35.8133 427.813C36.9827 426.644 38.5373 426 40.191 426C41.8447 426 43.3993 426.644 44.5687 427.813L48.9213 432.165L40.1659 440.919L35.8133 436.567C34.644 435.398 34 433.844 34 432.19ZM49.837 433.081L54.1896 437.433C56.6035 439.846 56.6035 443.773 54.1896 446.187C53.0203 447.356 51.4656 448 49.8119 448C48.1582 448 46.6035 447.356 45.4342 446.187L41.0817 441.835L49.837 433.081Z" fill="white"/>
<path d="M63 461.19C63 459.537 63.644 457.982 64.8133 456.813C65.9827 455.644 67.5373 455 69.191 455C70.8447 455 72.3993 455.644 73.5687 456.813L77.9213 461.165L69.1659 469.919L64.8133 465.567C63.644 464.398 63 462.844 63 461.19ZM78.837 462.081L83.1896 466.433C85.6035 468.846 85.6035 472.773 83.1896 475.187C82.0203 476.356 80.4656 477 78.8119 477C77.1582 477 75.6035 476.356 74.4342 475.187L70.0817 470.835L78.837 462.081Z" fill="white"/>
<path d="M94 492.19C94 490.537 94.644 488.982 95.8133 487.813C96.9827 486.644 98.5373 486 100.191 486C101.845 486 103.399 486.644 104.569 487.813L108.921 492.165L100.166 500.919L95.8133 496.567C94.644 495.398 94 493.844 94 492.19ZM109.837 493.081L114.19 497.433C116.603 499.846 116.603 503.773 114.19 506.187C113.02 507.356 111.466 508 109.812 508C108.158 508 106.604 507.356 105.434 506.187L101.082 501.835L109.837 493.081Z" fill="white"/>
<path d="M124 521.19C124 519.537 124.644 517.982 125.813 516.813C126.983 515.644 128.537 515 130.191 515C131.845 515 133.399 515.644 134.569 516.813L138.921 521.165L130.166 529.919L125.813 525.567C124.644 524.398 124 522.844 124 521.19ZM139.837 522.081L144.19 526.433C146.603 528.846 146.603 532.773 144.19 535.187C143.02 536.356 141.466 537 139.812 537C138.158 537 136.604 536.356 135.434 535.187L131.082 530.835L139.837 522.081Z" fill="white"/>
</g>
</g>
</svg>
