<svg width="300" height="420" viewBox="0 0 300 420" fill="none" xmlns="http://www.w3.org/2000/svg">
<mask id="mask0_560_642" style="mask-type:alpha" maskUnits="userSpaceOnUse" x="0" y="0" width="300" height="420">
<rect width="300" height="420" rx="8" fill="white"/>
</mask>
<g mask="url(#mask0_560_642)">
<rect width="300" height="420" rx="8" fill="#36C962"/>
<g opacity="0.1">
<path d="M27.5341 37.06C27.4277 36.9221 27.2857 36.8171 27.125 36.7573C26.9642 36.6975 26.7914 36.6854 26.6271 36.7225C22.1064 37.7277 18.7203 41.0386 17.6779 45.4737C19.4012 47.2043 20.727 49.3335 21.4988 51.7022L22.8688 54.188C30.216 48.291 25.3395 43.283 27.6379 38.0321C27.7133 37.8798 27.7436 37.7072 27.7252 37.5349C27.7069 37.3626 27.6405 37.1978 27.5341 37.06ZM-1.17664 45.5414C-1.3099 45.644 -1.41033 45.7843 -1.46603 45.9457C-1.52174 46.1071 -1.53037 46.2829 -1.49091 46.4521C-1.45145 46.6214 -1.36556 46.777 -1.24342 46.9006C-1.12127 47.0242 -0.967995 47.1106 -0.801743 47.1496C5.85088 49.0436 6.55548 57.7713 18.7592 54.0145L21.584 59.1402C22.2083 60.1769 23.6663 59.3723 23.1234 58.2918L19.8703 52.3889C17.1241 43.3651 6.00163 39.7407 -1.17664 45.5414Z" fill="white"/>
<path d="M58.4632 66.8095C58.3568 66.6717 58.2148 66.5667 58.054 66.5069C57.8933 66.4471 57.7205 66.435 57.5561 66.4721C53.0354 67.4773 49.6494 70.7882 48.6069 75.2233C50.3302 76.9539 51.656 79.0831 52.4278 81.4518L53.7978 83.9376C61.1451 78.0406 56.2685 73.0326 58.5669 67.7817C58.6423 67.6294 58.6727 67.4568 58.6543 67.2845C58.6359 67.1122 58.5696 66.9474 58.4632 66.8095ZM29.7524 75.291C29.6191 75.3936 29.5187 75.5339 29.463 75.6953C29.4073 75.8567 29.3987 76.0325 29.4381 76.2017C29.4776 76.371 29.5635 76.5266 29.6856 76.6502C29.8078 76.7738 29.961 76.8602 30.1273 76.8992C36.7799 78.7932 37.4845 87.5209 49.6882 83.7641L52.513 88.8898C53.1374 89.9265 54.5954 89.1219 54.0524 88.0414L50.7993 82.1385C48.0532 73.1147 36.9307 69.4903 29.7524 75.291Z" fill="white"/>
<path d="M87.4632 95.8095C87.3568 95.6717 87.2148 95.5667 87.054 95.5069C86.8932 95.4471 86.7205 95.435 86.5561 95.4721C82.0354 96.4773 78.6494 99.7882 77.6069 104.223C79.3302 105.954 80.656 108.083 81.4278 110.452L82.7978 112.938C90.1451 107.041 85.2685 102.033 87.5669 96.7817C87.6423 96.6294 87.6727 96.4568 87.6543 96.2845C87.6359 96.1122 87.5696 95.9474 87.4632 95.8095ZM58.7524 104.291C58.6191 104.394 58.5187 104.534 58.463 104.695C58.4073 104.857 58.3987 105.032 58.4381 105.202C58.4776 105.371 58.5635 105.527 58.6856 105.65C58.8078 105.774 58.9611 105.86 59.1273 105.899C65.7799 107.793 66.4845 116.521 78.6882 112.764L81.513 117.89C82.1374 118.926 83.5954 118.122 83.0524 117.041L79.7993 111.139C77.0532 102.115 65.9307 98.4903 58.7524 104.291Z" fill="white"/>
<path d="M119.463 127.81C119.357 127.672 119.215 127.567 119.054 127.507C118.893 127.447 118.72 127.435 118.556 127.472C114.035 128.477 110.649 131.788 109.607 136.223C111.33 137.954 112.656 140.083 113.428 142.452L114.798 144.938C122.145 139.041 117.269 134.033 119.567 128.782C119.642 128.629 119.673 128.457 119.654 128.285C119.636 128.112 119.57 127.947 119.463 127.81ZM90.7524 136.291C90.6191 136.394 90.5187 136.534 90.463 136.695C90.4073 136.857 90.3987 137.032 90.4381 137.202C90.4776 137.371 90.5635 137.527 90.6856 137.65C90.8078 137.774 90.961 137.86 91.1273 137.899C97.7799 139.793 98.4845 148.521 110.688 144.764L113.513 149.89C114.137 150.926 115.595 150.122 115.052 149.041L111.799 143.139C109.053 134.115 97.9307 130.49 90.7524 136.291Z" fill="white"/>
<path d="M148.463 157.81C148.357 157.672 148.215 157.567 148.054 157.507C147.893 157.447 147.72 157.435 147.556 157.472C143.035 158.477 139.649 161.788 138.607 166.223C140.33 167.954 141.656 170.083 142.428 172.452L143.798 174.938C151.145 169.041 146.269 164.033 148.567 158.782C148.642 158.629 148.673 158.457 148.654 158.284C148.636 158.112 148.57 157.947 148.463 157.81ZM119.752 166.291C119.619 166.394 119.519 166.534 119.463 166.695C119.407 166.857 119.399 167.032 119.438 167.202C119.478 167.371 119.563 167.527 119.686 167.65C119.808 167.774 119.961 167.86 120.127 167.899C126.78 169.793 127.485 178.521 139.688 174.764L142.513 179.89C143.137 180.926 144.595 180.122 144.052 179.041L140.799 173.139C138.053 164.115 126.931 160.49 119.752 166.291Z" fill="white"/>
<path d="M179.463 186.81C179.357 186.672 179.215 186.567 179.054 186.507C178.893 186.447 178.72 186.435 178.556 186.472C174.035 187.477 170.649 190.788 169.607 195.223C171.33 196.954 172.656 199.083 173.428 201.452L174.798 203.938C182.145 198.041 177.269 193.033 179.567 187.782C179.642 187.629 179.673 187.457 179.654 187.284C179.636 187.112 179.57 186.947 179.463 186.81ZM150.752 195.291C150.619 195.394 150.519 195.534 150.463 195.695C150.407 195.857 150.399 196.032 150.438 196.202C150.478 196.371 150.563 196.527 150.686 196.65C150.808 196.774 150.961 196.86 151.127 196.899C157.78 198.793 158.485 207.521 170.688 203.764L173.513 208.89C174.137 209.926 175.595 209.122 175.052 208.041L171.799 202.139C169.053 193.115 157.931 189.49 150.752 195.291Z" fill="white"/>
<path d="M206.463 215.81C206.357 215.672 206.215 215.567 206.054 215.507C205.893 215.447 205.72 215.435 205.556 215.472C201.035 216.477 197.649 219.788 196.607 224.223C198.33 225.954 199.656 228.083 200.428 230.452L201.798 232.938C209.145 227.041 204.269 222.033 206.567 216.782C206.642 216.629 206.673 216.457 206.654 216.284C206.636 216.112 206.57 215.947 206.463 215.81ZM177.752 224.291C177.619 224.394 177.519 224.534 177.463 224.695C177.407 224.857 177.399 225.032 177.438 225.202C177.478 225.371 177.563 225.527 177.686 225.65C177.808 225.774 177.961 225.86 178.127 225.899C184.78 227.793 185.484 236.521 197.688 232.764L200.513 237.89C201.137 238.926 202.595 238.122 202.052 237.041L198.799 231.139C196.053 222.115 184.931 218.49 177.752 224.291Z" fill="white"/>
<path d="M237.463 245.81C237.357 245.672 237.215 245.567 237.054 245.507C236.893 245.447 236.72 245.435 236.556 245.472C232.035 246.477 228.649 249.788 227.607 254.223C229.33 255.954 230.656 258.083 231.428 260.452L232.798 262.938C240.145 257.041 235.269 252.033 237.567 246.782C237.642 246.629 237.673 246.457 237.654 246.284C237.636 246.112 237.57 245.947 237.463 245.81ZM208.752 254.291C208.619 254.394 208.519 254.534 208.463 254.695C208.407 254.857 208.399 255.032 208.438 255.202C208.478 255.371 208.563 255.527 208.686 255.65C208.808 255.774 208.961 255.86 209.127 255.899C215.78 257.793 216.484 266.521 228.688 262.764L231.513 267.89C232.137 268.926 233.595 268.122 233.052 267.041L229.799 261.139C227.053 252.115 215.931 248.49 208.752 254.291Z" fill="white"/>
<path d="M267.463 276.81C267.357 276.672 267.215 276.567 267.054 276.507C266.893 276.447 266.72 276.435 266.556 276.472C262.035 277.477 258.649 280.788 257.607 285.223C259.33 286.954 260.656 289.083 261.428 291.452L262.798 293.938C270.145 288.041 265.269 283.033 267.567 277.782C267.642 277.629 267.673 277.457 267.654 277.284C267.636 277.112 267.57 276.947 267.463 276.81ZM238.752 285.291C238.619 285.394 238.519 285.534 238.463 285.695C238.407 285.857 238.399 286.032 238.438 286.202C238.478 286.371 238.563 286.527 238.686 286.65C238.808 286.774 238.961 286.86 239.127 286.899C245.78 288.793 246.484 297.521 258.688 293.764L261.513 298.89C262.137 299.926 263.595 299.122 263.052 298.041L259.799 292.139C257.053 283.115 245.931 279.49 238.752 285.291Z" fill="white"/>
<path d="M295.463 304.81C295.357 304.672 295.215 304.567 295.054 304.507C294.893 304.447 294.72 304.435 294.556 304.472C290.035 305.477 286.649 308.788 285.607 313.223C287.33 314.954 288.656 317.083 289.428 319.452L290.798 321.938C298.145 316.041 293.269 311.033 295.567 305.782C295.642 305.629 295.673 305.457 295.654 305.284C295.636 305.112 295.57 304.947 295.463 304.81ZM266.752 313.291C266.619 313.394 266.519 313.534 266.463 313.695C266.407 313.857 266.399 314.032 266.438 314.202C266.478 314.371 266.563 314.527 266.686 314.65C266.808 314.774 266.961 314.86 267.127 314.899C273.78 316.793 274.484 325.521 286.688 321.764L289.513 326.89C290.137 327.926 291.595 327.122 291.052 326.041L287.799 320.138C285.053 311.115 273.931 307.49 266.752 313.291Z" fill="white"/>
<path d="M29.0494 97.3585C28.943 97.2207 28.801 97.1157 28.6402 97.0559C28.4795 96.9961 28.3067 96.984 28.1423 97.0211C23.6217 98.0262 20.2356 101.337 19.1932 105.772C20.9165 107.503 22.2422 109.632 23.0141 112.001L24.384 114.487C31.7313 108.59 26.8548 103.582 29.1531 98.3306C29.2286 98.1783 29.2589 98.0058 29.2405 97.8335C29.2221 97.6611 29.1558 97.4963 29.0494 97.3585ZM0.338615 105.84C0.20536 105.943 0.104927 106.083 0.0492249 106.244C-0.00647736 106.406 -0.0151062 106.581 0.024353 106.751C0.0638123 106.92 0.149696 107.076 0.271843 107.199C0.39399 107.323 0.547264 107.409 0.713516 107.448C7.36613 109.342 8.07074 118.07 20.2744 114.313L23.0992 119.439C23.7236 120.475 25.1816 119.671 24.6386 118.59L21.3855 112.687C18.6394 103.664 7.51689 100.039 0.338615 105.84Z" fill="white"/>
<path d="M59.9784 127.108C59.872 126.97 59.7301 126.865 59.5693 126.805C59.4085 126.746 59.2357 126.734 59.0714 126.771C54.5507 127.776 51.1646 131.087 50.1222 135.522C51.8455 137.252 53.1713 139.382 53.9431 141.75L55.313 144.236C62.6603 138.339 57.7838 133.331 60.0822 128.08C60.1576 127.928 60.1879 127.755 60.1695 127.583C60.1512 127.411 60.0848 127.246 59.9784 127.108ZM31.2676 135.59C31.1344 135.692 31.034 135.832 30.9783 135.994C30.9226 136.155 30.9139 136.331 30.9534 136.5C30.9928 136.669 31.0787 136.825 31.2009 136.949C31.323 137.072 31.4763 137.159 31.6426 137.198C38.2952 139.092 38.9998 147.819 51.2035 144.063L54.0282 149.188C54.6526 150.225 56.1106 149.42 55.5677 148.34L52.3146 142.437C49.5685 133.413 38.4459 129.789 31.2676 135.59Z" fill="white"/>
<path d="M88.9784 156.108C88.872 155.97 88.73 155.865 88.5693 155.805C88.4085 155.746 88.2357 155.734 88.0714 155.771C83.5507 156.776 80.1646 160.087 79.1222 164.522C80.8455 166.252 82.1713 168.382 82.9431 170.75L84.313 173.236C91.6603 167.339 86.7838 162.331 89.0822 157.08C89.1576 156.928 89.1879 156.755 89.1695 156.583C89.1512 156.411 89.0848 156.246 88.9784 156.108ZM60.2677 164.59C60.1344 164.692 60.034 164.832 59.9783 164.994C59.9226 165.155 59.9139 165.331 59.9534 165.5C59.9928 165.669 60.0787 165.825 60.2009 165.949C60.323 166.072 60.4763 166.159 60.6426 166.198C67.2952 168.092 67.9998 176.819 80.2035 173.063L83.0282 178.188C83.6526 179.225 85.1106 178.42 84.5677 177.34L81.3146 171.437C78.5685 162.413 67.4459 158.789 60.2677 164.59Z" fill="white"/>
<path d="M120.978 188.108C120.872 187.97 120.73 187.865 120.569 187.805C120.409 187.746 120.236 187.734 120.071 187.771C115.551 188.776 112.165 192.087 111.122 196.522C112.845 198.252 114.171 200.382 114.943 202.75L116.313 205.236C123.66 199.339 118.784 194.331 121.082 189.08C121.158 188.928 121.188 188.755 121.17 188.583C121.151 188.411 121.085 188.246 120.978 188.108ZM92.2677 196.59C92.1344 196.692 92.034 196.832 91.9783 196.994C91.9226 197.155 91.9139 197.331 91.9534 197.5C91.9928 197.669 92.0787 197.825 92.2009 197.949C92.323 198.072 92.4763 198.159 92.6425 198.198C99.2952 200.092 99.9998 208.819 112.203 205.063L115.028 210.188C115.653 211.225 117.111 210.42 116.568 209.34L113.315 203.437C110.568 194.413 99.4459 190.789 92.2677 196.59Z" fill="white"/>
<path d="M149.978 218.108C149.872 217.97 149.73 217.865 149.569 217.805C149.409 217.746 149.236 217.734 149.071 217.771C144.551 218.776 141.165 222.087 140.122 226.522C141.845 228.252 143.171 230.382 143.943 232.75L145.313 235.236C152.66 229.339 147.784 224.331 150.082 219.08C150.158 218.928 150.188 218.755 150.17 218.583C150.151 218.411 150.085 218.246 149.978 218.108ZM121.268 226.59C121.134 226.692 121.034 226.832 120.978 226.994C120.923 227.155 120.914 227.331 120.953 227.5C120.993 227.669 121.079 227.825 121.201 227.949C121.323 228.072 121.476 228.159 121.643 228.198C128.295 230.092 129 238.819 141.203 235.063L144.028 240.188C144.653 241.225 146.111 240.42 145.568 239.34L142.315 233.437C139.568 224.413 128.446 220.789 121.268 226.59Z" fill="white"/>
<path d="M180.978 247.108C180.872 246.97 180.73 246.865 180.569 246.805C180.409 246.746 180.236 246.734 180.071 246.771C175.551 247.776 172.165 251.087 171.122 255.522C172.845 257.252 174.171 259.382 174.943 261.75L176.313 264.236C183.66 258.339 178.784 253.331 181.082 248.08C181.158 247.928 181.188 247.755 181.17 247.583C181.151 247.411 181.085 247.246 180.978 247.108ZM152.268 255.59C152.134 255.692 152.034 255.832 151.978 255.994C151.923 256.155 151.914 256.331 151.953 256.5C151.993 256.669 152.079 256.825 152.201 256.949C152.323 257.072 152.476 257.159 152.643 257.198C159.295 259.092 160 267.819 172.203 264.063L175.028 269.188C175.653 270.225 177.111 269.42 176.568 268.34L173.315 262.437C170.568 253.413 159.446 249.789 152.268 255.59Z" fill="white"/>
<path d="M207.978 276.108C207.872 275.97 207.73 275.865 207.569 275.805C207.409 275.746 207.236 275.734 207.071 275.771C202.551 276.776 199.165 280.087 198.122 284.522C199.845 286.252 201.171 288.382 201.943 290.75L203.313 293.236C210.66 287.339 205.784 282.331 208.082 277.08C208.158 276.928 208.188 276.755 208.17 276.583C208.151 276.411 208.085 276.246 207.978 276.108ZM179.268 284.59C179.134 284.692 179.034 284.832 178.978 284.994C178.923 285.155 178.914 285.331 178.953 285.5C178.993 285.669 179.079 285.825 179.201 285.949C179.323 286.072 179.476 286.159 179.643 286.198C186.295 288.092 187 296.819 199.203 293.063L202.028 298.188C202.653 299.225 204.111 298.42 203.568 297.34L200.315 291.437C197.568 282.413 186.446 278.789 179.268 284.59Z" fill="white"/>
<path d="M238.978 306.108C238.872 305.97 238.73 305.865 238.569 305.805C238.409 305.746 238.236 305.734 238.071 305.771C233.551 306.776 230.165 310.087 229.122 314.522C230.845 316.252 232.171 318.382 232.943 320.75L234.313 323.236C241.66 317.339 236.784 312.331 239.082 307.08C239.158 306.928 239.188 306.755 239.17 306.583C239.151 306.411 239.085 306.246 238.978 306.108ZM210.268 314.59C210.134 314.692 210.034 314.832 209.978 314.994C209.923 315.155 209.914 315.331 209.953 315.5C209.993 315.669 210.079 315.825 210.201 315.949C210.323 316.072 210.476 316.159 210.643 316.198C217.295 318.092 218 326.819 230.203 323.063L233.028 328.188C233.653 329.225 235.111 328.42 234.568 327.34L231.315 321.437C228.568 312.413 217.446 308.789 210.268 314.59Z" fill="white"/>
<path d="M268.978 337.108C268.872 336.97 268.73 336.865 268.569 336.805C268.409 336.746 268.236 336.734 268.071 336.771C263.551 337.776 260.165 341.087 259.122 345.522C260.845 347.252 262.171 349.382 262.943 351.75L264.313 354.236C271.66 348.339 266.784 343.331 269.082 338.08C269.158 337.928 269.188 337.755 269.17 337.583C269.151 337.411 269.085 337.246 268.978 337.108ZM240.268 345.59C240.134 345.692 240.034 345.832 239.978 345.994C239.923 346.155 239.914 346.331 239.953 346.5C239.993 346.669 240.079 346.825 240.201 346.949C240.323 347.072 240.476 347.159 240.643 347.198C247.295 349.092 248 357.819 260.203 354.063L263.028 359.188C263.653 360.225 265.111 359.42 264.568 358.34L261.315 352.437C258.568 343.413 247.446 339.789 240.268 345.59Z" fill="white"/>
<path d="M296.978 365.108C296.872 364.97 296.73 364.865 296.569 364.805C296.409 364.746 296.236 364.734 296.071 364.771C291.551 365.776 288.165 369.087 287.122 373.522C288.845 375.252 290.171 377.382 290.943 379.75L292.313 382.236C299.66 376.339 294.784 371.331 297.082 366.08C297.158 365.928 297.188 365.755 297.17 365.583C297.151 365.411 297.085 365.246 296.978 365.108ZM268.268 373.59C268.134 373.692 268.034 373.832 267.978 373.994C267.923 374.155 267.914 374.331 267.953 374.5C267.993 374.669 268.079 374.825 268.201 374.949C268.323 375.072 268.476 375.159 268.643 375.198C275.295 377.092 276 385.819 288.203 382.063L291.028 387.188C291.653 388.225 293.111 387.42 292.568 386.34L289.315 380.437C286.568 371.413 275.446 367.789 268.268 373.59Z" fill="white"/>
<path d="M30.0494 156.358C29.943 156.221 29.801 156.116 29.6402 156.056C29.4795 155.996 29.3067 155.984 29.1423 156.021C24.6217 157.026 21.2356 160.337 20.1932 164.772C21.9165 166.503 23.2422 168.632 24.0141 171.001L25.384 173.487C32.7313 167.59 27.8548 162.582 30.1531 157.331C30.2286 157.178 30.2589 157.006 30.2405 156.833C30.2221 156.661 30.1558 156.496 30.0494 156.358ZM1.33862 164.84C1.20536 164.943 1.10493 165.083 1.04922 165.244C0.993523 165.406 0.984894 165.581 1.02435 165.751C1.06381 165.92 1.1497 166.076 1.27184 166.199C1.39399 166.323 1.54726 166.409 1.71352 166.448C8.36613 168.342 9.07074 177.07 21.2744 173.313L24.0992 178.439C24.7236 179.475 26.1816 178.671 25.6386 177.59L22.3855 171.687C19.6394 162.664 8.51689 159.039 1.33862 164.84Z" fill="white"/>
<path d="M60.9784 186.108C60.872 185.97 60.7301 185.865 60.5693 185.805C60.4085 185.746 60.2357 185.734 60.0714 185.771C55.5507 186.776 52.1646 190.087 51.1222 194.522C52.8455 196.252 54.1713 198.382 54.9431 200.75L56.313 203.236C63.6603 197.339 58.7838 192.331 61.0822 187.08C61.1576 186.928 61.1879 186.755 61.1695 186.583C61.1512 186.411 61.0848 186.246 60.9784 186.108ZM32.2677 194.59C32.1344 194.692 32.034 194.832 31.9783 194.994C31.9226 195.155 31.9139 195.331 31.9534 195.5C31.9928 195.669 32.0787 195.825 32.2009 195.949C32.323 196.072 32.4763 196.159 32.6426 196.198C39.2952 198.092 39.9998 206.819 52.2035 203.063L55.0282 208.188C55.6526 209.225 57.1106 208.42 56.5677 207.34L53.3146 201.437C50.5685 192.413 39.4459 188.789 32.2677 194.59Z" fill="white"/>
<path d="M89.9784 215.108C89.872 214.97 89.73 214.865 89.5693 214.805C89.4085 214.746 89.2357 214.734 89.0714 214.771C84.5507 215.776 81.1646 219.087 80.1222 223.522C81.8455 225.252 83.1713 227.382 83.9431 229.75L85.313 232.236C92.6603 226.339 87.7838 221.331 90.0822 216.08C90.1576 215.928 90.1879 215.755 90.1695 215.583C90.1512 215.411 90.0848 215.246 89.9784 215.108ZM61.2677 223.59C61.1344 223.692 61.034 223.832 60.9783 223.994C60.9226 224.155 60.9139 224.331 60.9534 224.5C60.9928 224.669 61.0787 224.825 61.2009 224.949C61.323 225.072 61.4763 225.159 61.6426 225.198C68.2952 227.092 68.9998 235.819 81.2035 232.063L84.0282 237.188C84.6526 238.225 86.1106 237.42 85.5677 236.34L82.3146 230.437C79.5685 221.413 68.4459 217.789 61.2677 223.59Z" fill="white"/>
<path d="M121.978 247.108C121.872 246.97 121.73 246.865 121.569 246.805C121.409 246.746 121.236 246.734 121.071 246.771C116.551 247.776 113.165 251.087 112.122 255.522C113.845 257.252 115.171 259.382 115.943 261.75L117.313 264.236C124.66 258.339 119.784 253.331 122.082 248.08C122.158 247.928 122.188 247.755 122.17 247.583C122.151 247.411 122.085 247.246 121.978 247.108ZM93.2677 255.59C93.1344 255.692 93.034 255.832 92.9783 255.994C92.9226 256.155 92.9139 256.331 92.9534 256.5C92.9928 256.669 93.0787 256.825 93.2009 256.949C93.323 257.072 93.4763 257.159 93.6425 257.198C100.295 259.092 101 267.819 113.203 264.063L116.028 269.188C116.653 270.225 118.111 269.42 117.568 268.34L114.315 262.437C111.568 253.413 100.446 249.789 93.2677 255.59Z" fill="white"/>
<path d="M150.978 277.108C150.872 276.97 150.73 276.865 150.569 276.805C150.409 276.746 150.236 276.734 150.071 276.771C145.551 277.776 142.165 281.087 141.122 285.522C142.845 287.252 144.171 289.382 144.943 291.75L146.313 294.236C153.66 288.339 148.784 283.331 151.082 278.08C151.158 277.928 151.188 277.755 151.17 277.583C151.151 277.411 151.085 277.246 150.978 277.108ZM122.268 285.59C122.134 285.692 122.034 285.832 121.978 285.994C121.923 286.155 121.914 286.331 121.953 286.5C121.993 286.669 122.079 286.825 122.201 286.949C122.323 287.072 122.476 287.159 122.643 287.198C129.295 289.092 130 297.819 142.203 294.063L145.028 299.188C145.653 300.225 147.111 299.42 146.568 298.34L143.315 292.437C140.568 283.413 129.446 279.789 122.268 285.59Z" fill="white"/>
<path d="M181.978 306.108C181.872 305.97 181.73 305.865 181.569 305.805C181.409 305.746 181.236 305.734 181.071 305.771C176.551 306.776 173.165 310.087 172.122 314.522C173.845 316.252 175.171 318.382 175.943 320.75L177.313 323.236C184.66 317.339 179.784 312.331 182.082 307.08C182.158 306.928 182.188 306.755 182.17 306.583C182.151 306.411 182.085 306.246 181.978 306.108ZM153.268 314.59C153.134 314.692 153.034 314.832 152.978 314.994C152.923 315.155 152.914 315.331 152.953 315.5C152.993 315.669 153.079 315.825 153.201 315.949C153.323 316.072 153.476 316.159 153.643 316.198C160.295 318.092 161 326.819 173.203 323.063L176.028 328.188C176.653 329.225 178.111 328.42 177.568 327.34L174.315 321.437C171.568 312.413 160.446 308.789 153.268 314.59Z" fill="white"/>
<path d="M208.978 335.108C208.872 334.97 208.73 334.865 208.569 334.805C208.409 334.746 208.236 334.734 208.071 334.771C203.551 335.776 200.165 339.087 199.122 343.522C200.845 345.252 202.171 347.382 202.943 349.75L204.313 352.236C211.66 346.339 206.784 341.331 209.082 336.08C209.158 335.928 209.188 335.755 209.17 335.583C209.151 335.411 209.085 335.246 208.978 335.108ZM180.268 343.59C180.134 343.692 180.034 343.832 179.978 343.994C179.923 344.155 179.914 344.331 179.953 344.5C179.993 344.669 180.079 344.825 180.201 344.949C180.323 345.072 180.476 345.159 180.643 345.198C187.295 347.092 188 355.819 200.203 352.063L203.028 357.188C203.653 358.225 205.111 357.42 204.568 356.34L201.315 350.437C198.568 341.413 187.446 337.789 180.268 343.59Z" fill="white"/>
<path d="M239.978 365.108C239.872 364.97 239.73 364.865 239.569 364.805C239.409 364.746 239.236 364.734 239.071 364.771C234.551 365.776 231.165 369.087 230.122 373.522C231.845 375.252 233.171 377.382 233.943 379.75L235.313 382.236C242.66 376.339 237.784 371.331 240.082 366.08C240.158 365.928 240.188 365.755 240.17 365.583C240.151 365.411 240.085 365.246 239.978 365.108ZM211.268 373.59C211.134 373.692 211.034 373.832 210.978 373.994C210.923 374.155 210.914 374.331 210.953 374.5C210.993 374.669 211.079 374.825 211.201 374.949C211.323 375.072 211.476 375.159 211.643 375.198C218.295 377.092 219 385.819 231.203 382.063L234.028 387.188C234.653 388.225 236.111 387.42 235.568 386.34L232.315 380.437C229.568 371.413 218.446 367.789 211.268 373.59Z" fill="white"/>
<path d="M269.978 396.108C269.872 395.97 269.73 395.865 269.569 395.805C269.409 395.746 269.236 395.734 269.071 395.771C264.551 396.776 261.165 400.087 260.122 404.522C261.845 406.252 263.171 408.382 263.943 410.75L265.313 413.236C272.66 407.339 267.784 402.331 270.082 397.08C270.158 396.928 270.188 396.755 270.17 396.583C270.151 396.411 270.085 396.246 269.978 396.108ZM241.268 404.589C241.134 404.692 241.034 404.832 240.978 404.994C240.923 405.155 240.914 405.331 240.953 405.5C240.993 405.669 241.079 405.825 241.201 405.949C241.323 406.072 241.476 406.159 241.643 406.198C248.295 408.092 249 416.819 261.203 413.063L264.028 418.188C264.653 419.225 266.111 418.42 265.568 417.34L262.315 411.437C259.568 402.413 248.446 398.789 241.268 404.589Z" fill="white"/>
<path d="M297.978 424.108C297.872 423.97 297.73 423.865 297.569 423.805C297.409 423.746 297.236 423.734 297.071 423.771C292.551 424.776 289.165 428.087 288.122 432.522C289.845 434.252 291.171 436.382 291.943 438.75L293.313 441.236C300.66 435.339 295.784 430.331 298.082 425.08C298.158 424.928 298.188 424.755 298.17 424.583C298.151 424.411 298.085 424.246 297.978 424.108ZM269.268 432.589C269.134 432.692 269.034 432.832 268.978 432.994C268.923 433.155 268.914 433.331 268.953 433.5C268.993 433.669 269.079 433.825 269.201 433.949C269.323 434.072 269.476 434.159 269.643 434.198C276.295 436.092 277 444.819 289.203 441.063L292.028 446.188C292.653 447.225 294.111 446.42 293.568 445.34L290.315 439.437C287.568 430.413 276.446 426.789 269.268 432.589Z" fill="white"/>
<path d="M29.0494 216.358C28.943 216.221 28.801 216.116 28.6402 216.056C28.4795 215.996 28.3067 215.984 28.1423 216.021C23.6217 217.026 20.2356 220.337 19.1932 224.772C20.9165 226.503 22.2422 228.632 23.0141 231.001L24.384 233.487C31.7313 227.59 26.8548 222.582 29.1531 217.331C29.2286 217.178 29.2589 217.006 29.2405 216.833C29.2221 216.661 29.1558 216.496 29.0494 216.358ZM0.338615 224.84C0.20536 224.943 0.104927 225.083 0.0492249 225.244C-0.00647736 225.406 -0.0151062 225.581 0.024353 225.751C0.0638123 225.92 0.149696 226.076 0.271843 226.199C0.39399 226.323 0.547264 226.409 0.713516 226.448C7.36613 228.342 8.07074 237.07 20.2744 233.313L23.0992 238.439C23.7236 239.475 25.1816 238.671 24.6386 237.59L21.3855 231.687C18.6394 222.664 7.51689 219.039 0.338615 224.84Z" fill="white"/>
<path d="M59.9784 246.108C59.872 245.97 59.7301 245.865 59.5693 245.805C59.4085 245.746 59.2357 245.734 59.0714 245.771C54.5507 246.776 51.1646 250.087 50.1222 254.522C51.8455 256.252 53.1713 258.382 53.9431 260.75L55.313 263.236C62.6603 257.339 57.7838 252.331 60.0822 247.08C60.1576 246.928 60.1879 246.755 60.1695 246.583C60.1512 246.411 60.0848 246.246 59.9784 246.108ZM31.2676 254.59C31.1344 254.692 31.034 254.832 30.9783 254.994C30.9226 255.155 30.9139 255.331 30.9534 255.5C30.9928 255.669 31.0787 255.825 31.2009 255.949C31.323 256.072 31.4763 256.159 31.6426 256.198C38.2952 258.092 38.9998 266.819 51.2035 263.063L54.0282 268.188C54.6526 269.225 56.1106 268.42 55.5677 267.34L52.3146 261.437C49.5685 252.413 38.4459 248.789 31.2676 254.59Z" fill="white"/>
<path d="M88.9784 275.108C88.872 274.97 88.73 274.865 88.5693 274.805C88.4085 274.746 88.2357 274.734 88.0714 274.771C83.5507 275.776 80.1646 279.087 79.1222 283.522C80.8455 285.252 82.1713 287.382 82.9431 289.75L84.313 292.236C91.6603 286.339 86.7838 281.331 89.0822 276.08C89.1576 275.928 89.1879 275.755 89.1695 275.583C89.1512 275.411 89.0848 275.246 88.9784 275.108ZM60.2677 283.59C60.1344 283.692 60.034 283.832 59.9783 283.994C59.9226 284.155 59.9139 284.331 59.9534 284.5C59.9928 284.669 60.0787 284.825 60.2009 284.949C60.323 285.072 60.4763 285.159 60.6426 285.198C67.2952 287.092 67.9998 295.819 80.2035 292.063L83.0282 297.188C83.6526 298.225 85.1106 297.42 84.5677 296.34L81.3146 290.437C78.5685 281.413 67.4459 277.789 60.2677 283.59Z" fill="white"/>
<path d="M120.978 307.108C120.872 306.97 120.73 306.865 120.569 306.805C120.409 306.746 120.236 306.734 120.071 306.771C115.551 307.776 112.165 311.087 111.122 315.522C112.845 317.252 114.171 319.382 114.943 321.75L116.313 324.236C123.66 318.339 118.784 313.331 121.082 308.08C121.158 307.928 121.188 307.755 121.17 307.583C121.151 307.411 121.085 307.246 120.978 307.108ZM92.2677 315.59C92.1344 315.692 92.034 315.832 91.9783 315.994C91.9226 316.155 91.9139 316.331 91.9534 316.5C91.9928 316.669 92.0787 316.825 92.2009 316.949C92.323 317.072 92.4763 317.159 92.6425 317.198C99.2952 319.092 99.9998 327.819 112.203 324.063L115.028 329.188C115.653 330.225 117.111 329.42 116.568 328.34L113.315 322.437C110.568 313.413 99.4459 309.789 92.2677 315.59Z" fill="white"/>
<path d="M149.978 337.108C149.872 336.97 149.73 336.865 149.569 336.805C149.409 336.746 149.236 336.734 149.071 336.771C144.551 337.776 141.165 341.087 140.122 345.522C141.845 347.252 143.171 349.382 143.943 351.75L145.313 354.236C152.66 348.339 147.784 343.331 150.082 338.08C150.158 337.928 150.188 337.755 150.17 337.583C150.151 337.411 150.085 337.246 149.978 337.108ZM121.268 345.59C121.134 345.692 121.034 345.832 120.978 345.994C120.923 346.155 120.914 346.331 120.953 346.5C120.993 346.669 121.079 346.825 121.201 346.949C121.323 347.072 121.476 347.159 121.643 347.198C128.295 349.092 129 357.819 141.203 354.063L144.028 359.188C144.653 360.225 146.111 359.42 145.568 358.34L142.315 352.437C139.568 343.413 128.446 339.789 121.268 345.59Z" fill="white"/>
<path d="M180.978 366.108C180.872 365.97 180.73 365.865 180.569 365.805C180.409 365.746 180.236 365.734 180.071 365.771C175.551 366.776 172.165 370.087 171.122 374.522C172.845 376.252 174.171 378.382 174.943 380.75L176.313 383.236C183.66 377.339 178.784 372.331 181.082 367.08C181.158 366.928 181.188 366.755 181.17 366.583C181.151 366.411 181.085 366.246 180.978 366.108ZM152.268 374.59C152.134 374.692 152.034 374.832 151.978 374.994C151.923 375.155 151.914 375.331 151.953 375.5C151.993 375.669 152.079 375.825 152.201 375.949C152.323 376.072 152.476 376.159 152.643 376.198C159.295 378.092 160 386.819 172.203 383.063L175.028 388.188C175.653 389.225 177.111 388.42 176.568 387.34L173.315 381.437C170.568 372.413 159.446 368.789 152.268 374.59Z" fill="white"/>
<path d="M207.978 395.108C207.872 394.97 207.73 394.865 207.569 394.805C207.409 394.746 207.236 394.734 207.071 394.771C202.551 395.776 199.165 399.087 198.122 403.522C199.845 405.252 201.171 407.382 201.943 409.75L203.313 412.236C210.66 406.339 205.784 401.331 208.082 396.08C208.158 395.928 208.188 395.755 208.17 395.583C208.151 395.411 208.085 395.246 207.978 395.108ZM179.268 403.589C179.134 403.692 179.034 403.832 178.978 403.994C178.923 404.155 178.914 404.331 178.953 404.5C178.993 404.669 179.079 404.825 179.201 404.949C179.323 405.072 179.476 405.159 179.643 405.198C186.295 407.092 187 415.819 199.203 412.063L202.028 417.188C202.653 418.225 204.111 417.42 203.568 416.34L200.315 410.437C197.568 401.413 186.446 397.789 179.268 403.589Z" fill="white"/>
<path d="M238.978 425.108C238.872 424.97 238.73 424.865 238.569 424.805C238.409 424.746 238.236 424.734 238.071 424.771C233.551 425.776 230.165 429.087 229.122 433.522C230.845 435.252 232.171 437.382 232.943 439.75L234.313 442.236C241.66 436.339 236.784 431.331 239.082 426.08C239.158 425.928 239.188 425.755 239.17 425.583C239.151 425.411 239.085 425.246 238.978 425.108ZM210.268 433.589C210.134 433.692 210.034 433.832 209.978 433.994C209.923 434.155 209.914 434.331 209.953 434.5C209.993 434.669 210.079 434.825 210.201 434.949C210.323 435.072 210.476 435.159 210.643 435.198C217.295 437.092 218 445.819 230.203 442.063L233.028 447.188C233.653 448.225 235.111 447.42 234.568 446.34L231.315 440.437C228.568 431.413 217.446 427.789 210.268 433.589Z" fill="white"/>
<path d="M268.978 456.108C268.872 455.97 268.73 455.865 268.569 455.805C268.409 455.746 268.236 455.734 268.071 455.771C263.551 456.776 260.165 460.087 259.122 464.522C260.845 466.252 262.171 468.382 262.943 470.75L264.313 473.236C271.66 467.339 266.784 462.331 269.082 457.08C269.158 456.928 269.188 456.755 269.17 456.583C269.151 456.411 269.085 456.246 268.978 456.108ZM240.268 464.589C240.134 464.692 240.034 464.832 239.978 464.994C239.923 465.155 239.914 465.331 239.953 465.5C239.993 465.669 240.079 465.825 240.201 465.949C240.323 466.072 240.476 466.159 240.643 466.198C247.295 468.092 248 476.819 260.203 473.063L263.028 478.188C263.653 479.225 265.111 478.42 264.568 477.34L261.315 471.437C258.568 462.413 247.446 458.789 240.268 464.589Z" fill="white"/>
<path d="M296.978 484.108C296.872 483.97 296.73 483.865 296.569 483.805C296.409 483.746 296.236 483.734 296.071 483.771C291.551 484.776 288.165 488.087 287.122 492.522C288.845 494.252 290.171 496.382 290.943 498.75L292.313 501.236C299.66 495.339 294.784 490.331 297.082 485.08C297.158 484.928 297.188 484.755 297.17 484.583C297.151 484.411 297.085 484.246 296.978 484.108ZM268.268 492.589C268.134 492.692 268.034 492.832 267.978 492.994C267.923 493.155 267.914 493.331 267.953 493.5C267.993 493.669 268.079 493.825 268.201 493.949C268.323 494.072 268.476 494.159 268.643 494.198C275.295 496.092 276 504.819 288.203 501.063L291.028 506.188C291.653 507.225 293.111 506.42 292.568 505.34L289.315 499.437C286.568 490.413 275.446 486.789 268.268 492.589Z" fill="white"/>
<path d="M-2.95059 243.358C-3.057 243.221 -3.199 243.116 -3.35976 243.056C-3.52052 242.996 -3.69331 242.984 -3.85767 243.021C-8.37833 244.026 -11.7644 247.337 -12.8068 251.772C-11.0835 253.503 -9.75777 255.632 -8.98594 258.001L-7.61599 260.487C-0.2687 254.59 -5.14525 249.582 -2.84688 244.331C-2.77144 244.178 -2.74111 244.006 -2.7595 243.833C-2.77789 243.661 -2.8442 243.496 -2.95059 243.358ZM-31.6614 251.84C-31.7946 251.943 -31.8951 252.083 -31.9508 252.244C-32.0065 252.406 -32.0151 252.581 -31.9756 252.751C-31.9362 252.92 -31.8503 253.076 -31.7282 253.199C-31.606 253.323 -31.4527 253.409 -31.2865 253.448C-24.6339 255.342 -23.9293 264.07 -11.7256 260.313L-8.90079 265.439C-8.27641 266.475 -6.81841 265.671 -7.36136 264.59L-10.6145 258.687C-13.3606 249.664 -24.4831 246.039 -31.6614 251.84Z" fill="white"/>
<path d="M27.9784 273.108C27.872 272.97 27.73 272.865 27.5693 272.805C27.4085 272.746 27.2357 272.734 27.0714 272.771C22.5507 273.776 19.1646 277.087 18.1222 281.522C19.8455 283.252 21.1713 285.382 21.9431 287.75L23.313 290.236C30.6603 284.339 25.7838 279.331 28.0822 274.08C28.1576 273.928 28.1879 273.755 28.1695 273.583C28.1512 273.411 28.0848 273.246 27.9784 273.108ZM-0.732353 281.59C-0.865608 281.692 -0.966034 281.832 -1.02174 281.994C-1.07744 282.155 -1.08607 282.331 -1.04662 282.5C-1.00716 282.669 -0.921265 282.825 -0.799118 282.949C-0.676971 283.072 -0.523697 283.159 -0.357445 283.198C6.29517 285.092 6.99978 293.819 19.2035 290.063L22.0283 295.188C22.6526 296.225 24.1106 295.42 23.5677 294.34L20.3146 288.437C17.5684 279.413 6.44592 275.789 -0.732353 281.59Z" fill="white"/>
<path d="M56.9784 302.108C56.872 301.97 56.73 301.865 56.5693 301.805C56.4085 301.746 56.2357 301.734 56.0714 301.771C51.5507 302.776 48.1646 306.087 47.1222 310.522C48.8455 312.252 50.1713 314.382 50.9431 316.75L52.313 319.236C59.6603 313.339 54.7838 308.331 57.0822 303.08C57.1576 302.928 57.1879 302.755 57.1695 302.583C57.1512 302.411 57.0848 302.246 56.9784 302.108ZM28.2676 310.59C28.1344 310.692 28.034 310.832 27.9783 310.994C27.9226 311.155 27.9139 311.331 27.9534 311.5C27.9928 311.669 28.0787 311.825 28.2009 311.949C28.323 312.072 28.4763 312.159 28.6426 312.198C35.2952 314.092 35.9998 322.819 48.2035 319.063L51.0282 324.188C51.6526 325.225 53.1106 324.42 52.5677 323.34L49.3146 317.437C46.5685 308.413 35.4459 304.789 28.2676 310.59Z" fill="white"/>
<path d="M88.9784 334.108C88.872 333.97 88.73 333.865 88.5693 333.805C88.4085 333.746 88.2357 333.734 88.0714 333.771C83.5507 334.776 80.1646 338.087 79.1222 342.522C80.8455 344.252 82.1713 346.382 82.9431 348.75L84.313 351.236C91.6603 345.339 86.7838 340.331 89.0822 335.08C89.1576 334.928 89.1879 334.755 89.1695 334.583C89.1512 334.411 89.0848 334.246 88.9784 334.108ZM60.2677 342.59C60.1344 342.692 60.034 342.832 59.9783 342.994C59.9226 343.155 59.9139 343.331 59.9534 343.5C59.9928 343.669 60.0787 343.825 60.2009 343.949C60.323 344.072 60.4763 344.159 60.6425 344.198C67.2952 346.092 67.9998 354.819 80.2035 351.063L83.0282 356.188C83.6526 357.225 85.1106 356.42 84.5677 355.34L81.3146 349.437C78.5685 340.413 67.4459 336.789 60.2677 342.59Z" fill="white"/>
<path d="M117.978 364.108C117.872 363.97 117.73 363.865 117.569 363.805C117.409 363.746 117.236 363.734 117.071 363.771C112.551 364.776 109.165 368.087 108.122 372.522C109.845 374.252 111.171 376.382 111.943 378.75L113.313 381.236C120.66 375.339 115.784 370.331 118.082 365.08C118.158 364.928 118.188 364.755 118.17 364.583C118.151 364.411 118.085 364.246 117.978 364.108ZM89.2677 372.59C89.1344 372.692 89.034 372.832 88.9783 372.994C88.9226 373.155 88.9139 373.331 88.9534 373.5C88.9928 373.669 89.0787 373.825 89.2009 373.949C89.323 374.072 89.4763 374.159 89.6425 374.198C96.2952 376.092 96.9998 384.819 109.203 381.063L112.028 386.188C112.653 387.225 114.111 386.42 113.568 385.34L110.315 379.437C107.568 370.413 96.4459 366.789 89.2677 372.59Z" fill="white"/>
<path d="M148.978 393.108C148.872 392.97 148.73 392.865 148.569 392.805C148.409 392.746 148.236 392.734 148.071 392.771C143.551 393.776 140.165 397.087 139.122 401.522C140.845 403.252 142.171 405.382 142.943 407.75L144.313 410.236C151.66 404.339 146.784 399.331 149.082 394.08C149.158 393.928 149.188 393.755 149.17 393.583C149.151 393.411 149.085 393.246 148.978 393.108ZM120.268 401.589C120.134 401.692 120.034 401.832 119.978 401.994C119.923 402.155 119.914 402.331 119.953 402.5C119.993 402.669 120.079 402.825 120.201 402.949C120.323 403.072 120.476 403.159 120.643 403.198C127.295 405.092 128 413.819 140.203 410.063L143.028 415.188C143.653 416.225 145.111 415.42 144.568 414.34L141.315 408.437C138.568 399.413 127.446 395.789 120.268 401.589Z" fill="white"/>
<path d="M175.978 422.108C175.872 421.97 175.73 421.865 175.569 421.805C175.409 421.746 175.236 421.734 175.071 421.771C170.551 422.776 167.165 426.087 166.122 430.522C167.845 432.252 169.171 434.382 169.943 436.75L171.313 439.236C178.66 433.339 173.784 428.331 176.082 423.08C176.158 422.928 176.188 422.755 176.17 422.583C176.151 422.411 176.085 422.246 175.978 422.108ZM147.268 430.589C147.134 430.692 147.034 430.832 146.978 430.994C146.923 431.155 146.914 431.331 146.953 431.5C146.993 431.669 147.079 431.825 147.201 431.949C147.323 432.072 147.476 432.159 147.643 432.198C154.295 434.092 155 442.819 167.203 439.063L170.028 444.188C170.653 445.225 172.111 444.42 171.568 443.34L168.315 437.437C165.568 428.413 154.446 424.789 147.268 430.589Z" fill="white"/>
<path d="M206.978 452.108C206.872 451.97 206.73 451.865 206.569 451.805C206.409 451.746 206.236 451.734 206.071 451.771C201.551 452.776 198.165 456.087 197.122 460.522C198.845 462.252 200.171 464.382 200.943 466.75L202.313 469.236C209.66 463.339 204.784 458.331 207.082 453.08C207.158 452.928 207.188 452.755 207.17 452.583C207.151 452.411 207.085 452.246 206.978 452.108ZM178.268 460.589C178.134 460.692 178.034 460.832 177.978 460.994C177.923 461.155 177.914 461.331 177.953 461.5C177.993 461.669 178.079 461.825 178.201 461.949C178.323 462.072 178.476 462.159 178.643 462.198C185.295 464.092 186 472.819 198.203 469.063L201.028 474.188C201.653 475.225 203.111 474.42 202.568 473.34L199.315 467.437C196.568 458.413 185.446 454.789 178.268 460.589Z" fill="white"/>
<path d="M236.978 483.108C236.872 482.97 236.73 482.865 236.569 482.805C236.409 482.746 236.236 482.734 236.071 482.771C231.551 483.776 228.165 487.087 227.122 491.522C228.845 493.252 230.171 495.382 230.943 497.75L232.313 500.236C239.66 494.339 234.784 489.331 237.082 484.08C237.158 483.928 237.188 483.755 237.17 483.583C237.151 483.411 237.085 483.246 236.978 483.108ZM208.268 491.589C208.134 491.692 208.034 491.832 207.978 491.994C207.923 492.155 207.914 492.331 207.953 492.5C207.993 492.669 208.079 492.825 208.201 492.949C208.323 493.072 208.476 493.159 208.643 493.198C215.295 495.092 216 503.819 228.203 500.063L231.028 505.188C231.653 506.225 233.111 505.42 232.568 504.34L229.315 498.437C226.568 489.413 215.446 485.789 208.268 491.589Z" fill="white"/>
<path d="M264.978 511.108C264.872 510.97 264.73 510.865 264.569 510.805C264.409 510.746 264.236 510.734 264.071 510.771C259.551 511.776 256.165 515.087 255.122 519.522C256.845 521.252 258.171 523.382 258.943 525.75L260.313 528.236C267.66 522.339 262.784 517.331 265.082 512.08C265.158 511.928 265.188 511.755 265.17 511.583C265.151 511.411 265.085 511.246 264.978 511.108ZM236.268 519.589C236.134 519.692 236.034 519.832 235.978 519.994C235.923 520.155 235.914 520.331 235.953 520.5C235.993 520.669 236.079 520.825 236.201 520.949C236.323 521.072 236.476 521.159 236.643 521.198C243.295 523.092 244 531.819 256.203 528.063L259.028 533.188C259.653 534.225 261.111 533.42 260.568 532.34L257.315 526.437C254.568 517.413 243.446 513.789 236.268 519.589Z" fill="white"/>
<path d="M-33.9506 275.358C-34.057 275.221 -34.199 275.116 -34.3598 275.056C-34.5205 274.996 -34.6933 274.984 -34.8577 275.021C-39.3783 276.026 -42.7644 279.337 -43.8068 283.772C-42.0835 285.503 -40.7578 287.632 -39.9859 290.001L-38.616 292.487C-31.2687 286.59 -36.1453 281.582 -33.8469 276.331C-33.7714 276.178 -33.7411 276.006 -33.7595 275.833C-33.7779 275.661 -33.8442 275.496 -33.9506 275.358ZM-62.6614 283.84C-62.7946 283.943 -62.8951 284.083 -62.9508 284.244C-63.0065 284.406 -63.0151 284.581 -62.9757 284.751C-62.9362 284.92 -62.8503 285.076 -62.7282 285.199C-62.606 285.323 -62.4527 285.409 -62.2865 285.448C-55.6339 287.342 -54.9293 296.07 -42.7256 292.313L-39.9008 297.439C-39.2764 298.475 -37.8184 297.671 -38.3614 296.59L-41.6145 290.687C-44.3606 281.664 -55.4831 278.039 -62.6614 283.84Z" fill="white"/>
<path d="M-3.02155 305.108C-3.12796 304.97 -3.26996 304.865 -3.43072 304.805C-3.59148 304.746 -3.76427 304.734 -3.92863 304.771C-8.4493 305.776 -11.8354 309.087 -12.8778 313.522C-11.1545 315.252 -9.82874 317.382 -9.05691 319.75L-7.68695 322.236C-0.339661 316.339 -5.21621 311.331 -2.91784 306.08C-2.8424 305.928 -2.81207 305.755 -2.83046 305.583C-2.84885 305.411 -2.91516 305.246 -3.02155 305.108ZM-31.7324 313.59C-31.8656 313.692 -31.966 313.832 -32.0217 313.994C-32.0774 314.155 -32.0861 314.331 -32.0466 314.5C-32.0072 314.669 -31.9213 314.825 -31.7991 314.949C-31.677 315.072 -31.5237 315.159 -31.3574 315.198C-24.7048 317.092 -24.0002 325.819 -11.7965 322.063L-8.97175 327.188C-8.34738 328.225 -6.88937 327.42 -7.43232 326.34L-10.6854 320.437C-13.4316 311.413 -24.5541 307.789 -31.7324 313.59Z" fill="white"/>
<path d="M25.9784 334.108C25.872 333.97 25.73 333.865 25.5693 333.805C25.4085 333.746 25.2357 333.734 25.0714 333.771C20.5507 334.776 17.1646 338.087 16.1222 342.522C17.8455 344.252 19.1713 346.382 19.9431 348.75L21.313 351.236C28.6603 345.339 23.7838 340.331 26.0822 335.08C26.1576 334.928 26.1879 334.755 26.1695 334.583C26.1512 334.411 26.0848 334.246 25.9784 334.108ZM-2.73235 342.59C-2.86561 342.692 -2.96603 342.832 -3.02174 342.994C-3.07744 343.155 -3.08607 343.331 -3.04662 343.5C-3.00716 343.669 -2.92127 343.825 -2.79913 343.949C-2.67698 344.072 -2.5237 344.159 -2.35744 344.198C4.29517 346.092 4.99978 354.819 17.2035 351.063L20.0283 356.188C20.6526 357.225 22.1106 356.42 21.5677 355.34L18.3146 349.437C15.5684 340.413 4.44592 336.789 -2.73235 342.59Z" fill="white"/>
<path d="M57.9784 366.108C57.872 365.97 57.73 365.865 57.5693 365.805C57.4085 365.746 57.2357 365.734 57.0714 365.771C52.5507 366.776 49.1646 370.087 48.1222 374.522C49.8455 376.252 51.1713 378.382 51.9431 380.75L53.313 383.236C60.6603 377.339 55.7838 372.331 58.0822 367.08C58.1576 366.928 58.1879 366.755 58.1695 366.583C58.1512 366.411 58.0848 366.246 57.9784 366.108ZM29.2677 374.59C29.1344 374.692 29.034 374.832 28.9783 374.994C28.9226 375.155 28.9139 375.331 28.9534 375.5C28.9928 375.669 29.0787 375.825 29.2009 375.949C29.323 376.072 29.4763 376.159 29.6426 376.198C36.2952 378.092 36.9998 386.819 49.2035 383.063L52.0282 388.188C52.6526 389.225 54.1106 388.42 53.5677 387.34L50.3146 381.437C47.5685 372.413 36.4459 368.789 29.2677 374.59Z" fill="white"/>
<path d="M86.9784 396.108C86.872 395.97 86.7301 395.865 86.5693 395.805C86.4085 395.746 86.2357 395.734 86.0714 395.771C81.5507 396.776 78.1646 400.087 77.1222 404.522C78.8455 406.252 80.1713 408.382 80.9431 410.75L82.313 413.236C89.6603 407.339 84.7838 402.331 87.0822 397.08C87.1576 396.928 87.1879 396.755 87.1695 396.583C87.1512 396.411 87.0848 396.246 86.9784 396.108ZM58.2677 404.589C58.1344 404.692 58.034 404.832 57.9783 404.994C57.9226 405.155 57.9139 405.331 57.9534 405.5C57.9928 405.669 58.0787 405.825 58.2009 405.949C58.323 406.072 58.4763 406.159 58.6425 406.198C65.2952 408.092 65.9998 416.819 78.2035 413.063L81.0283 418.188C81.6526 419.225 83.1106 418.42 82.5677 417.34L79.3146 411.437C76.5685 402.413 65.4459 398.789 58.2677 404.589Z" fill="white"/>
<path d="M117.978 425.108C117.872 424.97 117.73 424.865 117.569 424.805C117.409 424.746 117.236 424.734 117.071 424.771C112.551 425.776 109.165 429.087 108.122 433.522C109.845 435.252 111.171 437.382 111.943 439.75L113.313 442.236C120.66 436.339 115.784 431.331 118.082 426.08C118.158 425.928 118.188 425.755 118.17 425.583C118.151 425.411 118.085 425.246 117.978 425.108ZM89.2677 433.589C89.1344 433.692 89.034 433.832 88.9783 433.994C88.9226 434.155 88.9139 434.331 88.9534 434.5C88.9928 434.669 89.0787 434.825 89.2009 434.949C89.323 435.072 89.4763 435.159 89.6426 435.198C96.2952 437.092 96.9998 445.819 109.203 442.063L112.028 447.188C112.653 448.225 114.111 447.42 113.568 446.34L110.315 440.437C107.568 431.413 96.4459 427.789 89.2677 433.589Z" fill="white"/>
<path d="M144.978 454.108C144.872 453.97 144.73 453.865 144.569 453.805C144.409 453.746 144.236 453.734 144.071 453.771C139.551 454.776 136.165 458.087 135.122 462.522C136.845 464.252 138.171 466.382 138.943 468.75L140.313 471.236C147.66 465.339 142.784 460.331 145.082 455.08C145.158 454.928 145.188 454.755 145.17 454.583C145.151 454.411 145.085 454.246 144.978 454.108ZM116.268 462.589C116.134 462.692 116.034 462.832 115.978 462.994C115.923 463.155 115.914 463.331 115.953 463.5C115.993 463.669 116.079 463.825 116.201 463.949C116.323 464.072 116.476 464.159 116.643 464.198C123.295 466.092 124 474.819 136.203 471.063L139.028 476.188C139.653 477.225 141.111 476.42 140.568 475.34L137.315 469.437C134.568 460.413 123.446 456.789 116.268 462.589Z" fill="white"/>
<path d="M175.978 484.108C175.872 483.97 175.73 483.865 175.569 483.805C175.409 483.746 175.236 483.734 175.071 483.771C170.551 484.776 167.165 488.087 166.122 492.522C167.845 494.252 169.171 496.382 169.943 498.75L171.313 501.236C178.66 495.339 173.784 490.331 176.082 485.08C176.158 484.928 176.188 484.755 176.17 484.583C176.151 484.411 176.085 484.246 175.978 484.108ZM147.268 492.589C147.134 492.692 147.034 492.832 146.978 492.994C146.923 493.155 146.914 493.331 146.953 493.5C146.993 493.669 147.079 493.825 147.201 493.949C147.323 494.072 147.476 494.159 147.643 494.198C154.295 496.092 155 504.819 167.203 501.063L170.028 506.188C170.653 507.225 172.111 506.42 171.568 505.34L168.315 499.437C165.568 490.413 154.446 486.789 147.268 492.589Z" fill="white"/>
<path d="M205.978 515.108C205.872 514.97 205.73 514.865 205.569 514.805C205.409 514.746 205.236 514.734 205.071 514.771C200.551 515.776 197.165 519.087 196.122 523.522C197.845 525.252 199.171 527.382 199.943 529.75L201.313 532.236C208.66 526.339 203.784 521.331 206.082 516.08C206.158 515.928 206.188 515.755 206.17 515.583C206.151 515.411 206.085 515.246 205.978 515.108ZM177.268 523.589C177.134 523.692 177.034 523.832 176.978 523.994C176.923 524.155 176.914 524.331 176.953 524.5C176.993 524.669 177.079 524.825 177.201 524.949C177.323 525.072 177.476 525.159 177.643 525.198C184.295 527.092 185 535.819 197.203 532.063L200.028 537.188C200.653 538.225 202.111 537.42 201.568 536.34L198.315 530.437C195.568 521.413 184.446 517.789 177.268 523.589Z" fill="white"/>
<path d="M233.978 543.108C233.872 542.97 233.73 542.865 233.569 542.805C233.409 542.746 233.236 542.734 233.071 542.771C228.551 543.776 225.165 547.087 224.122 551.522C225.845 553.252 227.171 555.382 227.943 557.75L229.313 560.236C236.66 554.339 231.784 549.331 234.082 544.08C234.158 543.928 234.188 543.755 234.17 543.583C234.151 543.411 234.085 543.246 233.978 543.108ZM205.268 551.589C205.134 551.692 205.034 551.832 204.978 551.994C204.923 552.155 204.914 552.331 204.953 552.5C204.993 552.669 205.079 552.825 205.201 552.949C205.323 553.072 205.476 553.159 205.643 553.198C212.295 555.092 213 563.819 225.203 560.063L228.028 565.188C228.653 566.225 230.111 565.42 229.568 564.34L226.315 558.437C223.568 549.413 212.446 545.789 205.268 551.589Z" fill="white"/>
<path d="M-66.9506 305.358C-67.057 305.221 -67.199 305.116 -67.3598 305.056C-67.5205 304.996 -67.6933 304.984 -67.8577 305.021C-72.3783 306.026 -75.7644 309.337 -76.8068 313.772C-75.0835 315.503 -73.7578 317.632 -72.9859 320.001L-71.616 322.487C-64.2687 316.59 -69.1453 311.582 -66.8469 306.331C-66.7714 306.178 -66.7411 306.006 -66.7595 305.833C-66.7779 305.661 -66.8442 305.496 -66.9506 305.358ZM-95.6614 313.84C-95.7946 313.943 -95.8951 314.083 -95.9508 314.244C-96.0065 314.406 -96.0151 314.581 -95.9756 314.751C-95.9362 314.92 -95.8503 315.076 -95.7282 315.199C-95.606 315.323 -95.4527 315.409 -95.2865 315.448C-88.6339 317.342 -87.9293 326.07 -75.7256 322.313L-72.9008 327.439C-72.2764 328.475 -70.8184 327.671 -71.3614 326.59L-74.6145 320.687C-77.3606 311.664 -88.4831 308.039 -95.6614 313.84Z" fill="white"/>
<path d="M-36.0216 335.108C-36.128 334.97 -36.27 334.865 -36.4307 334.805C-36.5915 334.746 -36.7643 334.734 -36.9286 334.771C-41.4493 335.776 -44.8354 339.087 -45.8778 343.522C-44.1545 345.252 -42.8287 347.382 -42.0569 349.75L-40.687 352.236C-33.3397 346.339 -38.2162 341.331 -35.9178 336.08C-35.8424 335.928 -35.8121 335.755 -35.8305 335.583C-35.8488 335.411 -35.9152 335.246 -36.0216 335.108ZM-64.7323 343.59C-64.8656 343.692 -64.966 343.832 -65.0217 343.994C-65.0774 344.155 -65.0861 344.331 -65.0466 344.5C-65.0072 344.669 -64.9213 344.825 -64.7991 344.949C-64.677 345.072 -64.5237 345.159 -64.3574 345.198C-57.7048 347.092 -57.0002 355.819 -44.7965 352.063L-41.9717 357.188C-41.3474 358.225 -39.8894 357.42 -40.4323 356.34L-43.6854 350.437C-46.4316 341.413 -57.5541 337.789 -64.7323 343.59Z" fill="white"/>
<path d="M-7.02155 364.108C-7.12796 363.97 -7.26996 363.865 -7.43072 363.805C-7.59148 363.746 -7.76427 363.734 -7.92863 363.771C-12.4493 364.776 -15.8354 368.087 -16.8778 372.522C-15.1545 374.252 -13.8287 376.382 -13.0569 378.75L-11.687 381.236C-4.33966 375.339 -9.21621 370.331 -6.91784 365.08C-6.8424 364.928 -6.81207 364.755 -6.83046 364.583C-6.84885 364.411 -6.91516 364.246 -7.02155 364.108ZM-35.7323 372.59C-35.8656 372.692 -35.966 372.832 -36.0217 372.994C-36.0774 373.155 -36.0861 373.331 -36.0466 373.5C-36.0072 373.669 -35.9213 373.825 -35.7991 373.949C-35.677 374.072 -35.5237 374.159 -35.3574 374.198C-28.7048 376.092 -28.0002 384.819 -15.7965 381.063L-12.9717 386.188C-12.3474 387.225 -10.8894 386.42 -11.4323 385.34L-14.6854 379.437C-17.4316 370.413 -28.5541 366.789 -35.7323 372.59Z" fill="white"/>
<path d="M24.9784 396.108C24.872 395.97 24.73 395.865 24.5693 395.805C24.4085 395.746 24.2357 395.734 24.0714 395.771C19.5507 396.776 16.1646 400.087 15.1222 404.522C16.8455 406.252 18.1713 408.382 18.9431 410.75L20.313 413.236C27.6603 407.339 22.7838 402.331 25.0822 397.08C25.1576 396.928 25.1879 396.755 25.1695 396.583C25.1512 396.411 25.0848 396.246 24.9784 396.108ZM-3.73235 404.589C-3.8656 404.692 -3.96603 404.832 -4.02174 404.994C-4.07744 405.155 -4.08607 405.331 -4.04662 405.5C-4.00716 405.669 -3.92126 405.825 -3.79912 405.949C-3.67697 406.072 -3.5237 406.159 -3.35744 406.198C3.29517 408.092 3.99978 416.819 16.2035 413.063L19.0283 418.188C19.6526 419.225 21.1106 418.42 20.5677 417.34L17.3146 411.437C14.5684 402.413 3.44593 398.789 -3.73235 404.589Z" fill="white"/>
<path d="M53.9784 426.108C53.872 425.97 53.7301 425.865 53.5693 425.805C53.4085 425.746 53.2357 425.734 53.0714 425.771C48.5507 426.776 45.1646 430.087 44.1222 434.522C45.8455 436.252 47.1713 438.382 47.9431 440.75L49.313 443.236C56.6603 437.339 51.7838 432.331 54.0822 427.08C54.1576 426.928 54.1879 426.755 54.1695 426.583C54.1512 426.411 54.0848 426.246 53.9784 426.108ZM25.2677 434.589C25.1344 434.692 25.034 434.832 24.9783 434.994C24.9226 435.155 24.9139 435.331 24.9534 435.5C24.9928 435.669 25.0787 435.825 25.2009 435.949C25.323 436.072 25.4763 436.159 25.6426 436.198C32.2952 438.092 32.9998 446.819 45.2035 443.063L48.0283 448.188C48.6526 449.225 50.1106 448.42 49.5677 447.34L46.3146 441.437C43.5685 432.413 32.4459 428.789 25.2677 434.589Z" fill="white"/>
<path d="M84.9784 455.108C84.872 454.97 84.7301 454.865 84.5693 454.805C84.4085 454.746 84.2357 454.734 84.0714 454.771C79.5507 455.776 76.1646 459.087 75.1222 463.522C76.8455 465.252 78.1713 467.382 78.9431 469.75L80.313 472.236C87.6603 466.339 82.7838 461.331 85.0822 456.08C85.1576 455.928 85.1879 455.755 85.1695 455.583C85.1512 455.411 85.0848 455.246 84.9784 455.108ZM56.2677 463.589C56.1344 463.692 56.034 463.832 55.9783 463.994C55.9226 464.155 55.9139 464.331 55.9534 464.5C55.9928 464.669 56.0787 464.825 56.2009 464.949C56.323 465.072 56.4763 465.159 56.6426 465.198C63.2952 467.092 63.9998 475.819 76.2035 472.063L79.0283 477.188C79.6526 478.225 81.1106 477.42 80.5677 476.34L77.3146 470.437C74.5685 461.413 63.4459 457.789 56.2677 463.589Z" fill="white"/>
<path d="M111.978 484.108C111.872 483.97 111.73 483.865 111.569 483.805C111.409 483.746 111.236 483.734 111.071 483.771C106.551 484.776 103.165 488.087 102.122 492.522C103.845 494.252 105.171 496.382 105.943 498.75L107.313 501.236C114.66 495.339 109.784 490.331 112.082 485.08C112.158 484.928 112.188 484.755 112.17 484.583C112.151 484.411 112.085 484.246 111.978 484.108ZM83.2677 492.589C83.1344 492.692 83.034 492.832 82.9783 492.994C82.9226 493.155 82.9139 493.331 82.9534 493.5C82.9928 493.669 83.0787 493.825 83.2009 493.949C83.323 494.072 83.4763 494.159 83.6426 494.198C90.2952 496.092 90.9998 504.819 103.203 501.063L106.028 506.188C106.653 507.225 108.111 506.42 107.568 505.34L104.315 499.437C101.568 490.413 90.4459 486.789 83.2677 492.589Z" fill="white"/>
<path d="M142.978 514.108C142.872 513.97 142.73 513.865 142.569 513.805C142.409 513.746 142.236 513.734 142.071 513.771C137.551 514.776 134.165 518.087 133.122 522.522C134.845 524.252 136.171 526.382 136.943 528.75L138.313 531.236C145.66 525.339 140.784 520.331 143.082 515.08C143.158 514.928 143.188 514.755 143.17 514.583C143.151 514.411 143.085 514.246 142.978 514.108ZM114.268 522.589C114.134 522.692 114.034 522.832 113.978 522.994C113.923 523.155 113.914 523.331 113.953 523.5C113.993 523.669 114.079 523.825 114.201 523.949C114.323 524.072 114.476 524.159 114.643 524.198C121.295 526.092 122 534.819 134.203 531.063L137.028 536.188C137.653 537.225 139.111 536.42 138.568 535.34L135.315 529.437C132.568 520.413 121.446 516.789 114.268 522.589Z" fill="white"/>
<path d="M172.978 545.108C172.872 544.97 172.73 544.865 172.569 544.805C172.409 544.746 172.236 544.734 172.071 544.771C167.551 545.776 164.165 549.087 163.122 553.522C164.845 555.252 166.171 557.382 166.943 559.75L168.313 562.236C175.66 556.339 170.784 551.331 173.082 546.08C173.158 545.928 173.188 545.755 173.17 545.583C173.151 545.411 173.085 545.246 172.978 545.108ZM144.268 553.589C144.134 553.692 144.034 553.832 143.978 553.994C143.923 554.155 143.914 554.331 143.953 554.5C143.993 554.669 144.079 554.825 144.201 554.949C144.323 555.072 144.476 555.159 144.643 555.198C151.295 557.092 152 565.819 164.203 562.063L167.028 567.188C167.653 568.225 169.111 567.42 168.568 566.34L165.315 560.437C162.568 551.413 151.446 547.789 144.268 553.589Z" fill="white"/>
<path d="M200.978 573.108C200.872 572.97 200.73 572.865 200.569 572.805C200.409 572.746 200.236 572.734 200.071 572.771C195.551 573.776 192.165 577.087 191.122 581.522C192.845 583.252 194.171 585.382 194.943 587.75L196.313 590.236C203.66 584.339 198.784 579.331 201.082 574.08C201.158 573.928 201.188 573.755 201.17 573.583C201.151 573.411 201.085 573.246 200.978 573.108ZM172.268 581.589C172.134 581.692 172.034 581.832 171.978 581.994C171.923 582.155 171.914 582.331 171.953 582.5C171.993 582.669 172.079 582.825 172.201 582.949C172.323 583.072 172.476 583.159 172.643 583.198C179.295 585.092 180 593.819 192.203 590.063L195.028 595.188C195.653 596.225 197.111 595.42 196.568 594.34L193.315 588.437C190.568 579.413 179.446 575.789 172.268 581.589Z" fill="white"/>
<path d="M56.0494 8.35849C55.943 8.22069 55.801 8.11567 55.6402 8.05586C55.4795 7.99606 55.3067 7.98398 55.1423 8.02105C50.6217 9.02624 47.2356 12.3371 46.1932 16.7723C47.9165 18.5029 49.2422 20.632 50.0141 23.0007L51.384 25.4866C58.7313 19.5896 53.8548 14.5816 56.1531 9.33064C56.2286 9.17831 56.2589 9.00575 56.2405 8.83345C56.2221 8.66115 56.1558 8.49631 56.0494 8.35849ZM27.3386 16.8399C27.2054 16.9425 27.1049 17.0828 27.0492 17.2442C26.9935 17.4057 26.9849 17.5814 27.0244 17.7507C27.0638 17.9199 27.1497 18.0756 27.2718 18.1992C27.394 18.3228 27.5473 18.4092 27.7135 18.4481C34.3661 20.3421 35.0707 29.0699 47.2744 25.3131L50.0992 30.4388C50.7236 31.4754 52.1816 30.6709 51.6386 29.5904L48.3855 23.6875C45.6394 14.6636 34.5169 11.0392 27.3386 16.8399Z" fill="white"/>
<path d="M86.9784 38.1081C86.872 37.9703 86.7301 37.8652 86.5693 37.8055C86.4085 37.7457 86.2357 37.7336 86.0714 37.7706C81.5507 38.7758 78.1646 42.0867 77.1222 46.5219C78.8455 48.2525 80.1713 50.3816 80.9431 52.7504L82.313 55.2362C89.6603 49.3392 84.7838 44.3312 87.0822 39.0802C87.1576 38.9279 87.1879 38.7554 87.1695 38.5831C87.1512 38.4108 87.0848 38.2459 86.9784 38.1081ZM58.2677 46.5895C58.1344 46.6921 58.034 46.8324 57.9783 46.9938C57.9226 47.1553 57.9139 47.331 57.9534 47.5002C57.9928 47.6695 58.0787 47.8251 58.2009 47.9488C58.323 48.0724 58.4763 48.1588 58.6426 48.1977C65.2952 50.0917 65.9998 58.8194 78.2035 55.0627L81.0282 60.1884C81.6526 61.225 83.1106 60.4205 82.5677 59.34L79.3146 53.4371C76.5685 44.4132 65.4459 40.7888 58.2677 46.5895Z" fill="white"/>
<path d="M115.978 67.1081C115.872 66.9703 115.73 66.8652 115.569 66.8055C115.409 66.7457 115.236 66.7336 115.071 66.7706C110.551 67.7758 107.165 71.0867 106.122 75.5219C107.845 77.2525 109.171 79.3816 109.943 81.7504L111.313 84.2362C118.66 78.3392 113.784 73.3312 116.082 68.0802C116.158 67.9279 116.188 67.7553 116.17 67.583C116.151 67.4107 116.085 67.2459 115.978 67.1081ZM87.2677 75.5895C87.1344 75.6921 87.034 75.8324 86.9783 75.9938C86.9226 76.1553 86.9139 76.331 86.9534 76.5002C86.9928 76.6695 87.0787 76.8251 87.2009 76.9488C87.323 77.0724 87.4763 77.1588 87.6426 77.1977C94.2952 79.0917 94.9998 87.8194 107.203 84.0627L110.028 89.1884C110.653 90.225 112.111 89.4205 111.568 88.34L108.315 82.4371C105.568 73.4132 94.4459 69.7888 87.2677 75.5895Z" fill="white"/>
<path d="M147.978 99.1081C147.872 98.9703 147.73 98.8652 147.569 98.8055C147.409 98.7457 147.236 98.7336 147.071 98.7706C142.551 99.7758 139.165 103.087 138.122 107.522C139.845 109.252 141.171 111.382 141.943 113.75L143.313 116.236C150.66 110.339 145.784 105.331 148.082 100.08C148.158 99.9279 148.188 99.7553 148.17 99.583C148.151 99.4107 148.085 99.2459 147.978 99.1081ZM119.268 107.589C119.134 107.692 119.034 107.832 118.978 107.994C118.923 108.155 118.914 108.331 118.953 108.5C118.993 108.669 119.079 108.825 119.201 108.949C119.323 109.072 119.476 109.159 119.643 109.198C126.295 111.092 127 119.819 139.203 116.063L142.028 121.188C142.653 122.225 144.111 121.42 143.568 120.34L140.315 114.437C137.568 105.413 126.446 101.789 119.268 107.589Z" fill="white"/>
<path d="M176.978 129.108C176.872 128.97 176.73 128.865 176.569 128.805C176.409 128.746 176.236 128.734 176.071 128.771C171.551 129.776 168.165 133.087 167.122 137.522C168.845 139.252 170.171 141.382 170.943 143.75L172.313 146.236C179.66 140.339 174.784 135.331 177.082 130.08C177.158 129.928 177.188 129.755 177.17 129.583C177.151 129.411 177.085 129.246 176.978 129.108ZM148.268 137.59C148.134 137.692 148.034 137.832 147.978 137.994C147.923 138.155 147.914 138.331 147.953 138.5C147.993 138.669 148.079 138.825 148.201 138.949C148.323 139.072 148.476 139.159 148.643 139.198C155.295 141.092 156 149.819 168.203 146.063L171.028 151.188C171.653 152.225 173.111 151.42 172.568 150.34L169.315 144.437C166.568 135.413 155.446 131.789 148.268 137.59Z" fill="white"/>
<path d="M207.978 158.108C207.872 157.97 207.73 157.865 207.569 157.805C207.409 157.746 207.236 157.734 207.071 157.771C202.551 158.776 199.165 162.087 198.122 166.522C199.845 168.252 201.171 170.382 201.943 172.75L203.313 175.236C210.66 169.339 205.784 164.331 208.082 159.08C208.158 158.928 208.188 158.755 208.17 158.583C208.151 158.411 208.085 158.246 207.978 158.108ZM179.268 166.59C179.134 166.692 179.034 166.832 178.978 166.994C178.923 167.155 178.914 167.331 178.953 167.5C178.993 167.669 179.079 167.825 179.201 167.949C179.323 168.072 179.476 168.159 179.643 168.198C186.295 170.092 187 178.819 199.203 175.063L202.028 180.188C202.653 181.225 204.111 180.42 203.568 179.34L200.315 173.437C197.568 164.413 186.446 160.789 179.268 166.59Z" fill="white"/>
<path d="M234.978 187.108C234.872 186.97 234.73 186.865 234.569 186.805C234.409 186.746 234.236 186.734 234.071 186.771C229.551 187.776 226.165 191.087 225.122 195.522C226.845 197.252 228.171 199.382 228.943 201.75L230.313 204.236C237.66 198.339 232.784 193.331 235.082 188.08C235.158 187.928 235.188 187.755 235.17 187.583C235.151 187.411 235.085 187.246 234.978 187.108ZM206.268 195.59C206.134 195.692 206.034 195.832 205.978 195.994C205.923 196.155 205.914 196.331 205.953 196.5C205.993 196.669 206.079 196.825 206.201 196.949C206.323 197.072 206.476 197.159 206.643 197.198C213.295 199.092 214 207.819 226.203 204.063L229.028 209.188C229.653 210.225 231.111 209.42 230.568 208.34L227.315 202.437C224.568 193.413 213.446 189.789 206.268 195.59Z" fill="white"/>
<path d="M265.978 217.108C265.872 216.97 265.73 216.865 265.569 216.805C265.409 216.746 265.236 216.734 265.071 216.771C260.551 217.776 257.165 221.087 256.122 225.522C257.845 227.252 259.171 229.382 259.943 231.75L261.313 234.236C268.66 228.339 263.784 223.331 266.082 218.08C266.158 217.928 266.188 217.755 266.17 217.583C266.151 217.411 266.085 217.246 265.978 217.108ZM237.268 225.59C237.134 225.692 237.034 225.832 236.978 225.994C236.923 226.155 236.914 226.331 236.953 226.5C236.993 226.669 237.079 226.825 237.201 226.949C237.323 227.072 237.476 227.159 237.643 227.198C244.295 229.092 245 237.819 257.203 234.063L260.028 239.188C260.653 240.225 262.111 239.42 261.568 238.34L258.315 232.437C255.568 223.413 244.446 219.789 237.268 225.59Z" fill="white"/>
<path d="M295.978 248.108C295.872 247.97 295.73 247.865 295.569 247.805C295.409 247.746 295.236 247.734 295.071 247.771C290.551 248.776 287.165 252.087 286.122 256.522C287.845 258.252 289.171 260.382 289.943 262.75L291.313 265.236C298.66 259.339 293.784 254.331 296.082 249.08C296.158 248.928 296.188 248.755 296.17 248.583C296.151 248.411 296.085 248.246 295.978 248.108ZM267.268 256.59C267.134 256.692 267.034 256.832 266.978 256.994C266.923 257.155 266.914 257.331 266.953 257.5C266.993 257.669 267.079 257.825 267.201 257.949C267.323 258.072 267.476 258.159 267.643 258.198C274.295 260.092 275 268.819 287.203 265.063L290.028 270.188C290.653 271.225 292.111 270.42 291.568 269.34L288.315 263.437C285.568 254.413 274.446 250.789 267.268 256.59Z" fill="white"/>
<path d="M323.978 276.108C323.872 275.97 323.73 275.865 323.569 275.805C323.409 275.746 323.236 275.734 323.071 275.771C318.551 276.776 315.165 280.087 314.122 284.522C315.845 286.252 317.171 288.382 317.943 290.75L319.313 293.236C326.66 287.339 321.784 282.331 324.082 277.08C324.158 276.928 324.188 276.755 324.17 276.583C324.151 276.411 324.085 276.246 323.978 276.108ZM295.268 284.59C295.134 284.692 295.034 284.832 294.978 284.994C294.923 285.155 294.914 285.331 294.953 285.5C294.993 285.669 295.079 285.825 295.201 285.949C295.323 286.072 295.476 286.159 295.643 286.198C302.295 288.092 303 296.819 315.203 293.063L318.028 298.188C318.653 299.225 320.111 298.42 319.568 297.34L316.315 291.437C313.568 282.413 302.446 278.789 295.268 284.59Z" fill="white"/>
<path d="M89.0494 -19.6415C88.943 -19.7793 88.801 -19.8843 88.6402 -19.9441C88.4795 -20.0039 88.3067 -20.016 88.1423 -19.979C83.6217 -18.9738 80.2356 -15.6629 79.1932 -11.2277C80.9165 -9.49713 82.2422 -7.36798 83.0141 -4.99924L84.384 -2.51341C91.7313 -8.41043 86.8548 -13.4184 89.1531 -18.6694C89.2286 -18.8217 89.2589 -18.9942 89.2405 -19.1665C89.2221 -19.3389 89.1558 -19.5037 89.0494 -19.6415ZM60.3386 -11.1601C60.2054 -11.0575 60.1049 -10.9172 60.0492 -10.7558C59.9935 -10.5943 59.9849 -10.4186 60.0244 -10.2494C60.0638 -10.0801 60.1497 -9.92445 60.2718 -9.80083C60.394 -9.67721 60.5473 -9.59082 60.7135 -9.55189C67.3661 -7.65787 68.0707 1.06985 80.2744 -2.68693L83.0992 2.43875C83.7236 3.47543 85.1816 2.67088 84.6386 1.59037L81.3855 -4.31253C78.6394 -13.3364 67.5169 -16.9608 60.3386 -11.1601Z" fill="white"/>
<path d="M119.978 10.1081C119.872 9.97028 119.73 9.86526 119.569 9.80546C119.409 9.74565 119.236 9.73357 119.071 9.77065C114.551 10.7758 111.165 14.0867 110.122 18.5219C111.845 20.2525 113.171 22.3816 113.943 24.7504L115.313 27.2362C122.66 21.3392 117.784 16.3312 120.082 11.0802C120.158 10.9279 120.188 10.7553 120.17 10.583C120.151 10.4107 120.085 10.2459 119.978 10.1081ZM91.2677 18.5895C91.1344 18.6921 91.034 18.8324 90.9783 18.9938C90.9226 19.1553 90.9139 19.331 90.9534 19.5002C90.9928 19.6695 91.0787 19.8251 91.2009 19.9488C91.323 20.0724 91.4763 20.1588 91.6426 20.1977C98.2952 22.0917 98.9998 30.8194 111.203 27.0627L114.028 32.1884C114.653 33.225 116.111 32.4205 115.568 31.34L112.315 25.4371C109.568 16.4132 98.4459 12.7888 91.2677 18.5895Z" fill="white"/>
<path d="M148.978 39.1081C148.872 38.9703 148.73 38.8652 148.569 38.8055C148.409 38.7457 148.236 38.7336 148.071 38.7706C143.551 39.7758 140.165 43.0867 139.122 47.5219C140.845 49.2525 142.171 51.3816 142.943 53.7504L144.313 56.2362C151.66 50.3392 146.784 45.3312 149.082 40.0802C149.158 39.9279 149.188 39.7553 149.17 39.583C149.151 39.4107 149.085 39.2459 148.978 39.1081ZM120.268 47.5895C120.134 47.6921 120.034 47.8324 119.978 47.9938C119.923 48.1553 119.914 48.331 119.953 48.5002C119.993 48.6695 120.079 48.8251 120.201 48.9488C120.323 49.0724 120.476 49.1588 120.643 49.1977C127.295 51.0917 128 59.8194 140.203 56.0627L143.028 61.1884C143.653 62.225 145.111 61.4205 144.568 60.34L141.315 54.4371C138.568 45.4132 127.446 41.7888 120.268 47.5895Z" fill="white"/>
<path d="M180.978 71.1081C180.872 70.9703 180.73 70.8652 180.569 70.8055C180.409 70.7457 180.236 70.7336 180.071 70.7706C175.551 71.7758 172.165 75.0867 171.122 79.5219C172.845 81.2525 174.171 83.3816 174.943 85.7503L176.313 88.2362C183.66 82.3392 178.784 77.3311 181.082 72.0802C181.158 71.9279 181.188 71.7553 181.17 71.583C181.151 71.4107 181.085 71.2459 180.978 71.1081ZM152.268 79.5895C152.134 79.6921 152.034 79.8324 151.978 79.9938C151.923 80.1552 151.914 80.331 151.953 80.5002C151.993 80.6695 152.079 80.8251 152.201 80.9488C152.323 81.0724 152.476 81.1588 152.643 81.1977C159.295 83.0917 160 91.8194 172.203 88.0627L175.028 93.1883C175.653 94.225 177.111 93.4205 176.568 92.34L173.315 86.4371C170.568 77.4132 159.446 73.7888 152.268 79.5895Z" fill="white"/>
<path d="M209.978 101.108C209.872 100.97 209.73 100.865 209.569 100.805C209.409 100.746 209.236 100.734 209.071 100.771C204.551 101.776 201.165 105.087 200.122 109.522C201.845 111.252 203.171 113.382 203.943 115.75L205.313 118.236C212.66 112.339 207.784 107.331 210.082 102.08C210.158 101.928 210.188 101.755 210.17 101.583C210.151 101.411 210.085 101.246 209.978 101.108ZM181.268 109.59C181.134 109.692 181.034 109.832 180.978 109.994C180.923 110.155 180.914 110.331 180.953 110.5C180.993 110.669 181.079 110.825 181.201 110.949C181.323 111.072 181.476 111.159 181.643 111.198C188.295 113.092 189 121.819 201.203 118.063L204.028 123.188C204.653 124.225 206.111 123.42 205.568 122.34L202.315 116.437C199.568 107.413 188.446 103.789 181.268 109.59Z" fill="white"/>
<path d="M240.978 130.108C240.872 129.97 240.73 129.865 240.569 129.805C240.409 129.746 240.236 129.734 240.071 129.771C235.551 130.776 232.165 134.087 231.122 138.522C232.845 140.252 234.171 142.382 234.943 144.75L236.313 147.236C243.66 141.339 238.784 136.331 241.082 131.08C241.158 130.928 241.188 130.755 241.17 130.583C241.151 130.411 241.085 130.246 240.978 130.108ZM212.268 138.59C212.134 138.692 212.034 138.832 211.978 138.994C211.923 139.155 211.914 139.331 211.953 139.5C211.993 139.669 212.079 139.825 212.201 139.949C212.323 140.072 212.476 140.159 212.643 140.198C219.295 142.092 220 150.819 232.203 147.063L235.028 152.188C235.653 153.225 237.111 152.42 236.568 151.34L233.315 145.437C230.568 136.413 219.446 132.789 212.268 138.59Z" fill="white"/>
<path d="M267.978 159.108C267.872 158.97 267.73 158.865 267.569 158.805C267.409 158.746 267.236 158.734 267.071 158.771C262.551 159.776 259.165 163.087 258.122 167.522C259.845 169.252 261.171 171.382 261.943 173.75L263.313 176.236C270.66 170.339 265.784 165.331 268.082 160.08C268.158 159.928 268.188 159.755 268.17 159.583C268.151 159.411 268.085 159.246 267.978 159.108ZM239.268 167.59C239.134 167.692 239.034 167.832 238.978 167.994C238.923 168.155 238.914 168.331 238.953 168.5C238.993 168.669 239.079 168.825 239.201 168.949C239.323 169.072 239.476 169.159 239.643 169.198C246.295 171.092 247 179.819 259.203 176.063L262.028 181.188C262.653 182.225 264.111 181.42 263.568 180.34L260.315 174.437C257.568 165.413 246.446 161.789 239.268 167.59Z" fill="white"/>
<path d="M298.978 189.108C298.872 188.97 298.73 188.865 298.569 188.805C298.409 188.746 298.236 188.734 298.071 188.771C293.551 189.776 290.165 193.087 289.122 197.522C290.845 199.252 292.171 201.382 292.943 203.75L294.313 206.236C301.66 200.339 296.784 195.331 299.082 190.08C299.158 189.928 299.188 189.755 299.17 189.583C299.151 189.411 299.085 189.246 298.978 189.108ZM270.268 197.59C270.134 197.692 270.034 197.832 269.978 197.994C269.923 198.155 269.914 198.331 269.953 198.5C269.993 198.669 270.079 198.825 270.201 198.949C270.323 199.072 270.476 199.159 270.643 199.198C277.295 201.092 278 209.819 290.203 206.063L293.028 211.188C293.653 212.225 295.111 211.42 294.568 210.34L291.315 204.437C288.568 195.413 277.446 191.789 270.268 197.59Z" fill="white"/>
<path d="M328.978 220.108C328.872 219.97 328.73 219.865 328.569 219.805C328.409 219.746 328.236 219.734 328.071 219.771C323.551 220.776 320.165 224.087 319.122 228.522C320.845 230.252 322.171 232.382 322.943 234.75L324.313 237.236C331.66 231.339 326.784 226.331 329.082 221.08C329.158 220.928 329.188 220.755 329.17 220.583C329.151 220.411 329.085 220.246 328.978 220.108ZM300.268 228.59C300.134 228.692 300.034 228.832 299.978 228.994C299.923 229.155 299.914 229.331 299.953 229.5C299.993 229.669 300.079 229.825 300.201 229.949C300.323 230.072 300.476 230.159 300.643 230.198C307.295 232.092 308 240.819 320.203 237.063L323.028 242.188C323.653 243.225 325.111 242.42 324.568 241.34L321.315 235.437C318.568 226.413 307.446 222.789 300.268 228.59Z" fill="white"/>
<path d="M356.978 248.108C356.872 247.97 356.73 247.865 356.569 247.805C356.409 247.746 356.236 247.734 356.071 247.771C351.551 248.776 348.165 252.087 347.122 256.522C348.845 258.252 350.171 260.382 350.943 262.75L352.313 265.236C359.66 259.339 354.784 254.331 357.082 249.08C357.158 248.928 357.188 248.755 357.17 248.583C357.151 248.411 357.085 248.246 356.978 248.108ZM328.268 256.59C328.134 256.692 328.034 256.832 327.978 256.994C327.923 257.155 327.914 257.331 327.953 257.5C327.993 257.669 328.079 257.825 328.201 257.949C328.323 258.072 328.476 258.159 328.643 258.198C335.295 260.092 336 268.819 348.203 265.063L351.028 270.188C351.653 271.225 353.111 270.42 352.568 269.34L349.315 263.437C346.568 254.413 335.446 250.789 328.268 256.59Z" fill="white"/>
<path d="M116.049 -52.6415C115.943 -52.7793 115.801 -52.8843 115.64 -52.9441C115.479 -53.0039 115.307 -53.016 115.142 -52.979C110.622 -51.9738 107.236 -48.6629 106.193 -44.2277C107.916 -42.4971 109.242 -40.368 110.014 -37.9992L111.384 -35.5134C118.731 -41.4104 113.855 -46.4184 116.153 -51.6694C116.229 -51.8217 116.259 -51.9942 116.24 -52.1665C116.222 -52.3389 116.156 -52.5037 116.049 -52.6415ZM87.3386 -44.1601C87.2054 -44.0575 87.1049 -43.9172 87.0492 -43.7558C86.9935 -43.5943 86.9849 -43.4186 87.0244 -43.2494C87.0638 -43.0801 87.1497 -42.9244 87.2718 -42.8008C87.394 -42.6772 87.5473 -42.5908 87.7135 -42.5519C94.3661 -40.6579 95.0707 -31.9302 107.274 -35.6869L110.099 -30.5612C110.724 -29.5246 112.182 -30.3291 111.639 -31.4096L108.386 -37.3125C105.639 -46.3364 94.5169 -49.9608 87.3386 -44.1601Z" fill="white"/>
<path d="M146.978 -22.8919C146.872 -23.0297 146.73 -23.1347 146.569 -23.1945C146.409 -23.2543 146.236 -23.2664 146.071 -23.2294C141.551 -22.2242 138.165 -18.9133 137.122 -14.4781C138.845 -12.7475 140.171 -10.6184 140.943 -8.24965L142.313 -5.76382C149.66 -11.6608 144.784 -16.6688 147.082 -21.9198C147.158 -22.0721 147.188 -22.2447 147.17 -22.417C147.151 -22.5893 147.085 -22.7541 146.978 -22.8919ZM118.268 -14.4105C118.134 -14.3079 118.034 -14.1676 117.978 -14.0062C117.923 -13.8447 117.914 -13.669 117.953 -13.4998C117.993 -13.3305 118.079 -13.1749 118.201 -13.0512C118.323 -12.9276 118.476 -12.8412 118.643 -12.8023C125.295 -10.9083 126 -2.18056 138.203 -5.93733L141.028 -0.811653C141.653 0.225029 143.111 -0.579521 142.568 -1.66003L139.315 -7.56294C136.568 -16.5868 125.446 -20.2112 118.268 -14.4105Z" fill="white"/>
<path d="M175.978 6.10809C175.872 5.97028 175.73 5.86526 175.569 5.80546C175.409 5.74565 175.236 5.73357 175.071 5.77065C170.551 6.77583 167.165 10.0867 166.122 14.5219C167.845 16.2525 169.171 18.3816 169.943 20.7504L171.313 23.2362C178.66 17.3392 173.784 12.3312 176.082 7.08023C176.158 6.9279 176.188 6.75535 176.17 6.58305C176.151 6.41074 176.085 6.2459 175.978 6.10809ZM147.268 14.5895C147.134 14.6921 147.034 14.8324 146.978 14.9938C146.923 15.1553 146.914 15.331 146.953 15.5002C146.993 15.6695 147.079 15.8251 147.201 15.9488C147.323 16.0724 147.476 16.1588 147.643 16.1977C154.295 18.0917 155 26.8194 167.203 23.0627L170.028 28.1884C170.653 29.225 172.111 28.4205 171.568 27.34L168.315 21.4371C165.568 12.4132 154.446 8.78883 147.268 14.5895Z" fill="white"/>
<path d="M207.978 38.1081C207.872 37.9703 207.73 37.8652 207.569 37.8055C207.409 37.7457 207.236 37.7336 207.071 37.7706C202.551 38.7758 199.165 42.0867 198.122 46.5219C199.845 48.2525 201.171 50.3816 201.943 52.7503L203.313 55.2362C210.66 49.3392 205.784 44.3311 208.082 39.0802C208.158 38.9279 208.188 38.7553 208.17 38.583C208.151 38.4107 208.085 38.2459 207.978 38.1081ZM179.268 46.5895C179.134 46.6921 179.034 46.8324 178.978 46.9938C178.923 47.1552 178.914 47.331 178.953 47.5002C178.993 47.6695 179.079 47.8251 179.201 47.9488C179.323 48.0724 179.476 48.1588 179.643 48.1977C186.295 50.0917 187 58.8194 199.203 55.0627L202.028 60.1883C202.653 61.225 204.111 60.4205 203.568 59.34L200.315 53.4371C197.568 44.4132 186.446 40.7888 179.268 46.5895Z" fill="white"/>
<path d="M236.978 68.1081C236.872 67.9703 236.73 67.8652 236.569 67.8055C236.409 67.7457 236.236 67.7336 236.071 67.7706C231.551 68.7758 228.165 72.0867 227.122 76.5219C228.845 78.2525 230.171 80.3816 230.943 82.7503L232.313 85.2362C239.66 79.3392 234.784 74.3311 237.082 69.0802C237.158 68.9279 237.188 68.7553 237.17 68.583C237.151 68.4107 237.085 68.2459 236.978 68.1081ZM208.268 76.5895C208.134 76.6921 208.034 76.8324 207.978 76.9938C207.923 77.1553 207.914 77.331 207.953 77.5002C207.993 77.6695 208.079 77.8251 208.201 77.9488C208.323 78.0724 208.476 78.1588 208.643 78.1977C215.295 80.0917 216 88.8194 228.203 85.0627L231.028 90.1883C231.653 91.225 233.111 90.4205 232.568 89.34L229.315 83.4371C226.568 74.4132 215.446 70.7888 208.268 76.5895Z" fill="white"/>
<path d="M267.978 97.1081C267.872 96.9703 267.73 96.8652 267.569 96.8055C267.409 96.7457 267.236 96.7336 267.071 96.7706C262.551 97.7758 259.165 101.087 258.122 105.522C259.845 107.252 261.171 109.382 261.943 111.75L263.313 114.236C270.66 108.339 265.784 103.331 268.082 98.0802C268.158 97.9279 268.188 97.7553 268.17 97.583C268.151 97.4107 268.085 97.2459 267.978 97.1081ZM239.268 105.59C239.134 105.692 239.034 105.832 238.978 105.994C238.923 106.155 238.914 106.331 238.953 106.5C238.993 106.669 239.079 106.825 239.201 106.949C239.323 107.072 239.476 107.159 239.643 107.198C246.295 109.092 247 117.819 259.203 114.063L262.028 119.188C262.653 120.225 264.111 119.42 263.568 118.34L260.315 112.437C257.568 103.413 246.446 99.7888 239.268 105.59Z" fill="white"/>
<path d="M294.978 126.108C294.872 125.97 294.73 125.865 294.569 125.805C294.409 125.746 294.236 125.734 294.071 125.771C289.551 126.776 286.165 130.087 285.122 134.522C286.845 136.252 288.171 138.382 288.943 140.75L290.313 143.236C297.66 137.339 292.784 132.331 295.082 127.08C295.158 126.928 295.188 126.755 295.17 126.583C295.151 126.411 295.085 126.246 294.978 126.108ZM266.268 134.59C266.134 134.692 266.034 134.832 265.978 134.994C265.923 135.155 265.914 135.331 265.953 135.5C265.993 135.669 266.079 135.825 266.201 135.949C266.323 136.072 266.476 136.159 266.643 136.198C273.295 138.092 274 146.819 286.203 143.063L289.028 148.188C289.653 149.225 291.111 148.42 290.568 147.34L287.315 141.437C284.568 132.413 273.446 128.789 266.268 134.59Z" fill="white"/>
<path d="M325.978 156.108C325.872 155.97 325.73 155.865 325.569 155.805C325.409 155.746 325.236 155.734 325.071 155.771C320.551 156.776 317.165 160.087 316.122 164.522C317.845 166.252 319.171 168.382 319.943 170.75L321.313 173.236C328.66 167.339 323.784 162.331 326.082 157.08C326.158 156.928 326.188 156.755 326.17 156.583C326.151 156.411 326.085 156.246 325.978 156.108ZM297.268 164.59C297.134 164.692 297.034 164.832 296.978 164.994C296.923 165.155 296.914 165.331 296.953 165.5C296.993 165.669 297.079 165.825 297.201 165.949C297.323 166.072 297.476 166.159 297.643 166.198C304.295 168.092 305 176.819 317.203 173.063L320.028 178.188C320.653 179.225 322.111 178.42 321.568 177.34L318.315 171.437C315.568 162.413 304.446 158.789 297.268 164.59Z" fill="white"/>
<path d="M355.978 187.108C355.872 186.97 355.73 186.865 355.569 186.805C355.409 186.746 355.236 186.734 355.071 186.771C350.551 187.776 347.165 191.087 346.122 195.522C347.845 197.252 349.171 199.382 349.943 201.75L351.313 204.236C358.66 198.339 353.784 193.331 356.082 188.08C356.158 187.928 356.188 187.755 356.17 187.583C356.151 187.411 356.085 187.246 355.978 187.108ZM327.268 195.59C327.134 195.692 327.034 195.832 326.978 195.994C326.923 196.155 326.914 196.331 326.953 196.5C326.993 196.669 327.079 196.825 327.201 196.949C327.323 197.072 327.476 197.159 327.643 197.198C334.295 199.092 335 207.819 347.203 204.063L350.028 209.188C350.653 210.225 352.111 209.42 351.568 208.34L348.315 202.437C345.568 193.413 334.446 189.789 327.268 195.59Z" fill="white"/>
<path d="M383.978 215.108C383.872 214.97 383.73 214.865 383.569 214.805C383.409 214.746 383.236 214.734 383.071 214.771C378.551 215.776 375.165 219.087 374.122 223.522C375.845 225.252 377.171 227.382 377.943 229.75L379.313 232.236C386.66 226.339 381.784 221.331 384.082 216.08C384.158 215.928 384.188 215.755 384.17 215.583C384.151 215.411 384.085 215.246 383.978 215.108ZM355.268 223.59C355.134 223.692 355.034 223.832 354.978 223.994C354.923 224.155 354.914 224.331 354.953 224.5C354.993 224.669 355.079 224.825 355.201 224.949C355.323 225.072 355.476 225.159 355.643 225.198C362.295 227.092 363 235.819 375.203 232.063L378.028 237.188C378.653 238.225 380.111 237.42 379.568 236.34L376.315 230.437C373.568 221.413 362.446 217.789 355.268 223.59Z" fill="white"/>
<path d="M145.049 -85.6415C144.943 -85.7793 144.801 -85.8843 144.64 -85.9441C144.479 -86.0039 144.307 -86.016 144.142 -85.979C139.622 -84.9738 136.236 -81.6629 135.193 -77.2277C136.916 -75.4971 138.242 -73.368 139.014 -70.9992L140.384 -68.5134C147.731 -74.4104 142.855 -79.4184 145.153 -84.6694C145.229 -84.8217 145.259 -84.9942 145.24 -85.1665C145.222 -85.3389 145.156 -85.5037 145.049 -85.6415ZM116.339 -77.1601C116.205 -77.0575 116.105 -76.9172 116.049 -76.7558C115.994 -76.5943 115.985 -76.4186 116.024 -76.2493C116.064 -76.0801 116.15 -75.9244 116.272 -75.8008C116.394 -75.6772 116.547 -75.5908 116.714 -75.5519C123.366 -73.6579 124.071 -64.9302 136.274 -68.6869L139.099 -63.5612C139.724 -62.5246 141.182 -63.3291 140.639 -64.4096L137.386 -70.3125C134.639 -79.3364 123.517 -82.9608 116.339 -77.1601Z" fill="white"/>
<path d="M175.978 -55.8919C175.872 -56.0297 175.73 -56.1347 175.569 -56.1945C175.409 -56.2543 175.236 -56.2664 175.071 -56.2294C170.551 -55.2242 167.165 -51.9133 166.122 -47.4781C167.845 -45.7475 169.171 -43.6184 169.943 -41.2496L171.313 -38.7638C178.66 -44.6608 173.784 -49.6688 176.082 -54.9198C176.158 -55.0721 176.188 -55.2446 176.17 -55.417C176.151 -55.5893 176.085 -55.7541 175.978 -55.8919ZM147.268 -47.4105C147.134 -47.3079 147.034 -47.1676 146.978 -47.0062C146.923 -46.8447 146.914 -46.669 146.953 -46.4998C146.993 -46.3305 147.079 -46.1749 147.201 -46.0512C147.323 -45.9276 147.476 -45.8412 147.643 -45.8023C154.295 -43.9083 155 -35.1806 167.203 -38.9373L170.028 -33.8117C170.653 -32.775 172.111 -33.5795 171.568 -34.66L168.315 -40.5629C165.568 -49.5868 154.446 -53.2112 147.268 -47.4105Z" fill="white"/>
<path d="M204.978 -26.8919C204.872 -27.0297 204.73 -27.1347 204.569 -27.1945C204.409 -27.2543 204.236 -27.2664 204.071 -27.2294C199.551 -26.2242 196.165 -22.9133 195.122 -18.4781C196.845 -16.7475 198.171 -14.6184 198.943 -12.2496L200.313 -9.76381C207.66 -15.6608 202.784 -20.6688 205.082 -25.9198C205.158 -26.0721 205.188 -26.2447 205.17 -26.417C205.151 -26.5893 205.085 -26.7541 204.978 -26.8919ZM176.268 -18.4105C176.134 -18.3079 176.034 -18.1676 175.978 -18.0062C175.923 -17.8447 175.914 -17.669 175.953 -17.4997C175.993 -17.3305 176.079 -17.1749 176.201 -17.0512C176.323 -16.9276 176.476 -16.8412 176.643 -16.8023C183.295 -14.9083 184 -6.18056 196.203 -9.93733L199.028 -4.81165C199.653 -3.77496 201.111 -4.57952 200.568 -5.66003L197.315 -11.5629C194.568 -20.5868 183.446 -24.2112 176.268 -18.4105Z" fill="white"/>
<path d="M236.978 5.10808C236.872 4.97028 236.73 4.86526 236.569 4.80545C236.409 4.74564 236.236 4.73357 236.071 4.77064C231.551 5.77583 228.165 9.08672 227.122 13.5219C228.845 15.2525 230.171 17.3816 230.943 19.7503L232.313 22.2362C239.66 16.3392 234.784 11.3311 237.082 6.08022C237.158 5.92789 237.188 5.75534 237.17 5.58304C237.151 5.41074 237.085 5.2459 236.978 5.10808ZM208.268 13.5895C208.134 13.6921 208.034 13.8324 207.978 13.9938C207.923 14.1552 207.914 14.331 207.953 14.5002C207.993 14.6695 208.079 14.8251 208.201 14.9488C208.323 15.0724 208.476 15.1588 208.643 15.1977C215.295 17.0917 216 25.8194 228.203 22.0627L231.028 27.1883C231.653 28.225 233.111 27.4205 232.568 26.34L229.315 20.4371C226.568 11.4132 215.446 7.78882 208.268 13.5895Z" fill="white"/>
<path d="M265.978 35.1081C265.872 34.9703 265.73 34.8652 265.569 34.8055C265.409 34.7457 265.236 34.7336 265.071 34.7706C260.551 35.7758 257.165 39.0867 256.122 43.5219C257.845 45.2525 259.171 47.3816 259.943 49.7503L261.313 52.2362C268.66 46.3392 263.784 41.3311 266.082 36.0802C266.158 35.9279 266.188 35.7553 266.17 35.583C266.151 35.4107 266.085 35.2459 265.978 35.1081ZM237.268 43.5895C237.134 43.6921 237.034 43.8324 236.978 43.9938C236.923 44.1553 236.914 44.331 236.953 44.5002C236.993 44.6695 237.079 44.8251 237.201 44.9488C237.323 45.0724 237.476 45.1588 237.643 45.1977C244.295 47.0917 245 55.8194 257.203 52.0627L260.028 57.1883C260.653 58.225 262.111 57.4205 261.568 56.34L258.315 50.4371C255.568 41.4132 244.446 37.7888 237.268 43.5895Z" fill="white"/>
<path d="M296.978 64.1081C296.872 63.9703 296.73 63.8652 296.569 63.8055C296.409 63.7457 296.236 63.7336 296.071 63.7706C291.551 64.7758 288.165 68.0867 287.122 72.5219C288.845 74.2525 290.171 76.3816 290.943 78.7503L292.313 81.2362C299.66 75.3392 294.784 70.3312 297.082 65.0802C297.158 64.9279 297.188 64.7553 297.17 64.583C297.151 64.4107 297.085 64.2459 296.978 64.1081ZM268.268 72.5895C268.134 72.6921 268.034 72.8324 267.978 72.9938C267.923 73.1553 267.914 73.331 267.953 73.5002C267.993 73.6695 268.079 73.8251 268.201 73.9488C268.323 74.0724 268.476 74.1588 268.643 74.1977C275.295 76.0917 276 84.8194 288.203 81.0627L291.028 86.1883C291.653 87.225 293.111 86.4205 292.568 85.34L289.315 79.4371C286.568 70.4132 275.446 66.7888 268.268 72.5895Z" fill="white"/>
<path d="M323.978 93.1081C323.872 92.9703 323.73 92.8652 323.569 92.8055C323.409 92.7457 323.236 92.7336 323.071 92.7706C318.551 93.7758 315.165 97.0867 314.122 101.522C315.845 103.252 317.171 105.382 317.943 107.75L319.313 110.236C326.66 104.339 321.784 99.3312 324.082 94.0802C324.158 93.9279 324.188 93.7553 324.17 93.583C324.151 93.4107 324.085 93.2459 323.978 93.1081ZM295.268 101.59C295.134 101.692 295.034 101.832 294.978 101.994C294.923 102.155 294.914 102.331 294.953 102.5C294.993 102.669 295.079 102.825 295.201 102.949C295.323 103.072 295.476 103.159 295.643 103.198C302.295 105.092 303 113.819 315.203 110.063L318.028 115.188C318.653 116.225 320.111 115.42 319.568 114.34L316.315 108.437C313.568 99.4132 302.446 95.7888 295.268 101.59Z" fill="white"/>
<path d="M354.978 123.108C354.872 122.97 354.73 122.865 354.569 122.805C354.409 122.746 354.236 122.734 354.071 122.771C349.551 123.776 346.165 127.087 345.122 131.522C346.845 133.252 348.171 135.382 348.943 137.75L350.313 140.236C357.66 134.339 352.784 129.331 355.082 124.08C355.158 123.928 355.188 123.755 355.17 123.583C355.151 123.411 355.085 123.246 354.978 123.108ZM326.268 131.59C326.134 131.692 326.034 131.832 325.978 131.994C325.923 132.155 325.914 132.331 325.953 132.5C325.993 132.669 326.079 132.825 326.201 132.949C326.323 133.072 326.476 133.159 326.643 133.198C333.295 135.092 334 143.819 346.203 140.063L349.028 145.188C349.653 146.225 351.111 145.42 350.568 144.34L347.315 138.437C344.568 129.413 333.446 125.789 326.268 131.59Z" fill="white"/>
<path d="M384.978 154.108C384.872 153.97 384.73 153.865 384.569 153.805C384.409 153.746 384.236 153.734 384.071 153.771C379.551 154.776 376.165 158.087 375.122 162.522C376.845 164.252 378.171 166.382 378.943 168.75L380.313 171.236C387.66 165.339 382.784 160.331 385.082 155.08C385.158 154.928 385.188 154.755 385.17 154.583C385.151 154.411 385.085 154.246 384.978 154.108ZM356.268 162.59C356.134 162.692 356.034 162.832 355.978 162.994C355.923 163.155 355.914 163.331 355.953 163.5C355.993 163.669 356.079 163.825 356.201 163.949C356.323 164.072 356.476 164.159 356.643 164.198C363.295 166.092 364 174.819 376.203 171.063L379.028 176.188C379.653 177.225 381.111 176.42 380.568 175.34L377.315 169.437C374.568 160.413 363.446 156.789 356.268 162.59Z" fill="white"/>
<path d="M412.978 182.108C412.872 181.97 412.73 181.865 412.569 181.805C412.409 181.746 412.236 181.734 412.071 181.771C407.551 182.776 404.165 186.087 403.122 190.522C404.845 192.252 406.171 194.382 406.943 196.75L408.313 199.236C415.66 193.339 410.784 188.331 413.082 183.08C413.158 182.928 413.188 182.755 413.17 182.583C413.151 182.411 413.085 182.246 412.978 182.108ZM384.268 190.59C384.134 190.692 384.034 190.832 383.978 190.994C383.923 191.155 383.914 191.331 383.953 191.5C383.993 191.669 384.079 191.825 384.201 191.949C384.323 192.072 384.476 192.159 384.643 192.198C391.295 194.092 392 202.819 404.203 199.063L407.028 204.188C407.653 205.225 409.111 204.42 408.568 203.34L405.315 197.437C402.568 188.413 391.446 184.789 384.268 190.59Z" fill="white"/>
<path d="M176.049 -112.642C175.943 -112.779 175.801 -112.884 175.64 -112.944C175.479 -113.004 175.307 -113.016 175.142 -112.979C170.622 -111.974 167.236 -108.663 166.193 -104.228C167.916 -102.497 169.242 -100.368 170.014 -97.9992L171.384 -95.5134C178.731 -101.41 173.855 -106.418 176.153 -111.669C176.229 -111.822 176.259 -111.994 176.241 -112.167C176.222 -112.339 176.156 -112.504 176.049 -112.642ZM147.339 -104.16C147.205 -104.057 147.105 -103.917 147.049 -103.756C146.994 -103.594 146.985 -103.419 147.024 -103.249C147.064 -103.08 147.15 -102.924 147.272 -102.801C147.394 -102.677 147.547 -102.591 147.714 -102.552C154.366 -100.658 155.071 -91.9302 167.274 -95.6869L170.099 -90.5612C170.724 -89.5246 172.182 -90.3291 171.639 -91.4096L168.386 -97.3125C165.639 -106.336 154.517 -109.961 147.339 -104.16Z" fill="white"/>
<path d="M206.978 -82.8919C206.872 -83.0297 206.73 -83.1347 206.569 -83.1945C206.409 -83.2543 206.236 -83.2664 206.071 -83.2294C201.551 -82.2242 198.165 -78.9133 197.122 -74.4781C198.845 -72.7475 200.171 -70.6184 200.943 -68.2496L202.313 -65.7638C209.66 -71.6608 204.784 -76.6688 207.082 -81.9198C207.158 -82.0721 207.188 -82.2446 207.17 -82.417C207.151 -82.5893 207.085 -82.7541 206.978 -82.8919ZM178.268 -74.4105C178.134 -74.3079 178.034 -74.1676 177.978 -74.0062C177.923 -73.8447 177.914 -73.669 177.953 -73.4998C177.993 -73.3305 178.079 -73.1748 178.201 -73.0512C178.323 -72.9276 178.476 -72.8412 178.643 -72.8023C185.295 -70.9083 186 -62.1806 198.203 -65.9373L201.028 -60.8116C201.653 -59.775 203.111 -60.5795 202.568 -61.66L199.315 -67.5629C196.568 -76.5868 185.446 -80.2112 178.268 -74.4105Z" fill="white"/>
<path d="M235.978 -53.8919C235.872 -54.0297 235.73 -54.1347 235.569 -54.1945C235.409 -54.2543 235.236 -54.2664 235.071 -54.2294C230.551 -53.2242 227.165 -49.9133 226.122 -45.4781C227.845 -43.7475 229.171 -41.6184 229.943 -39.2496L231.313 -36.7638C238.66 -42.6608 233.784 -47.6688 236.082 -52.9198C236.158 -53.0721 236.188 -53.2446 236.17 -53.417C236.151 -53.5893 236.085 -53.7541 235.978 -53.8919ZM207.268 -45.4105C207.134 -45.3079 207.034 -45.1676 206.978 -45.0062C206.923 -44.8447 206.914 -44.669 206.953 -44.4997C206.993 -44.3305 207.079 -44.1749 207.201 -44.0512C207.323 -43.9276 207.476 -43.8412 207.643 -43.8023C214.295 -41.9083 215 -33.1806 227.203 -36.9373L230.028 -31.8116C230.653 -30.775 232.111 -31.5795 231.568 -32.66L228.315 -38.5629C225.568 -47.5868 214.446 -51.2112 207.268 -45.4105Z" fill="white"/>
<path d="M267.978 -21.8919C267.872 -22.0297 267.73 -22.1347 267.569 -22.1945C267.409 -22.2544 267.236 -22.2664 267.071 -22.2294C262.551 -21.2242 259.165 -17.9133 258.122 -13.4781C259.845 -11.7475 261.171 -9.61839 261.943 -7.24966L263.313 -4.76382C270.66 -10.6608 265.784 -15.6689 268.082 -20.9198C268.158 -21.0721 268.188 -21.2447 268.17 -21.417C268.151 -21.5893 268.085 -21.7541 267.978 -21.8919ZM239.268 -13.4105C239.134 -13.3079 239.034 -13.1676 238.978 -13.0062C238.923 -12.8448 238.914 -12.669 238.953 -12.4998C238.993 -12.3305 239.079 -12.1749 239.201 -12.0512C239.323 -11.9276 239.476 -11.8412 239.643 -11.8023C246.295 -9.90828 247 -1.18056 259.203 -4.93734L262.028 0.188347C262.653 1.22503 264.111 0.420471 263.568 -0.660042L260.315 -6.56294C257.568 -15.5868 246.446 -19.2112 239.268 -13.4105Z" fill="white"/>
<path d="M296.978 8.10808C296.872 7.97028 296.73 7.86526 296.569 7.80545C296.409 7.74564 296.236 7.73357 296.071 7.77064C291.551 8.77583 288.165 12.0867 287.122 16.5219C288.845 18.2525 290.171 20.3816 290.943 22.7503L292.313 25.2362C299.66 19.3392 294.784 14.3311 297.082 9.08022C297.158 8.92789 297.188 8.75534 297.17 8.58304C297.151 8.41074 297.085 8.2459 296.978 8.10808ZM268.268 16.5895C268.134 16.6921 268.034 16.8324 267.978 16.9938C267.923 17.1553 267.914 17.331 267.953 17.5002C267.993 17.6695 268.079 17.8251 268.201 17.9488C268.323 18.0724 268.476 18.1588 268.643 18.1977C275.295 20.0917 276 28.8194 288.203 25.0627L291.028 30.1883C291.653 31.225 293.111 30.4205 292.568 29.34L289.315 23.4371C286.568 14.4132 275.446 10.7888 268.268 16.5895Z" fill="white"/>
<path d="M327.978 37.1081C327.872 36.9703 327.73 36.8652 327.569 36.8055C327.409 36.7457 327.236 36.7336 327.071 36.7706C322.551 37.7758 319.165 41.0867 318.122 45.5219C319.845 47.2525 321.171 49.3816 321.943 51.7503L323.313 54.2362C330.66 48.3392 325.784 43.3312 328.082 38.0802C328.158 37.9279 328.188 37.7553 328.17 37.583C328.151 37.4107 328.085 37.2459 327.978 37.1081ZM299.268 45.5895C299.134 45.6921 299.034 45.8324 298.978 45.9938C298.923 46.1553 298.914 46.331 298.953 46.5002C298.993 46.6695 299.079 46.8251 299.201 46.9488C299.323 47.0724 299.476 47.1588 299.643 47.1977C306.295 49.0917 307 57.8194 319.203 54.0627L322.028 59.1883C322.653 60.225 324.111 59.4205 323.568 58.34L320.315 52.4371C317.568 43.4132 306.446 39.7888 299.268 45.5895Z" fill="white"/>
<path d="M354.978 66.1081C354.872 65.9703 354.73 65.8652 354.569 65.8055C354.409 65.7457 354.236 65.7336 354.071 65.7706C349.551 66.7758 346.165 70.0867 345.122 74.5219C346.845 76.2525 348.171 78.3816 348.943 80.7503L350.313 83.2362C357.66 77.3392 352.784 72.3312 355.082 67.0802C355.158 66.9279 355.188 66.7553 355.17 66.583C355.151 66.4107 355.085 66.2459 354.978 66.1081ZM326.268 74.5895C326.134 74.6921 326.034 74.8324 325.978 74.9938C325.923 75.1553 325.914 75.331 325.953 75.5002C325.993 75.6695 326.079 75.8251 326.201 75.9488C326.323 76.0724 326.476 76.1588 326.643 76.1977C333.295 78.0917 334 86.8194 346.203 83.0627L349.028 88.1883C349.653 89.225 351.111 88.4205 350.568 87.34L347.315 81.4371C344.568 72.4132 333.446 68.7888 326.268 74.5895Z" fill="white"/>
<path d="M385.978 96.1081C385.872 95.9703 385.73 95.8652 385.569 95.8055C385.409 95.7457 385.236 95.7336 385.071 95.7706C380.551 96.7758 377.165 100.087 376.122 104.522C377.845 106.252 379.171 108.382 379.943 110.75L381.313 113.236C388.66 107.339 383.784 102.331 386.082 97.0802C386.158 96.9279 386.188 96.7553 386.17 96.583C386.151 96.4107 386.085 96.2459 385.978 96.1081ZM357.268 104.59C357.134 104.692 357.034 104.832 356.978 104.994C356.923 105.155 356.914 105.331 356.953 105.5C356.993 105.669 357.079 105.825 357.201 105.949C357.323 106.072 357.476 106.159 357.643 106.198C364.295 108.092 365 116.819 377.203 113.063L380.028 118.188C380.653 119.225 382.111 118.42 381.568 117.34L378.315 111.437C375.568 102.413 364.446 98.7888 357.268 104.59Z" fill="white"/>
<path d="M415.978 127.108C415.872 126.97 415.73 126.865 415.569 126.805C415.409 126.746 415.236 126.734 415.071 126.771C410.551 127.776 407.165 131.087 406.122 135.522C407.845 137.252 409.171 139.382 409.943 141.75L411.313 144.236C418.66 138.339 413.784 133.331 416.082 128.08C416.158 127.928 416.188 127.755 416.169 127.583C416.151 127.411 416.085 127.246 415.978 127.108ZM387.268 135.59C387.134 135.692 387.034 135.832 386.978 135.994C386.923 136.155 386.914 136.331 386.953 136.5C386.993 136.669 387.079 136.825 387.201 136.949C387.323 137.072 387.476 137.159 387.643 137.198C394.295 139.092 395 147.819 407.203 144.063L410.028 149.188C410.653 150.225 412.111 149.42 411.568 148.34L408.315 142.437C405.568 133.413 394.446 129.789 387.268 135.59Z" fill="white"/>
<path d="M443.978 155.108C443.872 154.97 443.73 154.865 443.569 154.805C443.409 154.746 443.236 154.734 443.071 154.771C438.551 155.776 435.165 159.087 434.122 163.522C435.845 165.252 437.171 167.382 437.943 169.75L439.313 172.236C446.66 166.339 441.784 161.331 444.082 156.08C444.158 155.928 444.188 155.755 444.169 155.583C444.151 155.411 444.085 155.246 443.978 155.108ZM415.268 163.59C415.134 163.692 415.034 163.832 414.978 163.994C414.923 164.155 414.914 164.331 414.953 164.5C414.993 164.669 415.079 164.825 415.201 164.949C415.323 165.072 415.476 165.159 415.643 165.198C422.295 167.092 423 175.819 435.203 172.063L438.028 177.188C438.653 178.225 440.111 177.42 439.568 176.34L436.315 170.437C433.568 161.413 422.446 157.789 415.268 163.59Z" fill="white"/>
</g>
</g>
</svg>
