<svg width="300" height="420" viewBox="0 0 300 420" fill="none" xmlns="http://www.w3.org/2000/svg">
<mask id="mask0_560_693" style="mask-type:alpha" maskUnits="userSpaceOnUse" x="0" y="0" width="300" height="420">
<rect width="300" height="420" rx="8" fill="white"/>
</mask>
<g mask="url(#mask0_560_693)">
<rect width="300" height="420" rx="8" fill="#596AFF"/>
<g opacity="0.1">
<path d="M19.5122 48.8249L12.1488 51.1688L13.7982 56.3506L21.1616 54.0067L19.5122 48.8249Z" fill="white"/>
<path d="M23.5285 55.221L20.7416 46.4658L11.58 49.3821L11.1907 48.1589C10.7829 46.8777 10.9114 45.5519 11.4494 44.4207L11.442 44.3974L24.0577 40.3817L24.065 40.4049C25.1577 41.017 26.029 42.0246 26.4368 43.3058L30.9526 57.4924L15.7064 62.3455L14.3669 58.1373L23.5285 55.221ZM22.2377 34.6643L9.62207 38.6801L10.8733 42.6107L23.4889 38.595L22.2377 34.6643ZM10.1557 36.5425C10.4311 35.4879 10.4644 34.375 10.2413 33.3036L9.69427 30.6771L17.5524 28.1758L18.6245 30.6352C19.0617 31.6384 19.7323 32.5275 20.5666 33.2285L10.1557 36.5425Z" fill="white"/>
<path d="M47.5121 78.8249L40.1488 81.1688L41.7982 86.3506L49.1616 84.0067L47.5121 78.8249Z" fill="white"/>
<path d="M51.5285 85.221L48.7416 76.4658L39.58 79.3821L39.1907 78.1589C38.7829 76.8777 38.9114 75.5519 39.4494 74.4207L39.442 74.3974L52.0576 70.3817L52.065 70.4049C53.1577 71.017 54.029 72.0246 54.4368 73.3058L58.9526 87.4924L43.7064 92.3455L42.3669 88.1373L51.5285 85.221ZM50.2377 64.6643L37.6221 68.6801L38.8733 72.6107L51.4889 68.595L50.2377 64.6643ZM38.1557 66.5425C38.4311 65.4879 38.4644 64.375 38.2413 63.3036L37.6943 60.6771L45.5524 58.1758L46.6245 60.6352C47.0617 61.6384 47.7323 62.5275 48.5666 63.2285L38.1557 66.5425Z" fill="white"/>
<path d="M79.5121 108.825L72.1488 111.169L73.7982 116.351L81.1616 114.007L79.5121 108.825Z" fill="white"/>
<path d="M83.5285 115.221L80.7416 106.466L71.58 109.382L71.1907 108.159C70.7829 106.878 70.9114 105.552 71.4494 104.421L71.442 104.397L84.0576 100.382L84.065 100.405C85.1577 101.017 86.029 102.025 86.4368 103.306L90.9526 117.492L75.7064 122.345L74.3669 118.137L83.5285 115.221ZM82.2377 94.6643L69.6221 98.6801L70.8733 102.611L83.4889 98.595L82.2377 94.6643ZM70.1557 96.5425C70.4311 95.4879 70.4644 94.375 70.2413 93.3036L69.6943 90.6771L77.5523 88.1758L78.6245 90.6352C79.0617 91.6384 79.7323 92.5275 80.5666 93.2285L70.1557 96.5425Z" fill="white"/>
<path d="M109.512 136.825L102.149 139.169L103.798 144.351L111.162 142.007L109.512 136.825Z" fill="white"/>
<path d="M113.529 143.221L110.742 134.466L101.58 137.382L101.191 136.159C100.783 134.878 100.911 133.552 101.449 132.421L101.442 132.397L114.058 128.382L114.065 128.405C115.158 129.017 116.029 130.025 116.437 131.306L120.953 145.492L105.706 150.345L104.367 146.137L113.529 143.221ZM112.238 122.664L99.6221 126.68L100.873 130.611L113.489 126.595L112.238 122.664ZM100.156 124.542C100.431 123.488 100.464 122.375 100.241 121.304L99.6943 118.677L107.552 116.176L108.625 118.635C109.062 119.638 109.732 120.527 110.567 121.229L100.156 124.542Z" fill="white"/>
<path d="M138.512 166.825L131.149 169.169L132.798 174.351L140.162 172.007L138.512 166.825Z" fill="white"/>
<path d="M142.529 173.221L139.742 164.466L130.58 167.382L130.191 166.159C129.783 164.878 129.911 163.552 130.449 162.421L130.442 162.397L143.058 158.382L143.065 158.405C144.158 159.017 145.029 160.025 145.437 161.306L149.953 175.492L134.706 180.345L133.367 176.137L142.529 173.221ZM141.238 152.664L128.622 156.68L129.873 160.611L142.489 156.595L141.238 152.664ZM129.156 154.542C129.431 153.488 129.464 152.375 129.241 151.304L128.694 148.677L136.552 146.176L137.625 148.635C138.062 149.638 138.732 150.527 139.567 151.229L129.156 154.542Z" fill="white"/>
<path d="M170.512 196.825L163.149 199.169L164.798 204.351L172.162 202.007L170.512 196.825Z" fill="white"/>
<path d="M174.529 203.221L171.742 194.466L162.58 197.382L162.191 196.159C161.783 194.878 161.911 193.552 162.449 192.421L162.442 192.397L175.058 188.382L175.065 188.405C176.158 189.017 177.029 190.025 177.437 191.306L181.953 205.492L166.706 210.345L165.367 206.137L174.529 203.221ZM173.238 182.664L160.622 186.68L161.873 190.611L174.489 186.595L173.238 182.664ZM161.156 184.542C161.431 183.488 161.464 182.375 161.241 181.304L160.694 178.677L168.552 176.176L169.625 178.635C170.062 179.638 170.732 180.527 171.567 181.229L161.156 184.542Z" fill="white"/>
<path d="M198.512 226.825L191.149 229.169L192.798 234.351L200.162 232.007L198.512 226.825Z" fill="white"/>
<path d="M202.529 233.221L199.742 224.466L190.58 227.382L190.191 226.159C189.783 224.878 189.911 223.552 190.449 222.421L190.442 222.397L203.058 218.382L203.065 218.405C204.158 219.017 205.029 220.025 205.437 221.306L209.953 235.492L194.706 240.345L193.367 236.137L202.529 233.221ZM201.238 212.664L188.622 216.68L189.873 220.611L202.489 216.595L201.238 212.664ZM189.156 214.542C189.431 213.488 189.464 212.375 189.241 211.304L188.694 208.677L196.552 206.176L197.625 208.635C198.062 209.638 198.732 210.527 199.567 211.229L189.156 214.542Z" fill="white"/>
<path d="M229.512 256.825L222.149 259.169L223.798 264.351L231.162 262.007L229.512 256.825Z" fill="white"/>
<path d="M233.529 263.221L230.742 254.466L221.58 257.382L221.191 256.159C220.783 254.878 220.911 253.552 221.449 252.421L221.442 252.397L234.058 248.382L234.065 248.405C235.158 249.017 236.029 250.025 236.437 251.306L240.953 265.492L225.706 270.345L224.367 266.137L233.529 263.221ZM232.238 242.664L219.622 246.68L220.873 250.611L233.489 246.595L232.238 242.664ZM220.156 244.542C220.431 243.488 220.464 242.375 220.241 241.304L219.694 238.677L227.552 236.176L228.625 238.635C229.062 239.638 229.732 240.527 230.567 241.229L220.156 244.542Z" fill="white"/>
<path d="M259.512 286.825L252.149 289.169L253.798 294.351L261.162 292.007L259.512 286.825Z" fill="white"/>
<path d="M263.529 293.221L260.742 284.466L251.58 287.382L251.191 286.159C250.783 284.878 250.911 283.552 251.449 282.421L251.442 282.397L264.058 278.382L264.065 278.405C265.158 279.017 266.029 280.025 266.437 281.306L270.953 295.492L255.706 300.345L254.367 296.137L263.529 293.221ZM262.238 272.664L249.622 276.68L250.873 280.611L263.489 276.595L262.238 272.664ZM250.156 274.542C250.431 273.488 250.464 272.375 250.241 271.304L249.694 268.677L257.552 266.176L258.625 268.635C259.062 269.638 259.732 270.527 260.567 271.229L250.156 274.542Z" fill="white"/>
<path d="M288.512 316.825L281.149 319.169L282.798 324.351L290.162 322.007L288.512 316.825Z" fill="white"/>
<path d="M292.529 323.221L289.742 314.466L280.58 317.382L280.191 316.159C279.783 314.878 279.911 313.552 280.449 312.421L280.442 312.397L293.058 308.382L293.065 308.405C294.158 309.017 295.029 310.025 295.437 311.306L299.953 325.492L284.706 330.345L283.367 326.137L292.529 323.221ZM291.238 302.664L278.622 306.68L279.873 310.611L292.489 306.595L291.238 302.664ZM279.156 304.542C279.431 303.488 279.464 302.375 279.241 301.304L278.694 298.677L286.552 296.176L287.625 298.635C288.062 299.638 288.732 300.527 289.567 301.229L279.156 304.542Z" fill="white"/>
<path d="M46.8901 20.6491L39.5267 22.993L41.1761 28.1748L48.5395 25.8309L46.8901 20.6491Z" fill="white"/>
<path d="M50.9064 27.0452L48.1196 18.29L38.958 21.2063L38.5686 19.9831C38.1608 18.7019 38.2893 17.3761 38.8273 16.2449L38.8199 16.2217L51.4356 12.2059L51.443 12.2291C52.5357 12.8412 53.4069 13.8488 53.8148 15.13L58.3306 29.3166L43.0843 34.1697L41.7448 29.9615L50.9064 27.0452ZM49.6157 6.48852L37 10.5043L38.2512 14.4349L50.8669 10.4192L49.6157 6.48852ZM37.5336 8.36671C37.809 7.31212 37.8423 6.19927 37.6192 5.12785L37.0722 2.50134L44.9303 0L46.0025 2.4594C46.4397 3.46262 47.1102 4.35168 47.9445 5.05276L37.5336 8.36671Z" fill="white"/>
<path d="M74.8901 50.6491L67.5267 52.993L69.1761 58.1748L76.5395 55.8309L74.8901 50.6491Z" fill="white"/>
<path d="M78.9064 57.0452L76.1195 48.29L66.958 51.2063L66.5686 49.9831C66.1608 48.7019 66.2893 47.3761 66.8273 46.2449L66.8199 46.2217L79.4356 42.2059L79.443 42.2291C80.5357 42.8412 81.4069 43.8488 81.8148 45.13L86.3306 59.3166L71.0843 64.1697L69.7448 59.9615L78.9064 57.0452ZM77.6157 36.4885L65 40.5043L66.2512 44.4349L78.8669 40.4192L77.6157 36.4885ZM65.5336 38.3667C65.809 37.3121 65.8423 36.1993 65.6192 35.1279L65.0722 32.5013L72.9303 30L74.0025 32.4594C74.4397 33.4626 75.1102 34.3517 75.9445 35.0528L65.5336 38.3667Z" fill="white"/>
<path d="M106.89 80.6491L99.5267 82.993L101.176 88.1748L108.54 85.8309L106.89 80.6491Z" fill="white"/>
<path d="M110.906 87.0452L108.12 78.29L98.958 81.2063L98.5686 79.9831C98.1608 78.7019 98.2893 77.3761 98.8273 76.2449L98.8199 76.2217L111.436 72.2059L111.443 72.2291C112.536 72.8412 113.407 73.8488 113.815 75.13L118.331 89.3166L103.084 94.1697L101.745 89.9615L110.906 87.0452ZM109.616 66.4885L97 70.5043L98.2512 74.4349L110.867 70.4192L109.616 66.4885ZM97.5336 68.3667C97.809 67.3121 97.8423 66.1993 97.6192 65.1279L97.0722 62.5013L104.93 60L106.002 62.4594C106.44 63.4626 107.11 64.3517 107.945 65.0528L97.5336 68.3667Z" fill="white"/>
<path d="M136.89 108.649L129.527 110.993L131.176 116.175L138.54 113.831L136.89 108.649Z" fill="white"/>
<path d="M140.906 115.045L138.12 106.29L128.958 109.206L128.569 107.983C128.161 106.702 128.289 105.376 128.827 104.245L128.82 104.222L141.436 100.206L141.443 100.229C142.536 100.841 143.407 101.849 143.815 103.13L148.331 117.317L133.084 122.17L131.745 117.961L140.906 115.045ZM139.616 94.4885L127 98.5043L128.251 102.435L140.867 98.4192L139.616 94.4885ZM127.534 96.3667C127.809 95.3121 127.842 94.1993 127.619 93.1279L127.072 90.5013L134.93 88L136.002 90.4594C136.44 91.4626 137.11 92.3517 137.945 93.0528L127.534 96.3667Z" fill="white"/>
<path d="M165.89 138.649L158.527 140.993L160.176 146.175L167.54 143.831L165.89 138.649Z" fill="white"/>
<path d="M169.906 145.045L167.12 136.29L157.958 139.206L157.569 137.983C157.161 136.702 157.289 135.376 157.827 134.245L157.82 134.222L170.436 130.206L170.443 130.229C171.536 130.841 172.407 131.849 172.815 133.13L177.331 147.317L162.084 152.17L160.745 147.961L169.906 145.045ZM168.616 124.489L156 128.504L157.251 132.435L169.867 128.419L168.616 124.489ZM156.534 126.367C156.809 125.312 156.842 124.199 156.619 123.128L156.072 120.501L163.93 118L165.003 120.459C165.44 121.463 166.11 122.352 166.945 123.053L156.534 126.367Z" fill="white"/>
<path d="M197.89 168.649L190.527 170.993L192.176 176.175L199.54 173.831L197.89 168.649Z" fill="white"/>
<path d="M201.906 175.045L199.12 166.29L189.958 169.206L189.569 167.983C189.161 166.702 189.289 165.376 189.827 164.245L189.82 164.222L202.436 160.206L202.443 160.229C203.536 160.841 204.407 161.849 204.815 163.13L209.331 177.317L194.084 182.17L192.745 177.961L201.906 175.045ZM200.616 154.489L188 158.504L189.251 162.435L201.867 158.419L200.616 154.489ZM188.534 156.367C188.809 155.312 188.842 154.199 188.619 153.128L188.072 150.501L195.93 148L197.003 150.459C197.44 151.463 198.11 152.352 198.945 153.053L188.534 156.367Z" fill="white"/>
<path d="M225.89 198.649L218.527 200.993L220.176 206.175L227.54 203.831L225.89 198.649Z" fill="white"/>
<path d="M229.906 205.045L227.12 196.29L217.958 199.206L217.569 197.983C217.161 196.702 217.289 195.376 217.827 194.245L217.82 194.222L230.436 190.206L230.443 190.229C231.536 190.841 232.407 191.849 232.815 193.13L237.331 207.317L222.084 212.17L220.745 207.961L229.906 205.045ZM228.616 184.489L216 188.504L217.251 192.435L229.867 188.419L228.616 184.489ZM216.534 186.367C216.809 185.312 216.842 184.199 216.619 183.128L216.072 180.501L223.93 178L225.003 180.459C225.44 181.463 226.11 182.352 226.945 183.053L216.534 186.367Z" fill="white"/>
<path d="M256.89 228.649L249.527 230.993L251.176 236.175L258.54 233.831L256.89 228.649Z" fill="white"/>
<path d="M260.906 235.045L258.12 226.29L248.958 229.206L248.569 227.983C248.161 226.702 248.289 225.376 248.827 224.245L248.82 224.222L261.436 220.206L261.443 220.229C262.536 220.841 263.407 221.849 263.815 223.13L268.331 237.317L253.084 242.17L251.745 237.961L260.906 235.045ZM259.616 214.489L247 218.504L248.251 222.435L260.867 218.419L259.616 214.489ZM247.534 216.367C247.809 215.312 247.842 214.199 247.619 213.128L247.072 210.501L254.93 208L256.003 210.459C256.44 211.463 257.11 212.352 257.945 213.053L247.534 216.367Z" fill="white"/>
<path d="M286.89 258.649L279.527 260.993L281.176 266.175L288.54 263.831L286.89 258.649Z" fill="white"/>
<path d="M290.906 265.045L288.12 256.29L278.958 259.206L278.569 257.983C278.161 256.702 278.289 255.376 278.827 254.245L278.82 254.222L291.436 250.206L291.443 250.229C292.536 250.841 293.407 251.849 293.815 253.13L298.331 267.317L283.084 272.17L281.745 267.961L290.906 265.045ZM289.616 244.489L277 248.504L278.251 252.435L290.867 248.419L289.616 244.489ZM277.534 246.367C277.809 245.312 277.842 244.199 277.619 243.128L277.072 240.501L284.93 238L286.002 240.459C286.44 241.463 287.11 242.352 287.945 243.053L277.534 246.367Z" fill="white"/>
<path d="M315.89 288.649L308.527 290.993L310.176 296.175L317.54 293.831L315.89 288.649Z" fill="white"/>
<path d="M319.906 295.045L317.12 286.29L307.958 289.206L307.569 287.983C307.161 286.702 307.289 285.376 307.827 284.245L307.82 284.222L320.436 280.206L320.443 280.229C321.536 280.841 322.407 281.849 322.815 283.13L327.331 297.317L312.084 302.17L310.745 297.961L319.906 295.045ZM318.616 274.489L306 278.504L307.251 282.435L319.867 278.419L318.616 274.489ZM306.534 276.367C306.809 275.312 306.842 274.199 306.619 273.128L306.072 270.501L313.93 268L315.002 270.459C315.44 271.463 316.11 272.352 316.945 273.053L306.534 276.367Z" fill="white"/>
<path d="M79.8901 -2.3509L72.5267 -0.00701904L74.1761 5.17479L81.5395 2.83091L79.8901 -2.3509Z" fill="white"/>
<path d="M83.9064 4.04519L81.1196 -4.70995L71.958 -1.79369L71.5686 -3.0169C71.1608 -4.29806 71.2893 -5.62388 71.8273 -6.75511L71.8199 -6.77834L84.4356 -10.7941L84.443 -10.7709C85.5357 -10.1588 86.4069 -9.1512 86.8148 -7.86998L91.3306 6.31657L76.0843 11.1697L74.7448 6.96148L83.9064 4.04519ZM82.6157 -16.5115L70 -12.4957L71.2512 -8.56506L83.8669 -12.5808L82.6157 -16.5115ZM70.5336 -14.6333C70.809 -15.6879 70.8423 -16.8007 70.6192 -17.8721L70.0722 -20.4987L77.9303 -23L79.0025 -20.5406C79.4397 -19.5374 80.1102 -18.6483 80.9445 -17.9472L70.5336 -14.6333Z" fill="white"/>
<path d="M107.89 27.6491L100.527 29.993L102.176 35.1748L109.54 32.8309L107.89 27.6491Z" fill="white"/>
<path d="M111.906 34.0452L109.12 25.29L99.958 28.2063L99.5686 26.9831C99.1608 25.7019 99.2893 24.3761 99.8273 23.2449L99.8199 23.2217L112.436 19.2059L112.443 19.2291C113.536 19.8412 114.407 20.8488 114.815 22.13L119.331 36.3166L104.084 41.1697L102.745 36.9615L111.906 34.0452ZM110.616 13.4885L98 17.5043L99.2512 21.4349L111.867 17.4192L110.616 13.4885ZM98.5336 15.3667C98.809 14.3121 98.8423 13.1993 98.6192 12.1279L98.0722 9.50134L105.93 7L107.002 9.4594C107.44 10.4626 108.11 11.3517 108.945 12.0528L98.5336 15.3667Z" fill="white"/>
<path d="M139.89 57.6491L132.527 59.993L134.176 65.1748L141.54 62.8309L139.89 57.6491Z" fill="white"/>
<path d="M143.906 64.0452L141.12 55.29L131.958 58.2063L131.569 56.9831C131.161 55.7019 131.289 54.3761 131.827 53.2449L131.82 53.2217L144.436 49.2059L144.443 49.2291C145.536 49.8412 146.407 50.8488 146.815 52.13L151.331 66.3166L136.084 71.1697L134.745 66.9615L143.906 64.0452ZM142.616 43.4885L130 47.5043L131.251 51.4349L143.867 47.4192L142.616 43.4885ZM130.534 45.3667C130.809 44.3121 130.842 43.1993 130.619 42.1279L130.072 39.5013L137.93 37L139.002 39.4594C139.44 40.4626 140.11 41.3517 140.945 42.0528L130.534 45.3667Z" fill="white"/>
<path d="M169.89 85.6491L162.527 87.993L164.176 93.1748L171.54 90.8309L169.89 85.6491Z" fill="white"/>
<path d="M173.906 92.0452L171.12 83.29L161.958 86.2063L161.569 84.9831C161.161 83.7019 161.289 82.3761 161.827 81.2449L161.82 81.2217L174.436 77.2059L174.443 77.2291C175.536 77.8412 176.407 78.8488 176.815 80.13L181.331 94.3166L166.084 99.1697L164.745 94.9615L173.906 92.0452ZM172.616 71.4885L160 75.5043L161.251 79.4349L173.867 75.4192L172.616 71.4885ZM160.534 73.3667C160.809 72.3121 160.842 71.1993 160.619 70.1279L160.072 67.5013L167.93 65L169.002 67.4594C169.44 68.4626 170.11 69.3517 170.945 70.0528L160.534 73.3667Z" fill="white"/>
<path d="M198.89 115.649L191.527 117.993L193.176 123.175L200.54 120.831L198.89 115.649Z" fill="white"/>
<path d="M202.906 122.045L200.12 113.29L190.958 116.206L190.569 114.983C190.161 113.702 190.289 112.376 190.827 111.245L190.82 111.222L203.436 107.206L203.443 107.229C204.536 107.841 205.407 108.849 205.815 110.13L210.331 124.317L195.084 129.17L193.745 124.961L202.906 122.045ZM201.616 101.489L189 105.504L190.251 109.435L202.867 105.419L201.616 101.489ZM189.534 103.367C189.809 102.312 189.842 101.199 189.619 100.128L189.072 97.5013L196.93 95L198.003 97.4594C198.44 98.4626 199.11 99.3517 199.945 100.053L189.534 103.367Z" fill="white"/>
<path d="M230.89 145.649L223.527 147.993L225.176 153.175L232.54 150.831L230.89 145.649Z" fill="white"/>
<path d="M234.906 152.045L232.12 143.29L222.958 146.206L222.569 144.983C222.161 143.702 222.289 142.376 222.827 141.245L222.82 141.222L235.436 137.206L235.443 137.229C236.536 137.841 237.407 138.849 237.815 140.13L242.331 154.317L227.084 159.17L225.745 154.961L234.906 152.045ZM233.616 131.489L221 135.504L222.251 139.435L234.867 135.419L233.616 131.489ZM221.534 133.367C221.809 132.312 221.842 131.199 221.619 130.128L221.072 127.501L228.93 125L230.003 127.459C230.44 128.463 231.11 129.352 231.945 130.053L221.534 133.367Z" fill="white"/>
<path d="M258.89 175.649L251.527 177.993L253.176 183.175L260.54 180.831L258.89 175.649Z" fill="white"/>
<path d="M262.906 182.045L260.12 173.29L250.958 176.206L250.569 174.983C250.161 173.702 250.289 172.376 250.827 171.245L250.82 171.222L263.436 167.206L263.443 167.229C264.536 167.841 265.407 168.849 265.815 170.13L270.331 184.317L255.084 189.17L253.745 184.961L262.906 182.045ZM261.616 161.489L249 165.504L250.251 169.435L262.867 165.419L261.616 161.489ZM249.534 163.367C249.809 162.312 249.842 161.199 249.619 160.128L249.072 157.501L256.93 155L258.003 157.459C258.44 158.463 259.11 159.352 259.945 160.053L249.534 163.367Z" fill="white"/>
<path d="M289.89 205.649L282.527 207.993L284.176 213.175L291.54 210.831L289.89 205.649Z" fill="white"/>
<path d="M293.906 212.045L291.12 203.29L281.958 206.206L281.569 204.983C281.161 203.702 281.289 202.376 281.827 201.245L281.82 201.222L294.436 197.206L294.443 197.229C295.536 197.841 296.407 198.849 296.815 200.13L301.331 214.317L286.084 219.17L284.745 214.961L293.906 212.045ZM292.616 191.489L280 195.504L281.251 199.435L293.867 195.419L292.616 191.489ZM280.534 193.367C280.809 192.312 280.842 191.199 280.619 190.128L280.072 187.501L287.93 185L289.003 187.459C289.44 188.463 290.11 189.352 290.945 190.053L280.534 193.367Z" fill="white"/>
<path d="M319.89 235.649L312.527 237.993L314.176 243.175L321.54 240.831L319.89 235.649Z" fill="white"/>
<path d="M323.906 242.045L321.12 233.29L311.958 236.206L311.569 234.983C311.161 233.702 311.289 232.376 311.827 231.245L311.82 231.222L324.436 227.206L324.443 227.229C325.536 227.841 326.407 228.849 326.815 230.13L331.331 244.317L316.084 249.17L314.745 244.961L323.906 242.045ZM322.616 221.489L310 225.504L311.251 229.435L323.867 225.419L322.616 221.489ZM310.534 223.367C310.809 222.312 310.842 221.199 310.619 220.128L310.072 217.501L317.93 215L319.002 217.459C319.44 218.463 320.11 219.352 320.945 220.053L310.534 223.367Z" fill="white"/>
<path d="M348.89 265.649L341.527 267.993L343.176 273.175L350.54 270.831L348.89 265.649Z" fill="white"/>
<path d="M352.906 272.045L350.12 263.29L340.958 266.206L340.569 264.983C340.161 263.702 340.289 262.376 340.827 261.245L340.82 261.222L353.436 257.206L353.443 257.229C354.536 257.841 355.407 258.849 355.815 260.13L360.331 274.317L345.084 279.17L343.745 274.961L352.906 272.045ZM351.616 251.489L339 255.504L340.251 259.435L352.867 255.419L351.616 251.489ZM339.534 253.367C339.809 252.312 339.842 251.199 339.619 250.128L339.072 247.501L346.93 245L348.002 247.459C348.44 248.463 349.11 249.352 349.945 250.053L339.534 253.367Z" fill="white"/>
<path d="M111.89 -33.3509L104.527 -31.007L106.176 -25.8252L113.54 -28.1691L111.89 -33.3509Z" fill="white"/>
<path d="M115.906 -26.9548L113.12 -35.71L103.958 -32.7937L103.569 -34.0169C103.161 -35.2981 103.289 -36.6239 103.827 -37.7551L103.82 -37.7783L116.436 -41.7941L116.443 -41.7709C117.536 -41.1588 118.407 -40.1512 118.815 -38.87L123.331 -24.6834L108.084 -19.8303L106.745 -24.0385L115.906 -26.9548ZM114.616 -47.5115L102 -43.4957L103.251 -39.5651L115.867 -43.5808L114.616 -47.5115ZM102.534 -45.6333C102.809 -46.6879 102.842 -47.8007 102.619 -48.8721L102.072 -51.4987L109.93 -54L111.002 -51.5406C111.44 -50.5374 112.11 -49.6483 112.945 -48.9472L102.534 -45.6333Z" fill="white"/>
<path d="M139.89 -3.3509L132.527 -1.00702L134.176 4.17479L141.54 1.83092L139.89 -3.3509Z" fill="white"/>
<path d="M143.906 3.04519L141.12 -5.70995L131.958 -2.79369L131.569 -4.0169C131.161 -5.29806 131.289 -6.62388 131.827 -7.75511L131.82 -7.77834L144.436 -11.7941L144.443 -11.7709C145.536 -11.1588 146.407 -10.1512 146.815 -8.86998L151.331 5.31657L136.084 10.1697L134.745 5.96147L143.906 3.04519ZM142.616 -17.5115L130 -13.4957L131.251 -9.56506L143.867 -13.5808L142.616 -17.5115ZM130.534 -15.6333C130.809 -16.6879 130.842 -17.8007 130.619 -18.8721L130.072 -21.4987L137.93 -24L139.002 -21.5406C139.44 -20.5374 140.11 -19.6483 140.945 -18.9472L130.534 -15.6333Z" fill="white"/>
<path d="M171.89 26.6491L164.527 28.993L166.176 34.1748L173.54 31.8309L171.89 26.6491Z" fill="white"/>
<path d="M175.906 33.0452L173.12 24.29L163.958 27.2063L163.569 25.9831C163.161 24.7019 163.289 23.3761 163.827 22.2449L163.82 22.2217L176.436 18.2059L176.443 18.2291C177.536 18.8412 178.407 19.8488 178.815 21.13L183.331 35.3166L168.084 40.1697L166.745 35.9615L175.906 33.0452ZM174.616 12.4885L162 16.5043L163.251 20.4349L175.867 16.4192L174.616 12.4885ZM162.534 14.3667C162.809 13.3121 162.842 12.1993 162.619 11.1279L162.072 8.50134L169.93 6L171.002 8.4594C171.44 9.46262 172.11 10.3517 172.945 11.0528L162.534 14.3667Z" fill="white"/>
<path d="M201.89 54.6491L194.527 56.993L196.176 62.1748L203.54 59.8309L201.89 54.6491Z" fill="white"/>
<path d="M205.906 61.0452L203.12 52.29L193.958 55.2063L193.569 53.9831C193.161 52.7019 193.289 51.3761 193.827 50.2449L193.82 50.2217L206.436 46.2059L206.443 46.2291C207.536 46.8412 208.407 47.8488 208.815 49.13L213.331 63.3166L198.084 68.1697L196.745 63.9615L205.906 61.0452ZM204.616 40.4885L192 44.5043L193.251 48.4349L205.867 44.4192L204.616 40.4885ZM192.534 42.3667C192.809 41.3121 192.842 40.1993 192.619 39.1279L192.072 36.5013L199.93 34L201.002 36.4594C201.44 37.4626 202.11 38.3517 202.945 39.0528L192.534 42.3667Z" fill="white"/>
<path d="M230.89 84.6491L223.527 86.993L225.176 92.1748L232.54 89.8309L230.89 84.6491Z" fill="white"/>
<path d="M234.906 91.0452L232.12 82.29L222.958 85.2063L222.569 83.9831C222.161 82.7019 222.289 81.3761 222.827 80.2449L222.82 80.2217L235.436 76.2059L235.443 76.2291C236.536 76.8412 237.407 77.8488 237.815 79.13L242.331 93.3166L227.084 98.1697L225.745 93.9615L234.906 91.0452ZM233.616 70.4885L221 74.5043L222.251 78.4349L234.867 74.4192L233.616 70.4885ZM221.534 72.3667C221.809 71.3121 221.842 70.1993 221.619 69.1279L221.072 66.5013L228.93 64L230.003 66.4594C230.44 67.4626 231.11 68.3517 231.945 69.0528L221.534 72.3667Z" fill="white"/>
<path d="M262.89 114.649L255.527 116.993L257.176 122.175L264.54 119.831L262.89 114.649Z" fill="white"/>
<path d="M266.906 121.045L264.12 112.29L254.958 115.206L254.569 113.983C254.161 112.702 254.289 111.376 254.827 110.245L254.82 110.222L267.436 106.206L267.443 106.229C268.536 106.841 269.407 107.849 269.815 109.13L274.331 123.317L259.084 128.17L257.745 123.961L266.906 121.045ZM265.616 100.489L253 104.504L254.251 108.435L266.867 104.419L265.616 100.489ZM253.534 102.367C253.809 101.312 253.842 100.199 253.619 99.1279L253.072 96.5013L260.93 94L262.003 96.4594C262.44 97.4626 263.11 98.3517 263.945 99.0528L253.534 102.367Z" fill="white"/>
<path d="M290.89 144.649L283.527 146.993L285.176 152.175L292.54 149.831L290.89 144.649Z" fill="white"/>
<path d="M294.906 151.045L292.12 142.29L282.958 145.206L282.569 143.983C282.161 142.702 282.289 141.376 282.827 140.245L282.82 140.222L295.436 136.206L295.443 136.229C296.536 136.841 297.407 137.849 297.815 139.13L302.331 153.317L287.084 158.17L285.745 153.961L294.906 151.045ZM293.616 130.489L281 134.504L282.251 138.435L294.867 134.419L293.616 130.489ZM281.534 132.367C281.809 131.312 281.842 130.199 281.619 129.128L281.072 126.501L288.93 124L290.003 126.459C290.44 127.463 291.11 128.352 291.945 129.053L281.534 132.367Z" fill="white"/>
<path d="M321.89 174.649L314.527 176.993L316.176 182.175L323.54 179.831L321.89 174.649Z" fill="white"/>
<path d="M325.906 181.045L323.12 172.29L313.958 175.206L313.569 173.983C313.161 172.702 313.289 171.376 313.827 170.245L313.82 170.222L326.436 166.206L326.443 166.229C327.536 166.841 328.407 167.849 328.815 169.13L333.331 183.317L318.084 188.17L316.745 183.961L325.906 181.045ZM324.616 160.489L312 164.504L313.251 168.435L325.867 164.419L324.616 160.489ZM312.534 162.367C312.809 161.312 312.842 160.199 312.619 159.128L312.072 156.501L319.93 154L321.003 156.459C321.44 157.463 322.11 158.352 322.945 159.053L312.534 162.367Z" fill="white"/>
<path d="M351.89 204.649L344.527 206.993L346.176 212.175L353.54 209.831L351.89 204.649Z" fill="white"/>
<path d="M355.906 211.045L353.12 202.29L343.958 205.206L343.569 203.983C343.161 202.702 343.289 201.376 343.827 200.245L343.82 200.222L356.436 196.206L356.443 196.229C357.536 196.841 358.407 197.849 358.815 199.13L363.331 213.317L348.084 218.17L346.745 213.961L355.906 211.045ZM354.616 190.489L342 194.504L343.251 198.435L355.867 194.419L354.616 190.489ZM342.534 192.367C342.809 191.312 342.842 190.199 342.619 189.128L342.072 186.501L349.93 184L351.002 186.459C351.44 187.463 352.11 188.352 352.945 189.053L342.534 192.367Z" fill="white"/>
<path d="M380.89 234.649L373.527 236.993L375.176 242.175L382.54 239.831L380.89 234.649Z" fill="white"/>
<path d="M384.906 241.045L382.12 232.29L372.958 235.206L372.569 233.983C372.161 232.702 372.289 231.376 372.827 230.245L372.82 230.222L385.436 226.206L385.443 226.229C386.536 226.841 387.407 227.849 387.815 229.13L392.331 243.317L377.084 248.17L375.745 243.961L384.906 241.045ZM383.616 220.489L371 224.504L372.251 228.435L384.867 224.419L383.616 220.489ZM371.534 222.367C371.809 221.312 371.842 220.199 371.619 219.128L371.072 216.501L378.93 214L380.002 216.459C380.44 217.463 381.11 218.352 381.945 219.053L371.534 222.367Z" fill="white"/>
<path d="M141.89 -65.3509L134.527 -63.007L136.176 -57.8252L143.54 -60.1691L141.89 -65.3509Z" fill="white"/>
<path d="M145.906 -58.9548L143.12 -67.71L133.958 -64.7937L133.569 -66.0169C133.161 -67.2981 133.289 -68.6239 133.827 -69.7551L133.82 -69.7783L146.436 -73.7941L146.443 -73.7709C147.536 -73.1588 148.407 -72.1512 148.815 -70.87L153.331 -56.6834L138.084 -51.8303L136.745 -56.0385L145.906 -58.9548ZM144.616 -79.5115L132 -75.4957L133.251 -71.5651L145.867 -75.5808L144.616 -79.5115ZM132.534 -77.6333C132.809 -78.6879 132.842 -79.8007 132.619 -80.8721L132.072 -83.4987L139.93 -86L141.002 -83.5406C141.44 -82.5374 142.11 -81.6483 142.945 -80.9472L132.534 -77.6333Z" fill="white"/>
<path d="M169.89 -35.3509L162.527 -33.007L164.176 -27.8252L171.54 -30.1691L169.89 -35.3509Z" fill="white"/>
<path d="M173.906 -28.9548L171.12 -37.71L161.958 -34.7937L161.569 -36.0169C161.161 -37.2981 161.289 -38.6239 161.827 -39.7551L161.82 -39.7783L174.436 -43.7941L174.443 -43.7709C175.536 -43.1588 176.407 -42.1512 176.815 -40.87L181.331 -26.6834L166.084 -21.8303L164.745 -26.0385L173.906 -28.9548ZM172.616 -49.5115L160 -45.4957L161.251 -41.5651L173.867 -45.5808L172.616 -49.5115ZM160.534 -47.6333C160.809 -48.6879 160.842 -49.8007 160.619 -50.8721L160.072 -53.4987L167.93 -56L169.002 -53.5406C169.44 -52.5374 170.11 -51.6483 170.945 -50.9472L160.534 -47.6333Z" fill="white"/>
<path d="M201.89 -5.3509L194.527 -3.00702L196.176 2.17479L203.54 -0.16909L201.89 -5.3509Z" fill="white"/>
<path d="M205.906 1.04519L203.12 -7.70995L193.958 -4.79369L193.569 -6.0169C193.161 -7.29806 193.289 -8.62388 193.827 -9.75511L193.82 -9.77834L206.436 -13.7941L206.443 -13.7709C207.536 -13.1588 208.407 -12.1512 208.815 -10.87L213.331 3.31657L198.084 8.16967L196.745 3.96148L205.906 1.04519ZM204.616 -19.5115L192 -15.4957L193.251 -11.5651L205.867 -15.5808L204.616 -19.5115ZM192.534 -17.6333C192.809 -18.6879 192.842 -19.8007 192.619 -20.8721L192.072 -23.4987L199.93 -26L201.002 -23.5406C201.44 -22.5374 202.11 -21.6483 202.945 -20.9472L192.534 -17.6333Z" fill="white"/>
<path d="M231.89 22.6491L224.527 24.993L226.176 30.1748L233.54 27.8309L231.89 22.6491Z" fill="white"/>
<path d="M235.906 29.0452L233.12 20.29L223.958 23.2063L223.569 21.9831C223.161 20.7019 223.289 19.3761 223.827 18.2449L223.82 18.2217L236.436 14.2059L236.443 14.2291C237.536 14.8412 238.407 15.8488 238.815 17.13L243.331 31.3166L228.084 36.1697L226.745 31.9615L235.906 29.0452ZM234.616 8.48852L222 12.5043L223.251 16.4349L235.867 12.4192L234.616 8.48852ZM222.534 10.3667C222.809 9.31212 222.842 8.19927 222.619 7.12785L222.072 4.50134L229.93 2L231.002 4.4594C231.44 5.46262 232.11 6.35168 232.945 7.05276L222.534 10.3667Z" fill="white"/>
<path d="M260.89 52.6491L253.527 54.993L255.176 60.1748L262.54 57.8309L260.89 52.6491Z" fill="white"/>
<path d="M264.906 59.0452L262.12 50.29L252.958 53.2063L252.569 51.9831C252.161 50.7019 252.289 49.3761 252.827 48.2449L252.82 48.2217L265.436 44.2059L265.443 44.2291C266.536 44.8412 267.407 45.8488 267.815 47.13L272.331 61.3166L257.084 66.1697L255.745 61.9615L264.906 59.0452ZM263.616 38.4885L251 42.5043L252.251 46.4349L264.867 42.4192L263.616 38.4885ZM251.534 40.3667C251.809 39.3121 251.842 38.1993 251.619 37.1279L251.072 34.5013L258.93 32L260.003 34.4594C260.44 35.4626 261.11 36.3517 261.945 37.0528L251.534 40.3667Z" fill="white"/>
<path d="M292.89 82.6491L285.527 84.993L287.176 90.1748L294.54 87.8309L292.89 82.6491Z" fill="white"/>
<path d="M296.906 89.0452L294.12 80.29L284.958 83.2063L284.569 81.9831C284.161 80.7019 284.289 79.3761 284.827 78.2449L284.82 78.2217L297.436 74.2059L297.443 74.2291C298.536 74.8412 299.407 75.8488 299.815 77.13L304.331 91.3166L289.084 96.1697L287.745 91.9615L296.906 89.0452ZM295.616 68.4885L283 72.5043L284.251 76.4349L296.867 72.4192L295.616 68.4885ZM283.534 70.3667C283.809 69.3121 283.842 68.1993 283.619 67.1279L283.072 64.5013L290.93 62L292.003 64.4594C292.44 65.4626 293.11 66.3517 293.945 67.0528L283.534 70.3667Z" fill="white"/>
<path d="M320.89 112.649L313.527 114.993L315.176 120.175L322.54 117.831L320.89 112.649Z" fill="white"/>
<path d="M324.906 119.045L322.12 110.29L312.958 113.206L312.569 111.983C312.161 110.702 312.289 109.376 312.827 108.245L312.82 108.222L325.436 104.206L325.443 104.229C326.536 104.841 327.407 105.849 327.815 107.13L332.331 121.317L317.084 126.17L315.745 121.961L324.906 119.045ZM323.616 98.4885L311 102.504L312.251 106.435L324.867 102.419L323.616 98.4885ZM311.534 100.367C311.809 99.3121 311.842 98.1993 311.619 97.1279L311.072 94.5013L318.93 92L320.003 94.4594C320.44 95.4626 321.11 96.3517 321.945 97.0528L311.534 100.367Z" fill="white"/>
<path d="M351.89 142.649L344.527 144.993L346.176 150.175L353.54 147.831L351.89 142.649Z" fill="white"/>
<path d="M355.906 149.045L353.12 140.29L343.958 143.206L343.569 141.983C343.161 140.702 343.289 139.376 343.827 138.245L343.82 138.222L356.436 134.206L356.443 134.229C357.536 134.841 358.407 135.849 358.815 137.13L363.331 151.317L348.084 156.17L346.745 151.961L355.906 149.045ZM354.616 128.489L342 132.504L343.251 136.435L355.867 132.419L354.616 128.489ZM342.534 130.367C342.809 129.312 342.842 128.199 342.619 127.128L342.072 124.501L349.93 122L351.003 124.459C351.44 125.463 352.11 126.352 352.945 127.053L342.534 130.367Z" fill="white"/>
<path d="M381.89 172.649L374.527 174.993L376.176 180.175L383.54 177.831L381.89 172.649Z" fill="white"/>
<path d="M385.906 179.045L383.12 170.29L373.958 173.206L373.569 171.983C373.161 170.702 373.289 169.376 373.827 168.245L373.82 168.222L386.436 164.206L386.443 164.229C387.536 164.841 388.407 165.849 388.815 167.13L393.331 181.317L378.084 186.17L376.745 181.961L385.906 179.045ZM384.616 158.489L372 162.504L373.251 166.435L385.867 162.419L384.616 158.489ZM372.534 160.367C372.809 159.312 372.842 158.199 372.619 157.128L372.072 154.501L379.93 152L381.002 154.459C381.44 155.463 382.11 156.352 382.945 157.053L372.534 160.367Z" fill="white"/>
<path d="M410.89 202.649L403.527 204.993L405.176 210.175L412.54 207.831L410.89 202.649Z" fill="white"/>
<path d="M414.906 209.045L412.12 200.29L402.958 203.206L402.569 201.983C402.161 200.702 402.289 199.376 402.827 198.245L402.82 198.222L415.436 194.206L415.443 194.229C416.536 194.841 417.407 195.849 417.815 197.13L422.331 211.317L407.084 216.17L405.745 211.961L414.906 209.045ZM413.616 188.489L401 192.504L402.251 196.435L414.867 192.419L413.616 188.489ZM401.534 190.367C401.809 189.312 401.842 188.199 401.619 187.128L401.072 184.501L408.93 182L410.002 184.459C410.44 185.463 411.11 186.352 411.945 187.053L401.534 190.367Z" fill="white"/>
<path d="M169.89 -93.3509L162.527 -91.007L164.176 -85.8252L171.54 -88.1691L169.89 -93.3509Z" fill="white"/>
<path d="M173.906 -86.9548L171.12 -95.71L161.958 -92.7937L161.569 -94.0169C161.161 -95.2981 161.289 -96.6239 161.827 -97.7551L161.82 -97.7783L174.436 -101.794L174.443 -101.771C175.536 -101.159 176.407 -100.151 176.815 -98.87L181.331 -84.6834L166.084 -79.8303L164.745 -84.0385L173.906 -86.9548ZM172.616 -107.511L160 -103.496L161.251 -99.5651L173.867 -103.581L172.616 -107.511ZM160.534 -105.633C160.809 -106.688 160.842 -107.801 160.619 -108.872L160.072 -111.499L167.93 -114L169.002 -111.541C169.44 -110.537 170.11 -109.648 170.945 -108.947L160.534 -105.633Z" fill="white"/>
<path d="M197.89 -63.3509L190.527 -61.007L192.176 -55.8252L199.54 -58.1691L197.89 -63.3509Z" fill="white"/>
<path d="M201.906 -56.9548L199.12 -65.71L189.958 -62.7937L189.569 -64.0169C189.161 -65.2981 189.289 -66.6239 189.827 -67.7551L189.82 -67.7783L202.436 -71.7941L202.443 -71.7709C203.536 -71.1588 204.407 -70.1512 204.815 -68.87L209.331 -54.6834L194.084 -49.8303L192.745 -54.0385L201.906 -56.9548ZM200.616 -77.5115L188 -73.4957L189.251 -69.5651L201.867 -73.5808L200.616 -77.5115ZM188.534 -75.6333C188.809 -76.6879 188.842 -77.8007 188.619 -78.8721L188.072 -81.4987L195.93 -84L197.002 -81.5406C197.44 -80.5374 198.11 -79.6483 198.945 -78.9472L188.534 -75.6333Z" fill="white"/>
<path d="M229.89 -33.3509L222.527 -31.007L224.176 -25.8252L231.54 -28.1691L229.89 -33.3509Z" fill="white"/>
<path d="M233.906 -26.9548L231.12 -35.71L221.958 -32.7937L221.569 -34.0169C221.161 -35.2981 221.289 -36.6239 221.827 -37.7551L221.82 -37.7783L234.436 -41.7941L234.443 -41.7709C235.536 -41.1588 236.407 -40.1512 236.815 -38.87L241.331 -24.6834L226.084 -19.8303L224.745 -24.0385L233.906 -26.9548ZM232.616 -47.5115L220 -43.4957L221.251 -39.5651L233.867 -43.5808L232.616 -47.5115ZM220.534 -45.6333C220.809 -46.6879 220.842 -47.8007 220.619 -48.8721L220.072 -51.4987L227.93 -54L229.002 -51.5406C229.44 -50.5374 230.11 -49.6483 230.945 -48.9472L220.534 -45.6333Z" fill="white"/>
<path d="M259.89 -5.3509L252.527 -3.00702L254.176 2.17479L261.54 -0.16909L259.89 -5.3509Z" fill="white"/>
<path d="M263.906 1.04519L261.12 -7.70995L251.958 -4.79369L251.569 -6.0169C251.161 -7.29806 251.289 -8.62388 251.827 -9.75511L251.82 -9.77834L264.436 -13.7941L264.443 -13.7709C265.536 -13.1588 266.407 -12.1512 266.815 -10.87L271.331 3.31657L256.084 8.16967L254.745 3.96148L263.906 1.04519ZM262.616 -19.5115L250 -15.4957L251.251 -11.5651L263.867 -15.5808L262.616 -19.5115ZM250.534 -17.6333C250.809 -18.6879 250.842 -19.8007 250.619 -20.8721L250.072 -23.4987L257.93 -26L259.002 -23.5406C259.44 -22.5374 260.11 -21.6483 260.945 -20.9472L250.534 -17.6333Z" fill="white"/>
<path d="M288.89 24.6491L281.527 26.993L283.176 32.1748L290.54 29.8309L288.89 24.6491Z" fill="white"/>
<path d="M292.906 31.0452L290.12 22.29L280.958 25.2063L280.569 23.9831C280.161 22.7019 280.289 21.3761 280.827 20.2449L280.82 20.2217L293.436 16.2059L293.443 16.2291C294.536 16.8412 295.407 17.8488 295.815 19.13L300.331 33.3166L285.084 38.1697L283.745 33.9615L292.906 31.0452ZM291.616 10.4885L279 14.5043L280.251 18.4349L292.867 14.4192L291.616 10.4885ZM279.534 12.3667C279.809 11.3121 279.842 10.1993 279.619 9.12785L279.072 6.50134L286.93 4L288.003 6.4594C288.44 7.46262 289.11 8.35168 289.945 9.05276L279.534 12.3667Z" fill="white"/>
<path d="M320.89 54.6491L313.527 56.993L315.176 62.1748L322.54 59.8309L320.89 54.6491Z" fill="white"/>
<path d="M324.906 61.0452L322.12 52.29L312.958 55.2063L312.569 53.9831C312.161 52.7019 312.289 51.3761 312.827 50.2449L312.82 50.2217L325.436 46.2059L325.443 46.2291C326.536 46.8412 327.407 47.8488 327.815 49.13L332.331 63.3166L317.084 68.1697L315.745 63.9615L324.906 61.0452ZM323.616 40.4885L311 44.5043L312.251 48.4349L324.867 44.4192L323.616 40.4885ZM311.534 42.3667C311.809 41.3121 311.842 40.1993 311.619 39.1279L311.072 36.5013L318.93 34L320.003 36.4594C320.44 37.4626 321.11 38.3517 321.945 39.0528L311.534 42.3667Z" fill="white"/>
<path d="M348.89 84.6491L341.527 86.993L343.176 92.1748L350.54 89.8309L348.89 84.6491Z" fill="white"/>
<path d="M352.906 91.0452L350.12 82.29L340.958 85.2063L340.569 83.9831C340.161 82.7019 340.289 81.3761 340.827 80.2449L340.82 80.2217L353.436 76.2059L353.443 76.2291C354.536 76.8412 355.407 77.8488 355.815 79.13L360.331 93.3166L345.084 98.1697L343.745 93.9615L352.906 91.0452ZM351.616 70.4885L339 74.5043L340.251 78.4349L352.867 74.4192L351.616 70.4885ZM339.534 72.3667C339.809 71.3121 339.842 70.1993 339.619 69.1279L339.072 66.5013L346.93 64L348.003 66.4594C348.44 67.4626 349.11 68.3517 349.945 69.0528L339.534 72.3667Z" fill="white"/>
<path d="M379.89 114.649L372.527 116.993L374.176 122.175L381.54 119.831L379.89 114.649Z" fill="white"/>
<path d="M383.906 121.045L381.12 112.29L371.958 115.206L371.569 113.983C371.161 112.702 371.289 111.376 371.827 110.245L371.82 110.222L384.436 106.206L384.443 106.229C385.536 106.841 386.407 107.849 386.815 109.13L391.331 123.317L376.084 128.17L374.745 123.961L383.906 121.045ZM382.616 100.489L370 104.504L371.251 108.435L383.867 104.419L382.616 100.489ZM370.534 102.367C370.809 101.312 370.842 100.199 370.619 99.1279L370.072 96.5013L377.93 94L379.003 96.4594C379.44 97.4626 380.11 98.3517 380.945 99.0528L370.534 102.367Z" fill="white"/>
<path d="M409.89 144.649L402.527 146.993L404.176 152.175L411.54 149.831L409.89 144.649Z" fill="white"/>
<path d="M413.906 151.045L411.12 142.29L401.958 145.206L401.569 143.983C401.161 142.702 401.289 141.376 401.827 140.245L401.82 140.222L414.436 136.206L414.443 136.229C415.536 136.841 416.407 137.849 416.815 139.13L421.331 153.317L406.084 158.17L404.745 153.961L413.906 151.045ZM412.616 130.489L400 134.504L401.251 138.435L413.867 134.419L412.616 130.489ZM400.534 132.367C400.809 131.312 400.842 130.199 400.619 129.128L400.072 126.501L407.93 124L409.002 126.459C409.44 127.463 410.11 128.352 410.945 129.053L400.534 132.367Z" fill="white"/>
<path d="M438.89 174.649L431.527 176.993L433.176 182.175L440.54 179.831L438.89 174.649Z" fill="white"/>
<path d="M442.906 181.045L440.12 172.29L430.958 175.206L430.569 173.983C430.161 172.702 430.289 171.376 430.827 170.245L430.82 170.222L443.436 166.206L443.443 166.229C444.536 166.841 445.407 167.849 445.815 169.13L450.331 183.317L435.084 188.17L433.745 183.961L442.906 181.045ZM441.616 160.489L429 164.504L430.251 168.435L442.867 164.419L441.616 160.489ZM429.534 162.367C429.809 161.312 429.842 160.199 429.619 159.128L429.072 156.501L436.93 154L438.002 156.459C438.44 157.463 439.11 158.352 439.945 159.053L429.534 162.367Z" fill="white"/>
<path d="M14.8901 106.649L7.52669 108.993L9.17613 114.175L16.5395 111.831L14.8901 106.649Z" fill="white"/>
<path d="M18.9064 113.045L16.1196 104.29L6.95796 107.206L6.5686 105.983C6.1608 104.702 6.28932 103.376 6.82733 102.245L6.81993 102.222L19.4356 98.2059L19.443 98.2291C20.5357 98.8412 21.4069 99.8488 21.8148 101.13L26.3306 115.317L11.0843 120.17L9.7448 115.961L18.9064 113.045ZM17.6157 92.4885L5 96.5043L6.25119 100.435L18.8669 96.4192L17.6157 92.4885ZM5.53363 94.3667C5.80902 93.3121 5.84233 92.1993 5.61919 91.1279L5.0722 88.5013L12.9303 86L14.0025 88.4594C14.4397 89.4626 15.1102 90.3517 15.9445 91.0528L5.53363 94.3667Z" fill="white"/>
<path d="M42.8901 136.649L35.5267 138.993L37.1761 144.175L44.5395 141.831L42.8901 136.649Z" fill="white"/>
<path d="M46.9064 143.045L44.1195 134.29L34.958 137.206L34.5686 135.983C34.1608 134.702 34.2893 133.376 34.8273 132.245L34.8199 132.222L47.4356 128.206L47.443 128.229C48.5357 128.841 49.4069 129.849 49.8148 131.13L54.3306 145.317L39.0843 150.17L37.7448 145.961L46.9064 143.045ZM45.6157 122.489L33 126.504L34.2512 130.435L46.8669 126.419L45.6157 122.489ZM33.5336 124.367C33.809 123.312 33.8423 122.199 33.6192 121.128L33.0722 118.501L40.9303 116L42.0025 118.459C42.4397 119.463 43.1102 120.352 43.9445 121.053L33.5336 124.367Z" fill="white"/>
<path d="M74.8901 166.649L67.5267 168.993L69.1761 174.175L76.5395 171.831L74.8901 166.649Z" fill="white"/>
<path d="M78.9064 173.045L76.1195 164.29L66.958 167.206L66.5686 165.983C66.1608 164.702 66.2893 163.376 66.8273 162.245L66.8199 162.222L79.4356 158.206L79.443 158.229C80.5357 158.841 81.4069 159.849 81.8148 161.13L86.3306 175.317L71.0843 180.17L69.7448 175.961L78.9064 173.045ZM77.6157 152.489L65 156.504L66.2512 160.435L78.8669 156.419L77.6157 152.489ZM65.5336 154.367C65.809 153.312 65.8423 152.199 65.6192 151.128L65.0722 148.501L72.9303 146L74.0025 148.459C74.4397 149.463 75.1102 150.352 75.9445 151.053L65.5336 154.367Z" fill="white"/>
<path d="M104.89 194.649L97.5267 196.993L99.1761 202.175L106.54 199.831L104.89 194.649Z" fill="white"/>
<path d="M108.906 201.045L106.12 192.29L96.958 195.206L96.5686 193.983C96.1608 192.702 96.2893 191.376 96.8273 190.245L96.8199 190.222L109.436 186.206L109.443 186.229C110.536 186.841 111.407 187.849 111.815 189.13L116.331 203.317L101.084 208.17L99.7448 203.961L108.906 201.045ZM107.616 180.489L95 184.504L96.2512 188.435L108.867 184.419L107.616 180.489ZM95.5336 182.367C95.809 181.312 95.8423 180.199 95.6192 179.128L95.0722 176.501L102.93 174L104.002 176.459C104.44 177.463 105.11 178.352 105.945 179.053L95.5336 182.367Z" fill="white"/>
<path d="M133.89 224.649L126.527 226.993L128.176 232.175L135.54 229.831L133.89 224.649Z" fill="white"/>
<path d="M137.906 231.045L135.12 222.29L125.958 225.206L125.569 223.983C125.161 222.702 125.289 221.376 125.827 220.245L125.82 220.222L138.436 216.206L138.443 216.229C139.536 216.841 140.407 217.849 140.815 219.13L145.331 233.317L130.084 238.17L128.745 233.961L137.906 231.045ZM136.616 210.489L124 214.504L125.251 218.435L137.867 214.419L136.616 210.489ZM124.534 212.367C124.809 211.312 124.842 210.199 124.619 209.128L124.072 206.501L131.93 204L133.003 206.459C133.44 207.463 134.11 208.352 134.945 209.053L124.534 212.367Z" fill="white"/>
<path d="M165.89 254.649L158.527 256.993L160.176 262.175L167.54 259.831L165.89 254.649Z" fill="white"/>
<path d="M169.906 261.045L167.12 252.29L157.958 255.206L157.569 253.983C157.161 252.702 157.289 251.376 157.827 250.245L157.82 250.222L170.436 246.206L170.443 246.229C171.536 246.841 172.407 247.849 172.815 249.13L177.331 263.317L162.084 268.17L160.745 263.961L169.906 261.045ZM168.616 240.489L156 244.504L157.251 248.435L169.867 244.419L168.616 240.489ZM156.534 242.367C156.809 241.312 156.842 240.199 156.619 239.128L156.072 236.501L163.93 234L165.003 236.459C165.44 237.463 166.11 238.352 166.945 239.053L156.534 242.367Z" fill="white"/>
<path d="M193.89 284.649L186.527 286.993L188.176 292.175L195.54 289.831L193.89 284.649Z" fill="white"/>
<path d="M197.906 291.045L195.12 282.29L185.958 285.206L185.569 283.983C185.161 282.702 185.289 281.376 185.827 280.245L185.82 280.222L198.436 276.206L198.443 276.229C199.536 276.841 200.407 277.849 200.815 279.13L205.331 293.317L190.084 298.17L188.745 293.961L197.906 291.045ZM196.616 270.489L184 274.504L185.251 278.435L197.867 274.419L196.616 270.489ZM184.534 272.367C184.809 271.312 184.842 270.199 184.619 269.128L184.072 266.501L191.93 264L193.003 266.459C193.44 267.463 194.11 268.352 194.945 269.053L184.534 272.367Z" fill="white"/>
<path d="M224.89 314.649L217.527 316.993L219.176 322.175L226.54 319.831L224.89 314.649Z" fill="white"/>
<path d="M228.906 321.045L226.12 312.29L216.958 315.206L216.569 313.983C216.161 312.702 216.289 311.376 216.827 310.245L216.82 310.222L229.436 306.206L229.443 306.229C230.536 306.841 231.407 307.849 231.815 309.13L236.331 323.317L221.084 328.17L219.745 323.961L228.906 321.045ZM227.616 300.489L215 304.504L216.251 308.435L228.867 304.419L227.616 300.489ZM215.534 302.367C215.809 301.312 215.842 300.199 215.619 299.128L215.072 296.501L222.93 294L224.003 296.459C224.44 297.463 225.11 298.352 225.945 299.053L215.534 302.367Z" fill="white"/>
<path d="M254.89 344.649L247.527 346.993L249.176 352.175L256.54 349.831L254.89 344.649Z" fill="white"/>
<path d="M258.906 351.045L256.12 342.29L246.958 345.206L246.569 343.983C246.161 342.702 246.289 341.376 246.827 340.245L246.82 340.222L259.436 336.206L259.443 336.229C260.536 336.841 261.407 337.849 261.815 339.13L266.331 353.317L251.084 358.17L249.745 353.961L258.906 351.045ZM257.616 330.489L245 334.504L246.251 338.435L258.867 334.419L257.616 330.489ZM245.534 332.367C245.809 331.312 245.842 330.199 245.619 329.128L245.072 326.501L252.93 324L254.002 326.459C254.44 327.463 255.11 328.352 255.945 329.053L245.534 332.367Z" fill="white"/>
<path d="M283.89 374.649L276.527 376.993L278.176 382.175L285.54 379.831L283.89 374.649Z" fill="white"/>
<path d="M287.906 381.045L285.12 372.29L275.958 375.206L275.569 373.983C275.161 372.702 275.289 371.376 275.827 370.245L275.82 370.222L288.436 366.206L288.443 366.229C289.536 366.841 290.407 367.849 290.815 369.13L295.331 383.317L280.084 388.17L278.745 383.961L287.906 381.045ZM286.616 360.489L274 364.504L275.251 368.435L287.867 364.419L286.616 360.489ZM274.534 362.367C274.809 361.312 274.842 360.199 274.619 359.128L274.072 356.501L281.93 354L283.002 356.459C283.44 357.463 284.11 358.352 284.945 359.053L274.534 362.367Z" fill="white"/>
<path d="M-5.10991 145.649L-12.4733 147.993L-10.8239 153.175L-3.46046 150.831L-5.10991 145.649Z" fill="white"/>
<path d="M-1.09357 152.045L-3.88045 143.29L-13.042 146.206L-13.4314 144.983C-13.8392 143.702 -13.7107 142.376 -13.1727 141.245L-13.1801 141.222L-0.564407 137.206L-0.557022 137.229C0.53566 137.841 1.40692 138.849 1.81476 140.13L6.33055 154.317L-8.91566 159.17L-10.2552 154.961L-1.09357 152.045ZM-2.38434 131.489L-15 135.504L-13.7488 139.435L-1.13315 135.419L-2.38434 131.489ZM-14.4664 133.367C-14.191 132.312 -14.1577 131.199 -14.3808 130.128L-14.9278 127.501L-7.06972 125L-5.99753 127.459C-5.56035 128.463 -4.88979 129.352 -4.05547 130.053L-14.4664 133.367Z" fill="white"/>
<path d="M22.8901 175.649L15.5267 177.993L17.1761 183.175L24.5395 180.831L22.8901 175.649Z" fill="white"/>
<path d="M26.9064 182.045L24.1195 173.29L14.958 176.206L14.5686 174.983C14.1608 173.702 14.2893 172.376 14.8273 171.245L14.8199 171.222L27.4356 167.206L27.443 167.229C28.5357 167.841 29.4069 168.849 29.8148 170.13L34.3306 184.317L19.0843 189.17L17.7448 184.961L26.9064 182.045ZM25.6157 161.489L13 165.504L14.2512 169.435L26.8669 165.419L25.6157 161.489ZM13.5336 163.367C13.809 162.312 13.8423 161.199 13.6192 160.128L13.0722 157.501L20.9303 155L22.0025 157.459C22.4397 158.463 23.1102 159.352 23.9445 160.053L13.5336 163.367Z" fill="white"/>
<path d="M54.8901 205.649L47.5267 207.993L49.1761 213.175L56.5395 210.831L54.8901 205.649Z" fill="white"/>
<path d="M58.9064 212.045L56.1195 203.29L46.958 206.206L46.5686 204.983C46.1608 203.702 46.2893 202.376 46.8273 201.245L46.8199 201.222L59.4356 197.206L59.443 197.229C60.5357 197.841 61.4069 198.849 61.8148 200.13L66.3306 214.317L51.0843 219.17L49.7448 214.961L58.9064 212.045ZM57.6157 191.489L45 195.504L46.2512 199.435L58.8669 195.419L57.6157 191.489ZM45.5336 193.367C45.809 192.312 45.8423 191.199 45.6192 190.128L45.0722 187.501L52.9303 185L54.0025 187.459C54.4397 188.463 55.1102 189.352 55.9445 190.053L45.5336 193.367Z" fill="white"/>
<path d="M84.8901 233.649L77.5267 235.993L79.1761 241.175L86.5395 238.831L84.8901 233.649Z" fill="white"/>
<path d="M88.9064 240.045L86.1195 231.29L76.958 234.206L76.5686 232.983C76.1608 231.702 76.2893 230.376 76.8273 229.245L76.8199 229.222L89.4356 225.206L89.443 225.229C90.5357 225.841 91.4069 226.849 91.8148 228.13L96.3306 242.317L81.0843 247.17L79.7448 242.961L88.9064 240.045ZM87.6157 219.489L75 223.504L76.2512 227.435L88.8669 223.419L87.6157 219.489ZM75.5336 221.367C75.809 220.312 75.8423 219.199 75.6192 218.128L75.0722 215.501L82.9303 213L84.0025 215.459C84.4397 216.463 85.1102 217.352 85.9445 218.053L75.5336 221.367Z" fill="white"/>
<path d="M113.89 263.649L106.527 265.993L108.176 271.175L115.54 268.831L113.89 263.649Z" fill="white"/>
<path d="M117.906 270.045L115.12 261.29L105.958 264.206L105.569 262.983C105.161 261.702 105.289 260.376 105.827 259.245L105.82 259.222L118.436 255.206L118.443 255.229C119.536 255.841 120.407 256.849 120.815 258.13L125.331 272.317L110.084 277.17L108.745 272.961L117.906 270.045ZM116.616 249.489L104 253.504L105.251 257.435L117.867 253.419L116.616 249.489ZM104.534 251.367C104.809 250.312 104.842 249.199 104.619 248.128L104.072 245.501L111.93 243L113.002 245.459C113.44 246.463 114.11 247.352 114.945 248.053L104.534 251.367Z" fill="white"/>
<path d="M145.89 293.649L138.527 295.993L140.176 301.175L147.54 298.831L145.89 293.649Z" fill="white"/>
<path d="M149.906 300.045L147.12 291.29L137.958 294.206L137.569 292.983C137.161 291.702 137.289 290.376 137.827 289.245L137.82 289.222L150.436 285.206L150.443 285.229C151.536 285.841 152.407 286.849 152.815 288.13L157.331 302.317L142.084 307.17L140.745 302.961L149.906 300.045ZM148.616 279.489L136 283.504L137.251 287.435L149.867 283.419L148.616 279.489ZM136.534 281.367C136.809 280.312 136.842 279.199 136.619 278.128L136.072 275.501L143.93 273L145.003 275.459C145.44 276.463 146.11 277.352 146.945 278.053L136.534 281.367Z" fill="white"/>
<path d="M173.89 323.649L166.527 325.993L168.176 331.175L175.54 328.831L173.89 323.649Z" fill="white"/>
<path d="M177.906 330.045L175.12 321.29L165.958 324.206L165.569 322.983C165.161 321.702 165.289 320.376 165.827 319.245L165.82 319.222L178.436 315.206L178.443 315.229C179.536 315.841 180.407 316.849 180.815 318.13L185.331 332.317L170.084 337.17L168.745 332.961L177.906 330.045ZM176.616 309.489L164 313.504L165.251 317.435L177.867 313.419L176.616 309.489ZM164.534 311.367C164.809 310.312 164.842 309.199 164.619 308.128L164.072 305.501L171.93 303L173.003 305.459C173.44 306.463 174.11 307.352 174.945 308.053L164.534 311.367Z" fill="white"/>
<path d="M204.89 353.649L197.527 355.993L199.176 361.175L206.54 358.831L204.89 353.649Z" fill="white"/>
<path d="M208.906 360.045L206.12 351.29L196.958 354.206L196.569 352.983C196.161 351.702 196.289 350.376 196.827 349.245L196.82 349.222L209.436 345.206L209.443 345.229C210.536 345.841 211.407 346.849 211.815 348.13L216.331 362.317L201.084 367.17L199.745 362.961L208.906 360.045ZM207.616 339.489L195 343.504L196.251 347.435L208.867 343.419L207.616 339.489ZM195.534 341.367C195.809 340.312 195.842 339.199 195.619 338.128L195.072 335.501L202.93 333L204.003 335.459C204.44 336.463 205.11 337.352 205.945 338.053L195.534 341.367Z" fill="white"/>
<path d="M234.89 383.649L227.527 385.993L229.176 391.175L236.54 388.831L234.89 383.649Z" fill="white"/>
<path d="M238.906 390.045L236.12 381.29L226.958 384.206L226.569 382.983C226.161 381.702 226.289 380.376 226.827 379.245L226.82 379.222L239.436 375.206L239.443 375.229C240.536 375.841 241.407 376.849 241.815 378.13L246.331 392.317L231.084 397.17L229.745 392.961L238.906 390.045ZM237.616 369.489L225 373.504L226.251 377.435L238.867 373.419L237.616 369.489ZM225.534 371.367C225.809 370.312 225.842 369.199 225.619 368.128L225.072 365.501L232.93 363L234.002 365.459C234.44 366.463 235.11 367.352 235.945 368.053L225.534 371.367Z" fill="white"/>
<path d="M263.89 413.649L256.527 415.993L258.176 421.175L265.54 418.831L263.89 413.649Z" fill="white"/>
<path d="M267.906 420.045L265.12 411.29L255.958 414.206L255.569 412.983C255.161 411.702 255.289 410.376 255.827 409.245L255.82 409.222L268.436 405.206L268.443 405.229C269.536 405.841 270.407 406.849 270.815 408.13L275.331 422.317L260.084 427.17L258.745 422.961L267.906 420.045ZM266.616 399.489L254 403.504L255.251 407.435L267.867 403.419L266.616 399.489ZM254.534 401.367C254.809 400.312 254.842 399.199 254.619 398.128L254.072 395.501L261.93 393L263.002 395.459C263.44 396.463 264.11 397.352 264.945 398.053L254.534 401.367Z" fill="white"/>
<path d="M-38.1099 177.649L-45.4733 179.993L-43.8239 185.175L-36.4605 182.831L-38.1099 177.649Z" fill="white"/>
<path d="M-34.0936 184.045L-36.8805 175.29L-46.042 178.206L-46.4314 176.983C-46.8392 175.702 -46.7107 174.376 -46.1727 173.245L-46.1801 173.222L-33.5644 169.206L-33.557 169.229C-32.4643 169.841 -31.5931 170.849 -31.1852 172.13L-26.6694 186.317L-41.9157 191.17L-43.2552 186.961L-34.0936 184.045ZM-35.3843 163.489L-48 167.504L-46.7488 171.435L-34.1331 167.419L-35.3843 163.489ZM-47.4664 165.367C-47.191 164.312 -47.1577 163.199 -47.3808 162.128L-47.9278 159.501L-40.0697 157L-38.9975 159.459C-38.5603 160.463 -37.8898 161.352 -37.0555 162.053L-47.4664 165.367Z" fill="white"/>
<path d="M-10.1099 207.649L-17.4733 209.993L-15.8239 215.175L-8.46048 212.831L-10.1099 207.649Z" fill="white"/>
<path d="M-6.09357 214.045L-8.88046 205.29L-18.042 208.206L-18.4314 206.983C-18.8392 205.702 -18.7107 204.376 -18.1727 203.245L-18.1801 203.222L-5.56442 199.206L-5.55702 199.229C-4.46434 199.841 -3.59308 200.849 -3.18524 202.13L1.33055 216.317L-13.9157 221.17L-15.2552 216.961L-6.09357 214.045ZM-7.38434 193.489L-20 197.504L-18.7488 201.435L-6.13315 197.419L-7.38434 193.489ZM-19.4664 195.367C-19.191 194.312 -19.1577 193.199 -19.3808 192.128L-19.9278 189.501L-12.0697 187L-10.9975 189.459C-10.5603 190.463 -9.8898 191.352 -9.05548 192.053L-19.4664 195.367Z" fill="white"/>
<path d="M21.8901 237.649L14.5267 239.993L16.1761 245.175L23.5395 242.831L21.8901 237.649Z" fill="white"/>
<path d="M25.9064 244.045L23.1195 235.29L13.958 238.206L13.5686 236.983C13.1608 235.702 13.2893 234.376 13.8273 233.245L13.8199 233.222L26.4356 229.206L26.443 229.229C27.5357 229.841 28.4069 230.849 28.8148 232.13L33.3306 246.317L18.0843 251.17L16.7448 246.961L25.9064 244.045ZM24.6157 223.489L12 227.504L13.2512 231.435L25.8669 227.419L24.6157 223.489ZM12.5336 225.367C12.809 224.312 12.8423 223.199 12.6192 222.128L12.0722 219.501L19.9303 217L21.0025 219.459C21.4397 220.463 22.1102 221.352 22.9445 222.053L12.5336 225.367Z" fill="white"/>
<path d="M51.8901 265.649L44.5267 267.993L46.1761 273.175L53.5395 270.831L51.8901 265.649Z" fill="white"/>
<path d="M55.9064 272.045L53.1195 263.29L43.958 266.206L43.5686 264.983C43.1608 263.702 43.2893 262.376 43.8273 261.245L43.8199 261.222L56.4356 257.206L56.443 257.229C57.5357 257.841 58.4069 258.849 58.8148 260.13L63.3306 274.317L48.0843 279.17L46.7448 274.961L55.9064 272.045ZM54.6157 251.489L42 255.504L43.2512 259.435L55.8669 255.419L54.6157 251.489ZM42.5336 253.367C42.809 252.312 42.8423 251.199 42.6192 250.128L42.0722 247.501L49.9303 245L51.0025 247.459C51.4397 248.463 52.1102 249.352 52.9445 250.053L42.5336 253.367Z" fill="white"/>
<path d="M80.8901 295.649L73.5267 297.993L75.1761 303.175L82.5395 300.831L80.8901 295.649Z" fill="white"/>
<path d="M84.9064 302.045L82.1196 293.29L72.958 296.206L72.5686 294.983C72.1608 293.702 72.2893 292.376 72.8273 291.245L72.8199 291.222L85.4356 287.206L85.443 287.229C86.5357 287.841 87.4069 288.849 87.8148 290.13L92.3306 304.317L77.0843 309.17L75.7448 304.961L84.9064 302.045ZM83.6157 281.489L71 285.504L72.2512 289.435L84.8669 285.419L83.6157 281.489ZM71.5336 283.367C71.809 282.312 71.8423 281.199 71.6192 280.128L71.0722 277.501L78.9303 275L80.0025 277.459C80.4397 278.463 81.1102 279.352 81.9445 280.053L71.5336 283.367Z" fill="white"/>
<path d="M112.89 325.649L105.527 327.993L107.176 333.175L114.54 330.831L112.89 325.649Z" fill="white"/>
<path d="M116.906 332.045L114.12 323.29L104.958 326.206L104.569 324.983C104.161 323.702 104.289 322.376 104.827 321.245L104.82 321.222L117.436 317.206L117.443 317.229C118.536 317.841 119.407 318.849 119.815 320.13L124.331 334.317L109.084 339.17L107.745 334.961L116.906 332.045ZM115.616 311.489L103 315.504L104.251 319.435L116.867 315.419L115.616 311.489ZM103.534 313.367C103.809 312.312 103.842 311.199 103.619 310.128L103.072 307.501L110.93 305L112.002 307.459C112.44 308.463 113.11 309.352 113.945 310.053L103.534 313.367Z" fill="white"/>
<path d="M140.89 355.649L133.527 357.993L135.176 363.175L142.54 360.831L140.89 355.649Z" fill="white"/>
<path d="M144.906 362.045L142.12 353.29L132.958 356.206L132.569 354.983C132.161 353.702 132.289 352.376 132.827 351.245L132.82 351.222L145.436 347.206L145.443 347.229C146.536 347.841 147.407 348.849 147.815 350.13L152.331 364.317L137.084 369.17L135.745 364.961L144.906 362.045ZM143.616 341.489L131 345.504L132.251 349.435L144.867 345.419L143.616 341.489ZM131.534 343.367C131.809 342.312 131.842 341.199 131.619 340.128L131.072 337.501L138.93 335L140.003 337.459C140.44 338.463 141.11 339.352 141.945 340.053L131.534 343.367Z" fill="white"/>
<path d="M171.89 385.649L164.527 387.993L166.176 393.175L173.54 390.831L171.89 385.649Z" fill="white"/>
<path d="M175.906 392.045L173.12 383.29L163.958 386.206L163.569 384.983C163.161 383.702 163.289 382.376 163.827 381.245L163.82 381.222L176.436 377.206L176.443 377.229C177.536 377.841 178.407 378.849 178.815 380.13L183.331 394.317L168.084 399.17L166.745 394.961L175.906 392.045ZM174.616 371.489L162 375.504L163.251 379.435L175.867 375.419L174.616 371.489ZM162.534 373.367C162.809 372.312 162.842 371.199 162.619 370.128L162.072 367.501L169.93 365L171.003 367.459C171.44 368.463 172.11 369.352 172.945 370.053L162.534 373.367Z" fill="white"/>
<path d="M201.89 415.649L194.527 417.993L196.176 423.175L203.54 420.831L201.89 415.649Z" fill="white"/>
<path d="M205.906 422.045L203.12 413.29L193.958 416.206L193.569 414.983C193.161 413.702 193.289 412.376 193.827 411.245L193.82 411.222L206.436 407.206L206.443 407.229C207.536 407.841 208.407 408.849 208.815 410.13L213.331 424.317L198.084 429.17L196.745 424.961L205.906 422.045ZM204.616 401.489L192 405.504L193.251 409.435L205.867 405.419L204.616 401.489ZM192.534 403.367C192.809 402.312 192.842 401.199 192.619 400.128L192.072 397.501L199.93 395L201.002 397.459C201.44 398.463 202.11 399.352 202.945 400.053L192.534 403.367Z" fill="white"/>
<path d="M230.89 445.649L223.527 447.993L225.176 453.175L232.54 450.831L230.89 445.649Z" fill="white"/>
<path d="M234.906 452.045L232.12 443.29L222.958 446.206L222.569 444.983C222.161 443.702 222.289 442.376 222.827 441.245L222.82 441.222L235.436 437.206L235.443 437.229C236.536 437.841 237.407 438.849 237.815 440.13L242.331 454.317L227.084 459.17L225.745 454.961L234.906 452.045ZM233.616 431.489L221 435.504L222.251 439.435L234.867 435.419L233.616 431.489ZM221.534 433.367C221.809 432.312 221.842 431.199 221.619 430.128L221.072 427.501L228.93 425L230.002 427.459C230.44 428.463 231.11 429.352 231.945 430.053L221.534 433.367Z" fill="white"/>
<path d="M-71.1099 202.649L-78.4733 204.993L-76.8239 210.175L-69.4605 207.831L-71.1099 202.649Z" fill="white"/>
<path d="M-67.0936 209.045L-69.8805 200.29L-79.042 203.206L-79.4314 201.983C-79.8392 200.702 -79.7107 199.376 -79.1727 198.245L-79.1801 198.222L-66.5644 194.206L-66.557 194.229C-65.4643 194.841 -64.5931 195.849 -64.1852 197.13L-59.6694 211.317L-74.9157 216.17L-76.2552 211.961L-67.0936 209.045ZM-68.3843 188.489L-81 192.504L-79.7488 196.435L-67.1331 192.419L-68.3843 188.489ZM-80.4664 190.367C-80.191 189.312 -80.1577 188.199 -80.3808 187.128L-80.9278 184.501L-73.0697 182L-71.9975 184.459C-71.5603 185.463 -70.8898 186.352 -70.0555 187.053L-80.4664 190.367Z" fill="white"/>
<path d="M-43.1099 232.649L-50.4733 234.993L-48.8239 240.175L-41.4605 237.831L-43.1099 232.649Z" fill="white"/>
<path d="M-39.0936 239.045L-41.8805 230.29L-51.042 233.206L-51.4314 231.983C-51.8392 230.702 -51.7107 229.376 -51.1727 228.245L-51.1801 228.222L-38.5644 224.206L-38.557 224.229C-37.4643 224.841 -36.5931 225.849 -36.1852 227.13L-31.6694 241.317L-46.9157 246.17L-48.2552 241.961L-39.0936 239.045ZM-40.3843 218.489L-53 222.504L-51.7488 226.435L-39.1332 222.419L-40.3843 218.489ZM-52.4664 220.367C-52.191 219.312 -52.1577 218.199 -52.3808 217.128L-52.9278 214.501L-45.0697 212L-43.9975 214.459C-43.5604 215.463 -42.8898 216.352 -42.0555 217.053L-52.4664 220.367Z" fill="white"/>
<path d="M-11.1099 262.649L-18.4733 264.993L-16.8239 270.175L-9.46048 267.831L-11.1099 262.649Z" fill="white"/>
<path d="M-7.09357 269.045L-9.88046 260.29L-19.042 263.206L-19.4314 261.983C-19.8392 260.702 -19.7107 259.376 -19.1727 258.245L-19.1801 258.222L-6.56442 254.206L-6.55702 254.229C-5.46434 254.841 -4.59308 255.849 -4.18524 257.13L0.330551 271.317L-14.9157 276.17L-16.2552 271.961L-7.09357 269.045ZM-8.38434 248.489L-21 252.504L-19.7488 256.435L-7.13315 252.419L-8.38434 248.489ZM-20.4664 250.367C-20.191 249.312 -20.1577 248.199 -20.3808 247.128L-20.9278 244.501L-13.0697 242L-11.9975 244.459C-11.5603 245.463 -10.8898 246.352 -10.0555 247.053L-20.4664 250.367Z" fill="white"/>
<path d="M18.8901 290.649L11.5267 292.993L13.1761 298.175L20.5395 295.831L18.8901 290.649Z" fill="white"/>
<path d="M22.9064 297.045L20.1195 288.29L10.958 291.206L10.5686 289.983C10.1608 288.702 10.2893 287.376 10.8273 286.245L10.8199 286.222L23.4356 282.206L23.443 282.229C24.5357 282.841 25.4069 283.849 25.8148 285.13L30.3306 299.317L15.0843 304.17L13.7448 299.961L22.9064 297.045ZM21.6157 276.489L9 280.504L10.2512 284.435L22.8669 280.419L21.6157 276.489ZM9.53363 278.367C9.80902 277.312 9.84233 276.199 9.61919 275.128L9.0722 272.501L16.9303 270L18.0025 272.459C18.4397 273.463 19.1102 274.352 19.9445 275.053L9.53363 278.367Z" fill="white"/>
<path d="M47.8901 320.649L40.5267 322.993L42.1761 328.175L49.5395 325.831L47.8901 320.649Z" fill="white"/>
<path d="M51.9064 327.045L49.1196 318.29L39.958 321.206L39.5686 319.983C39.1608 318.702 39.2893 317.376 39.8273 316.245L39.8199 316.222L52.4356 312.206L52.443 312.229C53.5357 312.841 54.4069 313.849 54.8148 315.13L59.3306 329.317L44.0843 334.17L42.7448 329.961L51.9064 327.045ZM50.6157 306.489L38 310.504L39.2512 314.435L51.8669 310.419L50.6157 306.489ZM38.5336 308.367C38.809 307.312 38.8423 306.199 38.6192 305.128L38.0722 302.501L45.9303 300L47.0025 302.459C47.4397 303.463 48.1102 304.352 48.9445 305.053L38.5336 308.367Z" fill="white"/>
<path d="M79.8901 350.649L72.5267 352.993L74.1761 358.175L81.5395 355.831L79.8901 350.649Z" fill="white"/>
<path d="M83.9064 357.045L81.1196 348.29L71.958 351.206L71.5686 349.983C71.1608 348.702 71.2893 347.376 71.8273 346.245L71.8199 346.222L84.4356 342.206L84.443 342.229C85.5357 342.841 86.4069 343.849 86.8148 345.13L91.3306 359.317L76.0843 364.17L74.7448 359.961L83.9064 357.045ZM82.6157 336.489L70 340.504L71.2512 344.435L83.8669 340.419L82.6157 336.489ZM70.5336 338.367C70.809 337.312 70.8423 336.199 70.6192 335.128L70.0722 332.501L77.9303 330L79.0025 332.459C79.4397 333.463 80.1102 334.352 80.9445 335.053L70.5336 338.367Z" fill="white"/>
<path d="M107.89 380.649L100.527 382.993L102.176 388.175L109.54 385.831L107.89 380.649Z" fill="white"/>
<path d="M111.906 387.045L109.12 378.29L99.958 381.206L99.5686 379.983C99.1608 378.702 99.2893 377.376 99.8273 376.245L99.8199 376.222L112.436 372.206L112.443 372.229C113.536 372.841 114.407 373.849 114.815 375.13L119.331 389.317L104.084 394.17L102.745 389.961L111.906 387.045ZM110.616 366.489L98 370.504L99.2512 374.435L111.867 370.419L110.616 366.489ZM98.5336 368.367C98.809 367.312 98.8423 366.199 98.6192 365.128L98.0722 362.501L105.93 360L107.002 362.459C107.44 363.463 108.11 364.352 108.945 365.053L98.5336 368.367Z" fill="white"/>
<path d="M138.89 410.649L131.527 412.993L133.176 418.175L140.54 415.831L138.89 410.649Z" fill="white"/>
<path d="M142.906 417.045L140.12 408.29L130.958 411.206L130.569 409.983C130.161 408.702 130.289 407.376 130.827 406.245L130.82 406.222L143.436 402.206L143.443 402.229C144.536 402.841 145.407 403.849 145.815 405.13L150.331 419.317L135.084 424.17L133.745 419.961L142.906 417.045ZM141.616 396.489L129 400.504L130.251 404.435L142.867 400.419L141.616 396.489ZM129.534 398.367C129.809 397.312 129.842 396.199 129.619 395.128L129.072 392.501L136.93 390L138.003 392.459C138.44 393.463 139.11 394.352 139.945 395.053L129.534 398.367Z" fill="white"/>
<path d="M168.89 440.649L161.527 442.993L163.176 448.175L170.54 445.831L168.89 440.649Z" fill="white"/>
<path d="M172.906 447.045L170.12 438.29L160.958 441.206L160.569 439.983C160.161 438.702 160.289 437.376 160.827 436.245L160.82 436.222L173.436 432.206L173.443 432.229C174.536 432.841 175.407 433.849 175.815 435.13L180.331 449.317L165.084 454.17L163.745 449.961L172.906 447.045ZM171.616 426.489L159 430.504L160.251 434.435L172.867 430.419L171.616 426.489ZM159.534 428.367C159.809 427.312 159.842 426.199 159.619 425.128L159.072 422.501L166.93 420L168.002 422.459C168.44 423.463 169.11 424.352 169.945 425.053L159.534 428.367Z" fill="white"/>
<path d="M197.89 470.649L190.527 472.993L192.176 478.175L199.54 475.831L197.89 470.649Z" fill="white"/>
<path d="M201.906 477.045L199.12 468.29L189.958 471.206L189.569 469.983C189.161 468.702 189.289 467.376 189.827 466.245L189.82 466.222L202.436 462.206L202.443 462.229C203.536 462.841 204.407 463.849 204.815 465.13L209.331 479.317L194.084 484.17L192.745 479.961L201.906 477.045ZM200.616 456.489L188 460.504L189.251 464.435L201.867 460.419L200.616 456.489ZM188.534 458.367C188.809 457.312 188.842 456.199 188.619 455.128L188.072 452.501L195.93 450L197.002 452.459C197.44 453.463 198.11 454.352 198.945 455.053L188.534 458.367Z" fill="white"/>
<path d="M-106.11 224.649L-113.473 226.993L-111.824 232.175L-104.46 229.831L-106.11 224.649Z" fill="white"/>
<path d="M-102.094 231.045L-104.88 222.29L-114.042 225.206L-114.431 223.983C-114.839 222.702 -114.711 221.376 -114.173 220.245L-114.18 220.222L-101.564 216.206L-101.557 216.229C-100.464 216.841 -99.5931 217.849 -99.1852 219.13L-94.6694 233.317L-109.916 238.17L-111.255 233.961L-102.094 231.045ZM-103.384 210.489L-116 214.504L-114.749 218.435L-102.133 214.419L-103.384 210.489ZM-115.466 212.367C-115.191 211.312 -115.158 210.199 -115.381 209.128L-115.928 206.501L-108.07 204L-106.998 206.459C-106.56 207.463 -105.89 208.352 -105.055 209.053L-115.466 212.367Z" fill="white"/>
<path d="M-78.1099 254.649L-85.4733 256.993L-83.8239 262.175L-76.4605 259.831L-78.1099 254.649Z" fill="white"/>
<path d="M-74.0936 261.045L-76.8805 252.29L-86.042 255.206L-86.4314 253.983C-86.8392 252.702 -86.7107 251.376 -86.1727 250.245L-86.1801 250.222L-73.5644 246.206L-73.557 246.229C-72.4643 246.841 -71.5931 247.849 -71.1852 249.13L-66.6694 263.317L-81.9157 268.17L-83.2552 263.961L-74.0936 261.045ZM-75.3843 240.489L-88 244.504L-86.7488 248.435L-74.1332 244.419L-75.3843 240.489ZM-87.4664 242.367C-87.191 241.312 -87.1577 240.199 -87.3808 239.128L-87.9278 236.501L-80.0697 234L-78.9975 236.459C-78.5604 237.463 -77.8898 238.352 -77.0555 239.053L-87.4664 242.367Z" fill="white"/>
<path d="M-46.1099 284.649L-53.4733 286.993L-51.8239 292.175L-44.4605 289.831L-46.1099 284.649Z" fill="white"/>
<path d="M-42.0936 291.045L-44.8805 282.29L-54.042 285.206L-54.4314 283.983C-54.8392 282.702 -54.7107 281.376 -54.1727 280.245L-54.1801 280.222L-41.5644 276.206L-41.557 276.229C-40.4643 276.841 -39.5931 277.849 -39.1852 279.13L-34.6694 293.317L-49.9157 298.17L-51.2552 293.961L-42.0936 291.045ZM-43.3843 270.489L-56 274.504L-54.7488 278.435L-42.1332 274.419L-43.3843 270.489ZM-55.4664 272.367C-55.191 271.312 -55.1577 270.199 -55.3808 269.128L-55.9278 266.501L-48.0697 264L-46.9975 266.459C-46.5604 267.463 -45.8898 268.352 -45.0555 269.053L-55.4664 272.367Z" fill="white"/>
<path d="M-16.1099 312.649L-23.4733 314.993L-21.8239 320.175L-14.4605 317.831L-16.1099 312.649Z" fill="white"/>
<path d="M-12.0936 319.045L-14.8805 310.29L-24.042 313.206L-24.4314 311.983C-24.8392 310.702 -24.7107 309.376 -24.1727 308.245L-24.1801 308.222L-11.5644 304.206L-11.557 304.229C-10.4643 304.841 -9.59308 305.849 -9.18524 307.13L-4.66945 321.317L-19.9157 326.17L-21.2552 321.961L-12.0936 319.045ZM-13.3843 298.489L-26 302.504L-24.7488 306.435L-12.1332 302.419L-13.3843 298.489ZM-25.4664 300.367C-25.191 299.312 -25.1577 298.199 -25.3808 297.128L-25.9278 294.501L-18.0697 292L-16.9975 294.459C-16.5604 295.463 -15.8898 296.352 -15.0555 297.053L-25.4664 300.367Z" fill="white"/>
<path d="M12.8901 342.649L5.5267 344.993L7.17615 350.175L14.5395 347.831L12.8901 342.649Z" fill="white"/>
<path d="M16.9064 349.045L14.1196 340.29L4.95798 343.206L4.5686 341.983C4.1608 340.702 4.28932 339.376 4.82733 338.245L4.81995 338.222L17.4356 334.206L17.443 334.229C18.5357 334.841 19.4069 335.849 19.8148 337.13L24.3306 351.317L9.08434 356.17L7.74481 351.961L16.9064 349.045ZM15.6157 328.489L3 332.504L4.25119 336.435L16.8669 332.419L15.6157 328.489ZM3.53363 330.367C3.80902 329.312 3.84235 328.199 3.6192 327.128L3.0722 324.501L10.9303 322L12.0025 324.459C12.4397 325.463 13.1102 326.352 13.9445 327.053L3.53363 330.367Z" fill="white"/>
<path d="M44.8901 372.649L37.5267 374.993L39.1761 380.175L46.5395 377.831L44.8901 372.649Z" fill="white"/>
<path d="M48.9064 379.045L46.1196 370.29L36.958 373.206L36.5686 371.983C36.1608 370.702 36.2893 369.376 36.8273 368.245L36.8199 368.222L49.4356 364.206L49.443 364.229C50.5357 364.841 51.4069 365.849 51.8148 367.13L56.3306 381.317L41.0843 386.17L39.7448 381.961L48.9064 379.045ZM47.6157 358.489L35 362.504L36.2512 366.435L48.8669 362.419L47.6157 358.489ZM35.5336 360.367C35.809 359.312 35.8423 358.199 35.6192 357.128L35.0722 354.501L42.9303 352L44.0025 354.459C44.4397 355.463 45.1102 356.352 45.9445 357.053L35.5336 360.367Z" fill="white"/>
<path d="M72.8901 402.649L65.5267 404.993L67.1761 410.175L74.5395 407.831L72.8901 402.649Z" fill="white"/>
<path d="M76.9064 409.045L74.1196 400.29L64.958 403.206L64.5686 401.983C64.1608 400.702 64.2893 399.376 64.8273 398.245L64.8199 398.222L77.4356 394.206L77.443 394.229C78.5357 394.841 79.4069 395.849 79.8148 397.13L84.3306 411.317L69.0843 416.17L67.7448 411.961L76.9064 409.045ZM75.6157 388.489L63 392.504L64.2512 396.435L76.8669 392.419L75.6157 388.489ZM63.5336 390.367C63.809 389.312 63.8423 388.199 63.6192 387.128L63.0722 384.501L70.9303 382L72.0025 384.459C72.4397 385.463 73.1102 386.352 73.9445 387.053L63.5336 390.367Z" fill="white"/>
<path d="M103.89 432.649L96.5267 434.993L98.1761 440.175L105.54 437.831L103.89 432.649Z" fill="white"/>
<path d="M107.906 439.045L105.12 430.29L95.958 433.206L95.5686 431.983C95.1608 430.702 95.2893 429.376 95.8273 428.245L95.8199 428.222L108.436 424.206L108.443 424.229C109.536 424.841 110.407 425.849 110.815 427.13L115.331 441.317L100.084 446.17L98.7448 441.961L107.906 439.045ZM106.616 418.489L94 422.504L95.2512 426.435L107.867 422.419L106.616 418.489ZM94.5336 420.367C94.809 419.312 94.8423 418.199 94.6192 417.128L94.0722 414.501L101.93 412L103.002 414.459C103.44 415.463 104.11 416.352 104.945 417.053L94.5336 420.367Z" fill="white"/>
<path d="M133.89 462.649L126.527 464.993L128.176 470.175L135.54 467.831L133.89 462.649Z" fill="white"/>
<path d="M137.906 469.045L135.12 460.29L125.958 463.206L125.569 461.983C125.161 460.702 125.289 459.376 125.827 458.245L125.82 458.222L138.436 454.206L138.443 454.229C139.536 454.841 140.407 455.849 140.815 457.13L145.331 471.317L130.084 476.17L128.745 471.961L137.906 469.045ZM136.616 448.489L124 452.504L125.251 456.435L137.867 452.419L136.616 448.489ZM124.534 450.367C124.809 449.312 124.842 448.199 124.619 447.128L124.072 444.501L131.93 442L133.002 444.459C133.44 445.463 134.11 446.352 134.945 447.053L124.534 450.367Z" fill="white"/>
<path d="M162.89 492.649L155.527 494.993L157.176 500.175L164.54 497.831L162.89 492.649Z" fill="white"/>
<path d="M166.906 499.045L164.12 490.29L154.958 493.206L154.569 491.983C154.161 490.702 154.289 489.376 154.827 488.245L154.82 488.222L167.436 484.206L167.443 484.229C168.536 484.841 169.407 485.849 169.815 487.13L174.331 501.317L159.084 506.17L157.745 501.961L166.906 499.045ZM165.616 478.489L153 482.504L154.251 486.435L166.867 482.419L165.616 478.489ZM153.534 480.367C153.809 479.312 153.842 478.199 153.619 477.128L153.072 474.501L160.93 472L162.002 474.459C162.44 475.463 163.11 476.352 163.945 477.053L153.534 480.367Z" fill="white"/>
<path d="M-130.11 260.649L-137.473 262.993L-135.824 268.175L-128.46 265.831L-130.11 260.649Z" fill="white"/>
<path d="M-126.094 267.045L-128.88 258.29L-138.042 261.206L-138.431 259.983C-138.839 258.702 -138.711 257.376 -138.173 256.245L-138.18 256.222L-125.564 252.206L-125.557 252.229C-124.464 252.841 -123.593 253.849 -123.185 255.13L-118.669 269.317L-133.916 274.17L-135.255 269.961L-126.094 267.045ZM-127.384 246.489L-140 250.504L-138.749 254.435L-126.133 250.419L-127.384 246.489ZM-139.466 248.367C-139.191 247.312 -139.158 246.199 -139.381 245.128L-139.928 242.501L-132.07 240L-130.998 242.459C-130.56 243.463 -129.89 244.352 -129.055 245.053L-139.466 248.367Z" fill="white"/>
<path d="M-102.11 290.649L-109.473 292.993L-107.824 298.175L-100.46 295.831L-102.11 290.649Z" fill="white"/>
<path d="M-98.0936 297.045L-100.88 288.29L-110.042 291.206L-110.431 289.983C-110.839 288.702 -110.711 287.376 -110.173 286.245L-110.18 286.222L-97.5644 282.206L-97.557 282.229C-96.4643 282.841 -95.5931 283.849 -95.1852 285.13L-90.6694 299.317L-105.916 304.17L-107.255 299.961L-98.0936 297.045ZM-99.3843 276.489L-112 280.504L-110.749 284.435L-98.1332 280.419L-99.3843 276.489ZM-111.466 278.367C-111.191 277.312 -111.158 276.199 -111.381 275.128L-111.928 272.501L-104.07 270L-102.998 272.459C-102.56 273.463 -101.89 274.352 -101.055 275.053L-111.466 278.367Z" fill="white"/>
<path d="M-70.1099 320.649L-77.4733 322.993L-75.8239 328.175L-68.4605 325.831L-70.1099 320.649Z" fill="white"/>
<path d="M-66.0936 327.045L-68.8805 318.29L-78.042 321.206L-78.4314 319.983C-78.8392 318.702 -78.7107 317.376 -78.1727 316.245L-78.1801 316.222L-65.5644 312.206L-65.557 312.229C-64.4643 312.841 -63.5931 313.849 -63.1852 315.13L-58.6694 329.317L-73.9157 334.17L-75.2552 329.961L-66.0936 327.045ZM-67.3843 306.489L-80 310.504L-78.7488 314.435L-66.1332 310.419L-67.3843 306.489ZM-79.4664 308.367C-79.191 307.312 -79.1577 306.199 -79.3808 305.128L-79.9278 302.501L-72.0697 300L-70.9975 302.459C-70.5604 303.463 -69.8898 304.352 -69.0555 305.053L-79.4664 308.367Z" fill="white"/>
<path d="M-40.1099 348.649L-47.4733 350.993L-45.8239 356.175L-38.4605 353.831L-40.1099 348.649Z" fill="white"/>
<path d="M-36.0936 355.045L-38.8805 346.29L-48.042 349.206L-48.4314 347.983C-48.8392 346.702 -48.7107 345.376 -48.1727 344.245L-48.1801 344.222L-35.5644 340.206L-35.557 340.229C-34.4643 340.841 -33.5931 341.849 -33.1852 343.13L-28.6694 357.317L-43.9157 362.17L-45.2552 357.961L-36.0936 355.045ZM-37.3843 334.489L-50 338.504L-48.7488 342.435L-36.1332 338.419L-37.3843 334.489ZM-49.4664 336.367C-49.191 335.312 -49.1577 334.199 -49.3808 333.128L-49.9278 330.501L-42.0697 328L-40.9975 330.459C-40.5604 331.463 -39.8898 332.352 -39.0555 333.053L-49.4664 336.367Z" fill="white"/>
<path d="M-11.1099 378.649L-18.4733 380.993L-16.8239 386.175L-9.46046 383.831L-11.1099 378.649Z" fill="white"/>
<path d="M-7.09355 385.045L-9.88045 376.29L-19.042 379.206L-19.4314 377.983C-19.8392 376.702 -19.7107 375.376 -19.1727 374.245L-19.1801 374.222L-6.56441 370.206L-6.55701 370.229C-5.46432 370.841 -4.59306 371.849 -4.18523 373.13L0.330566 387.317L-14.9157 392.17L-16.2552 387.961L-7.09355 385.045ZM-8.38434 364.489L-21 368.504L-19.7488 372.435L-7.13315 368.419L-8.38434 364.489ZM-20.4664 366.367C-20.191 365.312 -20.1577 364.199 -20.3808 363.128L-20.9278 360.501L-13.0697 358L-11.9975 360.459C-11.5603 361.463 -10.8898 362.352 -10.0555 363.053L-20.4664 366.367Z" fill="white"/>
<path d="M20.8901 408.649L13.5267 410.993L15.1761 416.175L22.5395 413.831L20.8901 408.649Z" fill="white"/>
<path d="M24.9064 415.045L22.1196 406.29L12.958 409.206L12.5686 407.983C12.1608 406.702 12.2893 405.376 12.8273 404.245L12.8199 404.222L25.4356 400.206L25.443 400.229C26.5357 400.841 27.4069 401.849 27.8148 403.13L32.3306 417.317L17.0843 422.17L15.7448 417.961L24.9064 415.045ZM23.6157 394.489L11 398.504L12.2512 402.435L24.8669 398.419L23.6157 394.489ZM11.5336 396.367C11.809 395.312 11.8423 394.199 11.6192 393.128L11.0722 390.501L18.9303 388L20.0025 390.459C20.4397 391.463 21.1102 392.352 21.9445 393.053L11.5336 396.367Z" fill="white"/>
<path d="M48.8901 438.649L41.5267 440.993L43.1761 446.175L50.5395 443.831L48.8901 438.649Z" fill="white"/>
<path d="M52.9064 445.045L50.1196 436.29L40.958 439.206L40.5686 437.983C40.1608 436.702 40.2893 435.376 40.8273 434.245L40.8199 434.222L53.4356 430.206L53.443 430.229C54.5357 430.841 55.4069 431.849 55.8148 433.13L60.3306 447.317L45.0843 452.17L43.7448 447.961L52.9064 445.045ZM51.6157 424.489L39 428.504L40.2512 432.435L52.8669 428.419L51.6157 424.489ZM39.5336 426.367C39.809 425.312 39.8423 424.199 39.6192 423.128L39.0722 420.501L46.9303 418L48.0025 420.459C48.4397 421.463 49.1102 422.352 49.9445 423.053L39.5336 426.367Z" fill="white"/>
<path d="M79.8901 468.649L72.5267 470.993L74.1761 476.175L81.5395 473.831L79.8901 468.649Z" fill="white"/>
<path d="M83.9064 475.045L81.1196 466.29L71.958 469.206L71.5686 467.983C71.1608 466.702 71.2893 465.376 71.8273 464.245L71.8199 464.222L84.4356 460.206L84.443 460.229C85.5357 460.841 86.4069 461.849 86.8148 463.13L91.3306 477.317L76.0843 482.17L74.7448 477.961L83.9064 475.045ZM82.6157 454.489L70 458.504L71.2512 462.435L83.8669 458.419L82.6157 454.489ZM70.5336 456.367C70.809 455.312 70.8423 454.199 70.6192 453.128L70.0722 450.501L77.9303 448L79.0025 450.459C79.4397 451.463 80.1102 452.352 80.9445 453.053L70.5336 456.367Z" fill="white"/>
<path d="M109.89 498.649L102.527 500.993L104.176 506.175L111.54 503.831L109.89 498.649Z" fill="white"/>
<path d="M113.906 505.045L111.12 496.29L101.958 499.206L101.569 497.983C101.161 496.702 101.289 495.376 101.827 494.245L101.82 494.222L114.436 490.206L114.443 490.229C115.536 490.841 116.407 491.849 116.815 493.13L121.331 507.317L106.084 512.17L104.745 507.961L113.906 505.045ZM112.616 484.489L100 488.504L101.251 492.435L113.867 488.419L112.616 484.489ZM100.534 486.367C100.809 485.312 100.842 484.199 100.619 483.128L100.072 480.501L107.93 478L109.002 480.459C109.44 481.463 110.11 482.352 110.945 483.053L100.534 486.367Z" fill="white"/>
<path d="M138.89 528.649L131.527 530.993L133.176 536.175L140.54 533.831L138.89 528.649Z" fill="white"/>
<path d="M142.906 535.045L140.12 526.29L130.958 529.206L130.569 527.983C130.161 526.702 130.289 525.376 130.827 524.245L130.82 524.222L143.436 520.206L143.443 520.229C144.536 520.841 145.407 521.849 145.815 523.13L150.331 537.317L135.084 542.17L133.745 537.961L142.906 535.045ZM141.616 514.489L129 518.504L130.251 522.435L142.867 518.419L141.616 514.489ZM129.534 516.367C129.809 515.312 129.842 514.199 129.619 513.128L129.072 510.501L136.93 508L138.002 510.459C138.44 511.463 139.11 512.352 139.945 513.053L129.534 516.367Z" fill="white"/>
</g>
</g>
</svg>
