<svg width="35" height="24" viewBox="0 0 35 24" fill="none" xmlns="http://www.w3.org/2000/svg">
<g clip-path="url(#clip0_513_1080)">
<path d="M30.2202 0.5H4.22021C2.28722 0.5 0.720215 2.067 0.720215 4V20C0.720215 21.933 2.28722 23.5 4.22021 23.5H30.2202C32.1532 23.5 33.7202 21.933 33.7202 20V4C33.7202 2.067 32.1532 0.5 30.2202 0.5Z" fill="black" stroke="#232323"/>
<path d="M19.4778 11.7058C19.4778 15.4092 16.51 18.4115 12.849 18.4115C9.18804 18.4115 6.22021 15.4092 6.22021 11.7058C6.22021 8.00227 9.18804 5 12.849 5C16.51 5 19.4778 8.00227 19.4778 11.7058Z" fill="#ED0006"/>
<path d="M28.0774 11.7058C28.0774 15.4092 25.1096 18.4115 21.4486 18.4115C17.7876 18.4115 14.8198 15.4092 14.8198 11.7058C14.8198 8.00227 17.7876 5 21.4486 5C25.1096 5 28.0774 8.00227 28.0774 11.7058Z" fill="#0099DF"/>
<path fill-rule="evenodd" clip-rule="evenodd" d="M17.1488 6.60156C18.5741 7.83152 19.4778 9.66168 19.4778 11.7054C19.4778 13.7491 18.5741 15.5792 17.1488 16.8092C15.7236 15.5792 14.8198 13.7491 14.8198 11.7054C14.8198 9.66168 15.7236 7.83152 17.1488 6.60156Z" fill="#6C6BBD"/>
</g>
<defs>
<clipPath id="clip0_513_1080">
<rect width="34" height="24" fill="white" transform="translate(0.220215)"/>
</clipPath>
</defs>
</svg>
