<svg width="20" height="23" viewBox="0 0 20 23" fill="none" xmlns="http://www.w3.org/2000/svg">
<g opacity="1" clip-path="url(#clip0_513_29)">
<path d="M19.1015 5.58442H15.2832V5.14821C15.2832 2.3783 12.9697 0.131836 10.1172 0.131836C7.26465 0.131836 4.95117 2.3783 4.95117 5.14821V5.58442H1.13281C0.635864 5.58442 0.234375 5.97428 0.234375 6.45684V21.0697C0.234375 21.5524 0.635864 21.9422 1.13281 21.9422H19.1015C19.5985 21.9422 20 21.5524 20 21.0697V6.45684C20 5.97428 19.5985 5.58442 19.1015 5.58442ZM6.97266 5.14821C6.97266 3.46064 8.37927 2.09477 10.1172 2.09477C11.8551 2.09477 13.2617 3.46064 13.2617 5.14821V5.58442H6.97266V5.14821ZM17.9785 19.9793H2.25586V7.54736H4.95117V9.9465C4.95117 10.0665 5.05225 10.1646 5.17578 10.1646H6.74805C6.87159 10.1646 6.97266 10.0665 6.97266 9.9465V7.54736H13.2617V9.9465C13.2617 10.0665 13.3628 10.1646 13.4864 10.1646H15.0586C15.1821 10.1646 15.2832 10.0665 15.2832 9.9465V7.54736H17.9785V19.9793Z" fill="white"/>
<path d="M9.79768 19.2157V16.6802C9.47816 17.1055 8.83921 17.629 7.58044 18.0216C7.58044 18.0216 7.89993 17.0892 8.80088 16.4622C7.97022 16.6148 6.71782 16.593 5.00537 15.9442C5.00537 15.9442 6.58364 15.1754 8.37916 15.3826C7.36319 14.8536 6.09163 13.8067 5.114 11.6421C5.114 11.6421 7.98938 12.3127 9.42067 14.3848C8.12357 11.713 10.1172 8.31055 10.1172 8.31055C11.6699 11.2932 11.3376 13.2724 10.8328 14.3629C12.2705 12.3073 15.1203 11.6421 15.1203 11.6421C14.1427 13.8067 12.8711 14.8536 11.8552 15.3826C13.6507 15.1754 15.2289 15.9442 15.2289 15.9442C13.5165 16.593 12.2641 16.6148 11.4335 16.4622C12.3344 17.0892 12.6539 18.0216 12.6539 18.0216C11.3951 17.629 10.7561 17.1055 10.4366 16.6802V19.2157H9.79768Z" fill="white"/>
</g>
<defs>
<clipPath id="clip0_513_29">
<rect width="19.7656" height="22.3438" fill="white" transform="translate(0.234375 0.131836)"/>
</clipPath>
</defs>
</svg>
