<svg width="19" height="20" viewBox="0 0 19 20" fill="none" xmlns="http://www.w3.org/2000/svg">
<path d="M9.02344 0.420898C6.25926 0.420898 4.01042 2.65283 4.01042 5.39622C4.01042 8.13962 6.25926 10.3715 9.02344 10.3715C11.7876 10.3715 14.0364 8.13962 14.0364 5.39622C14.0364 2.65283 11.7876 0.420898 9.02344 0.420898ZM9.02344 8.38146C7.36513 8.38146 6.01562 7.04207 6.01562 5.39622C6.01562 3.75039 7.36513 2.41103 9.02344 2.41103C10.6818 2.41103 12.0312 3.75039 12.0312 5.39622C12.0312 7.04207 10.6818 8.38146 9.02344 8.38146ZM18.0469 19.3271V18.3321C18.0469 14.4921 14.8977 11.3666 11.0286 11.3666H7.01823C3.14817 11.3666 0 14.4921 0 18.3321V19.3271H2.00521V18.3321C2.00521 15.5887 4.25405 13.3567 7.01823 13.3567H11.0286C13.7928 13.3567 16.0417 15.5887 16.0417 18.3321V19.3271H18.0469Z" fill="white"/>
</svg>
