<svg width="16" height="13" viewBox="0 0 16 13" fill="none" xmlns="http://www.w3.org/2000/svg">
<path fill-rule="evenodd" clip-rule="evenodd" d="M15.9867 2.23197L9.22667 6.98824C8.86765 7.24122 8.4392 7.37701 8 7.37701C7.5608 7.37701 7.13235 7.24122 6.77333 6.98824L0.016 2.23304C0.00533332 2.3109 0.00266666 2.3901 0.00266666 2.47037C-2.48353e-09 4.51304 0 8.28317 0 10.3269C0 10.5717 0.04 10.8077 0.117333 11.0277L5.08267 7.5349C5.32267 7.3653 5.656 7.42344 5.824 7.66397C5.99467 7.90477 5.936 8.23784 5.696 8.40717L0.709333 11.9157C1.03584 12.2083 1.44463 12.3932 1.88 12.445L1.88267 12.4453C5.97867 12.917 10.056 12.9168 14.12 12.4448L14.1227 12.4445C14.557 12.3919 14.9647 12.2072 15.2907 11.9154L10.304 8.40717C10.2468 8.36679 10.1981 8.31553 10.1607 8.25632C10.1233 8.19711 10.0979 8.13111 10.086 8.06209C10.0741 7.99307 10.0759 7.92239 10.0914 7.85408C10.1068 7.78576 10.1356 7.72117 10.176 7.66397C10.2161 7.60675 10.2672 7.55802 10.3262 7.52055C10.3852 7.48309 10.451 7.45764 10.5199 7.44565C10.5888 7.43366 10.6593 7.43537 10.7275 7.45069C10.7957 7.466 10.8602 7.49462 10.9173 7.5349L15.88 11.0272C15.9573 10.8074 15.9973 10.5722 15.9973 10.3282C16 8.28557 16 4.51517 16 2.47144C16 2.39064 15.9947 2.31064 15.9867 2.23197ZM0.413333 1.20984L7.38667 6.11597C7.75467 6.37517 8.24533 6.37517 8.61333 6.11597L15.5867 1.2093C15.414 0.973594 15.1947 0.77595 14.9424 0.628682C14.6901 0.481414 14.4101 0.387675 14.12 0.353304L14.1173 0.353037C10.0518 -0.117857 5.94549 -0.117678 1.88 0.353571L1.87733 0.353837C1.58769 0.388621 1.30828 0.482551 1.05644 0.629801C0.804599 0.777051 0.585704 0.974479 0.413333 1.20984Z" fill="#D41D3A"/>
</svg>
