<svg width="35" height="24" viewBox="0 0 35 24" fill="none" xmlns="http://www.w3.org/2000/svg">
<g clip-path="url(#clip0_513_1075)">
<path d="M30.6099 0.5H4.60986C2.67687 0.5 1.10986 2.067 1.10986 4V20C1.10986 21.933 2.67687 23.5 4.60986 23.5H30.6099C32.5429 23.5 34.1099 21.933 34.1099 20V4C34.1099 2.067 32.5429 0.5 30.6099 0.5Z" fill="black" stroke="#232323"/>
<path fill-rule="evenodd" clip-rule="evenodd" d="M17.7889 16.8287C16.6048 17.8268 15.0689 18.4293 13.3906 18.4293C9.64568 18.4293 6.60986 15.4296 6.60986 11.7293C6.60986 8.029 9.64568 5.0293 13.3906 5.0293C15.0689 5.0293 16.6048 5.6318 17.7889 6.62984C18.9729 5.6318 20.5088 5.0293 22.1872 5.0293C25.932 5.0293 28.9679 8.029 28.9679 11.7293C28.9679 15.4296 25.932 18.4293 22.1872 18.4293C20.5088 18.4293 18.9729 17.8268 17.7889 16.8287Z" fill="#ED0006"/>
<path fill-rule="evenodd" clip-rule="evenodd" d="M17.7891 16.8287C19.247 15.5998 20.1715 13.7712 20.1715 11.7293C20.1715 9.68735 19.247 7.85875 17.7891 6.62984C18.9731 5.6318 20.509 5.0293 22.1873 5.0293C25.9322 5.0293 28.968 8.029 28.968 11.7293C28.968 15.4296 25.9322 18.4293 22.1873 18.4293C20.509 18.4293 18.9731 17.8268 17.7891 16.8287Z" fill="#F9A000"/>
<path fill-rule="evenodd" clip-rule="evenodd" d="M17.7887 16.8297C19.2466 15.6008 20.171 13.7722 20.171 11.7303C20.171 9.68835 19.2466 7.85976 17.7887 6.63086C16.3308 7.85976 15.4062 9.68835 15.4062 11.7303C15.4062 13.7722 16.3308 15.6008 17.7887 16.8297Z" fill="#FF5E00"/>
</g>
<defs>
<clipPath id="clip0_513_1075">
<rect width="34" height="24" fill="white" transform="translate(0.609863)"/>
</clipPath>
</defs>
</svg>
