<svg width="16" height="16" viewBox="0 0 16 16" fill="none" xmlns="http://www.w3.org/2000/svg">
<path fill-rule="evenodd" clip-rule="evenodd" d="M15.708 14.0737C15.6017 14.1796 15.4736 14.315 15.3377 14.4582C14.9987 14.818 14.5752 15.2653 14.3098 15.4467C12.9132 16.401 11.0448 15.9444 9.72322 15.3937C7.9798 14.6673 6.08169 13.3283 4.37739 11.6238C2.67151 9.91918 1.33268 8.02047 0.606269 6.27805C0.0562644 4.95617 -0.401333 3.0874 0.553144 1.69051C0.734395 1.42489 1.18268 1.00204 1.542 0.66238C1.68575 0.526942 1.82012 0.398972 1.92637 0.293065C2.11501 0.105368 2.37029 0 2.6364 0C2.9025 0 3.15778 0.105368 3.34642 0.293065L5.91606 2.86196C6.10366 3.05059 6.20896 3.3058 6.20896 3.57183C6.20896 3.83785 6.10366 4.09307 5.91606 4.28169L5.21606 4.98029C4.98228 5.21236 4.82969 5.51371 4.78099 5.8395C4.73229 6.16528 4.79008 6.49808 4.94577 6.78837C5.90859 8.60559 7.39499 10.0917 9.21237 11.0542C9.5026 11.2099 9.83533 11.2676 10.161 11.2188C10.4867 11.17 10.7879 11.0174 11.0198 10.7835L11.7181 10.0849C11.9067 9.8972 12.162 9.79183 12.4281 9.79183C12.6942 9.79183 12.9495 9.8972 13.1382 10.0849L15.708 12.6542C15.8956 12.8428 16.0009 13.098 16.0009 13.3639C16.0009 13.6299 15.8956 13.8851 15.708 14.0737Z" fill="#D41D3A"/>
</svg>
