<svg width="13" height="11" viewBox="0 0 13 11" fill="none" xmlns="http://www.w3.org/2000/svg">
<g clip-path="url(#clip0_830_2170)">
<path d="M12.0195 4.18097C12.0195 4.01959 11.8948 3.9169 11.6454 3.87289L8.23446 3.36675L6.71605 0.285923C6.62802 0.109876 6.51799 0.0218515 6.38596 0.0218515C6.25392 0.0218515 6.14389 0.109876 6.05587 0.285923L4.53746 3.36675L1.12654 3.87289C0.877142 3.9169 0.752441 4.01959 0.752441 4.18097C0.752441 4.28367 0.811124 4.39369 0.928489 4.51106L3.39315 6.90971L2.79899 10.2986C2.79899 10.3573 2.79899 10.4013 2.79899 10.4307C2.79899 10.5187 2.821 10.5957 2.86501 10.6617C2.90902 10.7277 2.98238 10.7607 3.08507 10.7607C3.15842 10.7607 3.24645 10.7314 3.34914 10.6727L6.38596 9.08829L9.42278 10.6727C9.52547 10.7314 9.61349 10.7607 9.68685 10.7607C9.78954 10.7607 9.86289 10.7277 9.90691 10.6617C9.95092 10.5957 9.97292 10.5187 9.97292 10.4307C9.97292 10.372 9.97292 10.328 9.97292 10.2986L9.37876 6.90971L11.8434 4.51106C11.9608 4.39369 12.0195 4.28367 12.0195 4.18097Z" fill="#D41D3A"/>
</g>
<defs>
<clipPath id="clip0_830_2170">
<rect width="12.067" height="10.7829" fill="white" transform="matrix(1 0 0 -1 0.5 10.7832)"/>
</clipPath>
</defs>
</svg>
