<svg width="18" height="18" viewBox="0 0 18 18" fill="none" xmlns="http://www.w3.org/2000/svg">
<path d="M17.8201 13.1766C17.741 13.1286 15.8561 11.9963 13.4999 11.9963C13.2573 11.9963 13.0165 12.0059 12.7784 12.0205C13.3313 11.7202 13.8884 11.3723 14.4038 10.9695C16.8925 9.02526 17.9384 5.86662 17.9816 5.73323C18.0012 5.67244 18.0051 5.60764 17.9928 5.54494C17.9805 5.48224 17.9524 5.4237 17.9113 5.37485C17.827 5.27627 17.6996 5.23047 17.5696 5.24622C17.4619 5.26235 14.9102 5.66359 12.5745 7.7878C11.9433 8.362 11.3719 8.99963 10.8697 9.62604C11.0924 8.75695 11.2499 7.78203 11.2499 6.74313C11.2499 3.1495 9.39251 0.278507 9.31341 0.158308C9.17497 -0.0527694 8.82488 -0.0527694 8.68647 0.158308C8.60734 0.278507 6.74994 3.1495 6.74994 6.74313C6.74994 7.78207 6.90744 8.75695 7.13011 9.62608C6.62798 8.99967 6.05659 8.362 5.42536 7.78783C3.08966 5.66359 0.537925 5.26235 0.430277 5.24625C0.302485 5.2305 0.173216 5.27631 0.0885952 5.37489C0.0474078 5.42374 0.0193402 5.48227 0.00703861 5.54498C-0.00526299 5.60768 -0.00139325 5.67248 0.018283 5.73327C0.0614898 5.86665 1.10738 9.0253 3.59615 10.9696C4.11154 11.3723 4.66859 11.7202 5.22149 12.0206C4.98338 12.006 4.74259 11.9964 4.49998 11.9964C2.14379 11.9964 0.258926 13.1287 0.179825 13.1767C0.124752 13.2104 0.0792779 13.2576 0.0477825 13.314C0.0162872 13.3703 -0.000168071 13.4338 1.80417e-06 13.4984C0.000168103 13.563 0.0170096 13.6264 0.0488954 13.6826C0.0807813 13.7388 0.126631 13.7858 0.182005 13.819C0.262196 13.867 2.17272 14.9982 4.49998 14.9982C5.0191 14.9982 5.53069 14.9236 6.01672 14.8103C5.22121 15.7478 5.24786 16.8365 5.25035 16.8905C5.25286 16.9475 5.26831 17.0032 5.29553 17.0533C5.32275 17.1035 5.36103 17.1468 5.40747 17.1799C5.47095 17.2253 5.54701 17.2496 5.62501 17.2496C5.66091 17.2496 5.6968 17.2444 5.73196 17.2342C5.78835 17.2173 7.13015 16.808 8.15847 15.6189C8.34282 15.4058 8.49143 15.1945 8.62502 14.9872V17.6248C8.62502 17.8322 8.79275 18 9.00003 18C9.20731 18 9.37504 17.8322 9.37504 17.6248V14.9872C9.5086 15.1945 9.65724 15.4058 9.8416 15.6189C10.8699 16.808 12.2117 17.2173 12.2681 17.2342C12.3033 17.2444 12.3392 17.2496 12.3751 17.2496C12.4523 17.2496 12.5285 17.2258 12.5926 17.1799C12.639 17.1468 12.6773 17.1035 12.7045 17.0533C12.7318 17.0032 12.7472 16.9475 12.7497 16.8905C12.7522 16.8364 12.7791 15.745 11.9806 14.8067C12.4692 14.9221 12.9824 14.9982 13.5 14.9982C15.8562 14.9982 17.7411 13.8659 17.8202 13.8179C17.8751 13.7843 17.9205 13.7372 17.952 13.681C17.9835 13.6249 18 13.5616 18 13.4972C18 13.4328 17.9834 13.3695 17.9519 13.3134C17.9204 13.2573 17.875 13.2102 17.8201 13.1766Z" fill="white"/>
</svg>
