<svg width="34" height="24" viewBox="0 0 34 24" fill="none" xmlns="http://www.w3.org/2000/svg">
<g clip-path="url(#clip0_513_1072)">
<path d="M30 0.5H4C2.067 0.5 0.5 2.067 0.5 4V20C0.5 21.933 2.067 23.5 4 23.5H30C31.933 23.5 33.5 21.933 33.5 20V4C33.5 2.067 31.933 0.5 30 0.5Z" fill="black" stroke="#232323"/>
<path fill-rule="evenodd" clip-rule="evenodd" d="M10.7505 15.8579H8.6908L7.14624 9.79198C7.07293 9.51295 6.91727 9.26627 6.6883 9.15001C6.11688 8.85784 5.4872 8.62531 4.80029 8.50804V8.2745H8.11837C8.57631 8.2745 8.91977 8.62531 8.97701 9.03274L9.77841 13.4083L11.8371 8.2745H13.8396L10.7505 15.8579ZM14.9845 15.8579H13.0392L14.641 8.2745H16.5863L14.9845 15.8579ZM19.103 10.3753C19.1602 9.96689 19.5037 9.73335 19.9044 9.73335C20.534 9.67471 21.2199 9.79199 21.7924 10.0832L22.1358 8.45042C21.5634 8.21688 20.9337 8.09961 20.3623 8.09961C18.4743 8.09961 17.1005 9.15002 17.1005 10.6078C17.1005 11.7169 18.0736 12.2992 18.7605 12.65C19.5037 12.9998 19.7899 13.2334 19.7326 13.5832C19.7326 14.1079 19.1602 14.3414 18.5888 14.3414C17.9019 14.3414 17.2149 14.1665 16.5863 13.8743L16.2428 15.5081C16.9297 15.7992 17.6729 15.9165 18.3598 15.9165C20.4768 15.9741 21.7924 14.9247 21.7924 13.3496C21.7924 11.3661 19.103 11.2498 19.103 10.3753ZM28.6002 15.8579L27.0557 8.2745H25.3967C25.0532 8.2745 24.7097 8.50804 24.5953 8.85784L21.7351 15.8579H23.7376L24.1373 14.7498H26.5978L26.8267 15.8579H28.6002ZM25.6829 10.3167L26.2543 13.1747H24.6525L25.6829 10.3167Z" fill="white"/>
</g>
<defs>
<clipPath id="clip0_513_1072">
<rect width="34" height="24" fill="white"/>
</clipPath>
</defs>
</svg>
