<svg width="80" height="80" viewBox="0 0 80 80" fill="none" xmlns="http://www.w3.org/2000/svg">
<circle cx="40" cy="40" r="40" fill="white"/>
<path d="M50.7538 35.4837V32.6177H47.18L51.4685 26.8857H42.1766V29.7517H45.7504L41.4619 35.4837H50.7538ZM53.6128 15.3262V18.1922H57.2819L52.898 24.0197H62.1899V21.1537H58.6161L63 15.3262H53.6128ZM19.3043 59.8447C19.3043 62.219 21.2244 64.2392 23.5929 64.2392H55.0423C57.4108 64.2392 59.3309 62.219 59.3309 59.8447C59.3309 57.4704 57.4108 55.5457 55.0423 55.5457H48.5311C47.5407 53.8396 45.7173 52.6797 43.6062 52.6797C42.2573 52.6797 41.0338 53.1674 40.0559 53.9507C38.9152 51.5129 36.4632 49.8137 33.5995 49.8137C30.1416 49.8137 27.2585 52.2753 26.596 55.5457H23.5929C21.2244 55.5457 19.3043 57.4704 19.3043 59.8447Z" fill="#D41D3A"/>
<path d="M40.2125 23.5901L35.6755 24.2367C27.9722 25.3338 22.1634 32.0174 22.1634 39.7827C22.1634 43.8026 23.663 47.4928 26.1558 50.2915C28.0081 48.2273 30.6863 46.9477 33.5995 46.9477C36.4363 46.9477 39.1082 48.1792 40.9775 50.2336C41.8259 49.9546 42.7132 49.8128 43.6062 49.8137C45.3664 49.8137 47.0523 50.386 48.4654 51.3728C51.0419 48.9952 52.863 45.7629 53.3965 42.0008L54.0415 37.4527L50.9311 40.8267C48.9962 42.9257 46.394 44.0817 43.6062 44.0817C38.0891 44.0817 33.5995 39.5812 33.5995 34.0507C33.5995 31.2561 34.7527 28.6475 36.8466 26.708L40.2125 23.5901Z" fill="#D41D3A"/>
<path d="M49.4494 35.1575V32.2915H45.8756L50.1642 26.5595H40.8723V29.4255H44.4461L40.1576 35.1575H49.4494ZM52.3085 15V17.866H55.9776L51.5937 23.6935H60.8856V20.8275H57.3118L61.6957 15H52.3085ZM18 59.5185C18 61.8928 19.92 63.913 22.2886 63.913H53.738C56.1065 63.913 58.0266 61.8928 58.0266 59.5185C58.0266 57.1442 56.1065 55.2195 53.738 55.2195H47.2268C46.2364 53.5135 44.413 52.3535 42.3018 52.3535C40.9529 52.3535 39.7295 52.8412 38.7516 53.6245C37.6109 51.1868 35.1589 49.4875 32.2952 49.4875C28.8373 49.4875 25.9541 51.9491 25.2917 55.2195H22.2886C19.92 55.2195 18 57.1442 18 59.5185Z" fill="#010101"/>
<path d="M38.9082 23.2639L34.3711 23.9105C26.6678 25.0076 20.859 31.6912 20.859 39.4565C20.859 43.4765 22.3587 47.1666 24.8515 49.9654C26.7038 47.9011 29.382 46.6215 32.2952 46.6215C35.1319 46.6215 37.8039 47.853 39.6731 49.9074C40.5216 49.6284 41.4089 49.4867 42.3018 49.4875C44.062 49.4875 45.748 50.0599 47.1611 51.0466C49.7376 48.669 51.5586 45.4367 52.0921 41.6746L52.7371 37.1266L49.6268 40.5005C47.6919 42.5996 45.0897 43.7555 42.3018 43.7555C36.7847 43.7555 32.2952 39.255 32.2952 33.7245C32.2952 30.9299 33.4483 28.3214 35.5423 26.3818L38.9082 23.2639Z" fill="#010101"/>
</svg>
