<svg width="80" height="80" viewBox="0 0 80 80" fill="none" xmlns="http://www.w3.org/2000/svg">
<circle cx="40" cy="40" r="40" fill="white"/>
<path d="M68.5038 41.1448C68.0658 38.4246 67.1144 35.6809 65.6938 33.3149C65.4199 34.274 64.9131 35.1501 64.2187 35.8648C63.5243 36.5795 62.6639 37.1105 61.7146 37.4104C61.9972 38.0175 62.2426 38.6428 62.4569 39.2793C61.5096 39.3023 60.5618 39.2962 59.6149 39.2612C58.1148 37.1818 54.9764 36.0533 52.4161 38.0496C51.7784 36.67 51.2997 35.2574 51.043 33.7748C52.1802 33.8432 53.3165 33.9307 54.445 34.0857C54.1072 33.3249 53.9332 32.5013 53.9343 31.6686C53.9343 30.5722 54.2316 29.5459 54.7474 28.6599C52.5466 28.3984 50.3215 28.3213 48.1138 28.1403C46.6007 28.0156 45.4411 29.4749 45.3979 30.8631C45.2674 34.7032 46.3761 38.2808 48.1103 41.6272C46.3709 43.0284 44.7524 44.2885 42.9724 45.7366C40.7059 43.4658 38.0825 41.5094 35.4651 39.7375C34.1007 38.8143 32.5064 39.3599 31.3477 40.271C27.7963 43.0631 24.2431 45.8587 20.6917 48.6534C20.1533 49.0778 19.8172 49.5515 19.647 50.0391H16.6416C12.2589 50.0391 12.2589 56.847 16.6416 56.847H42.4531C44.5062 56.847 45.7505 55.8086 46.4331 55.2189C51.1701 51.1104 54.2056 49.0457 58.9443 44.9363C59.0558 44.8411 59.1535 44.7432 59.2485 44.6462C61.4632 44.7475 63.6934 44.6921 65.8882 44.5891C67.7841 44.5059 68.789 42.9306 68.5038 41.1448ZM29.8468 50.0391C31.1835 48.9868 32.522 47.9363 33.857 46.8867C35.2033 47.8445 36.5409 48.8864 37.7455 50.0391H29.8468Z" fill="#D41D3A"/>
<path d="M60.0746 36.6267C61.476 36.6251 62.8196 36.0663 63.8104 35.0729C64.8012 34.0795 65.3583 32.7328 65.3594 31.3282C65.3594 28.4079 62.9875 26.0315 60.0746 26.0315C57.1617 26.0315 54.7906 28.4088 54.7906 31.3282C54.792 32.7326 55.3491 34.0791 56.3396 35.0723C57.3302 36.0656 58.6734 36.6246 60.0746 36.6267Z" fill="#D41D3A"/>
<path d="M67.1492 39.1133C66.7111 36.3931 65.7598 33.6494 64.3392 31.2834C64.0653 32.2425 63.5585 33.1186 62.8641 33.8333C62.1697 34.548 61.3093 35.079 60.36 35.3789C60.6426 35.986 60.888 36.6113 61.1023 37.2479C60.155 37.2708 59.2072 37.2648 58.2603 37.2297C56.7602 35.1503 53.6218 34.0218 51.0615 36.0181C50.4238 34.6385 49.9451 33.226 49.6884 31.7433C50.8256 31.8117 51.9619 31.8992 53.0904 32.0542C52.7526 31.2934 52.5786 30.4698 52.5797 29.6371C52.5797 28.5407 52.8769 27.5144 53.3928 26.6284C51.192 26.3669 48.9669 26.2898 46.7591 26.1088C45.2461 25.9841 44.0865 27.4434 44.0433 28.8317C43.9128 32.6717 45.0215 36.2493 46.7557 39.5957C45.0163 40.997 43.3978 42.257 41.6178 43.7051C39.3512 41.4343 36.7278 39.4779 34.1105 37.706C32.7461 36.7828 31.1518 37.3284 29.9931 38.2395C26.4416 41.0316 22.8885 43.8272 19.337 46.6219C18.7987 47.0463 18.4626 47.52 18.2924 48.0076H15.287C10.9043 48.0076 10.9043 54.8155 15.287 54.8155H41.0984C43.1515 54.8155 44.3958 53.7771 45.0785 53.1874C49.8155 49.0789 52.851 47.0142 57.5897 42.9048C57.7012 42.8096 57.7988 42.7117 57.8939 42.6147C60.1086 42.716 62.3388 42.6606 64.5336 42.5576C66.4294 42.4744 67.4344 40.8991 67.1492 39.1133ZM28.4921 48.0076C29.8289 46.9553 31.1674 45.9048 32.5024 44.8552C33.8487 45.813 35.1863 46.8549 36.3909 48.0076H28.4921Z" fill="#010101"/>
<path d="M58.72 34.5952C60.1214 34.5936 61.4649 34.0348 62.4557 33.0414C63.4465 32.0481 64.0036 30.7013 64.0048 29.2967C64.0048 26.3764 61.6328 24 58.72 24C55.8071 24 53.436 26.3773 53.436 29.2967C53.4374 30.7011 53.9944 32.0476 54.985 33.0409C55.9756 34.0341 57.3188 34.5931 58.72 34.5952Z" fill="#010101"/>
</svg>
