<svg width="80" height="80" viewBox="0 0 80 80" fill="none" xmlns="http://www.w3.org/2000/svg">
<circle cx="40" cy="40" r="40" fill="white"/>
<path fill-rule="evenodd" clip-rule="evenodd" d="M57.4963 55.9465C57.3226 55.7649 57.1462 55.5858 56.9672 55.4093C54.0548 52.547 51.3787 50.3419 47.7299 49.5698C45.299 49.055 42.442 49.1794 38.8089 50.1364C35.4931 51.0096 33.0508 52.3552 30.5101 53.6594C28.1391 54.8755 25.6854 56.0571 22.4162 56.8284C22.6165 57.04 22.8222 57.2499 23.0322 57.4563C32.397 66.6591 47.6024 66.6591 56.9672 57.4563L57.1298 57.2939C54.0223 57.6541 47.3274 58.3295 40.8741 58.32C40.6993 58.3197 40.5318 58.2511 40.4085 58.1294C40.2851 58.0076 40.216 57.8427 40.2163 57.6709C40.2167 57.4991 40.2865 57.3345 40.4103 57.2133C40.5342 57.092 40.702 57.0241 40.8768 57.0244C47.6596 57.0348 54.7121 56.2799 57.4963 55.9465ZM17.8876 48.0902C18.1336 48.0332 18.3797 47.9728 18.6258 47.908C22.6034 46.8603 25.8849 45.6857 28.3895 42.9658C30.0584 41.1538 31.3776 38.6602 32.3513 35.0897C33.2398 31.83 33.2749 29.0791 33.3962 26.2643C33.5105 23.6386 33.695 20.9593 34.6503 17.7913C34.3638 17.856 34.0764 17.926 33.7899 18.0011C20.9977 21.3705 13.3941 34.3123 16.8224 46.8845C16.8418 46.9579 16.8629 47.0313 16.8831 47.1039C18.1196 44.2787 20.8721 38.2431 24.107 32.7559C24.1947 32.6072 24.3388 32.4989 24.5077 32.4547C24.6767 32.4104 24.8566 32.434 25.0078 32.5201C25.1591 32.6062 25.2693 32.7479 25.3143 32.9139C25.3593 33.08 25.3354 33.2568 25.2477 33.4054C21.8476 39.1724 18.9861 45.5535 17.8876 48.0902ZM45.9863 17.9441C47.8573 20.4083 51.7997 25.7694 55.0171 31.2669C55.0618 31.3407 55.0911 31.4225 55.1034 31.5075C55.1156 31.5925 55.1105 31.6791 55.0884 31.7622C55.0663 31.8453 55.0276 31.9232 54.9745 31.9914C54.9215 32.0597 54.8552 32.1169 54.7794 32.1597C54.7037 32.2025 54.6201 32.2301 54.5334 32.2409C54.4467 32.2517 54.3587 32.2454 54.2745 32.2224C54.1903 32.1995 54.1116 32.1603 54.0429 32.1071C53.9743 32.054 53.9171 31.988 53.8746 31.9129C50.4929 26.1347 46.3018 20.5085 44.6153 18.306C44.5415 18.5436 44.4721 18.7837 44.4061 19.0255C43.341 22.9347 42.7355 26.3144 43.8797 29.8072C44.6417 32.1332 46.1796 34.5023 48.8389 37.1159C51.2671 39.5023 53.6734 40.9076 56.0928 42.4182C58.3496 43.8287 60.6187 45.3255 62.9327 47.7223C63.0188 47.4459 63.1005 47.1669 63.1779 46.8845C66.6053 34.3123 59.0026 21.3705 46.2104 18.002L45.9863 17.9441Z" fill="#D41D3A"/>
<path fill-rule="evenodd" clip-rule="evenodd" d="M57.4963 54.1553C57.3226 53.9737 57.1462 53.7946 56.9672 53.618C54.0548 50.7557 51.3787 48.5507 47.7299 47.7785C45.299 47.2637 42.442 47.3881 38.8089 48.3451C35.4931 49.2183 33.0508 50.564 30.5101 51.8682C28.1391 53.0843 25.6854 54.2658 22.4162 55.0371C22.6165 55.2487 22.8222 55.4586 23.0322 55.665C32.397 64.8679 47.6024 64.8679 56.9672 55.665L57.1298 55.5027C54.0223 55.8628 47.3274 56.5382 40.8741 56.5288C40.6993 56.5284 40.5318 56.4598 40.4085 56.3381C40.2851 56.2164 40.216 56.0515 40.2163 55.8797C40.2167 55.7079 40.2865 55.5432 40.4103 55.422C40.5342 55.3008 40.702 55.2328 40.8768 55.2332C47.6596 55.2435 54.7121 54.4887 57.4963 54.1553ZM17.8876 46.299C18.1336 46.242 18.3797 46.1815 18.6258 46.1167C22.6034 45.069 25.8849 43.8944 28.3895 41.1746C30.0584 39.3625 31.3776 36.869 32.3513 33.2984C33.2398 30.0387 33.2749 27.2878 33.3962 24.473C33.5105 21.8473 33.695 19.1681 34.6503 16C34.3638 16.0648 34.0764 16.1347 33.7899 16.2099C20.9977 19.5792 13.3941 32.5211 16.8224 45.0932C16.8418 45.1666 16.8629 45.2401 16.8831 45.3126C18.1196 42.4874 20.8721 36.4518 24.107 30.9646C24.1947 30.816 24.3388 30.7076 24.5077 30.6634C24.6767 30.6192 24.8566 30.6427 25.0078 30.7289C25.1591 30.815 25.2693 30.9566 25.3143 31.1227C25.3593 31.2887 25.3354 31.4655 25.2477 31.6142C21.8476 37.3812 18.9861 43.7622 17.8876 46.299ZM45.9863 16.1529C47.8573 18.617 51.7997 23.9781 55.0171 29.4756C55.0618 29.5494 55.0911 29.6312 55.1034 29.7162C55.1156 29.8013 55.1105 29.8878 55.0884 29.9709C55.0663 30.054 55.0276 30.1319 54.9745 30.2002C54.9215 30.2684 54.8552 30.3256 54.7794 30.3684C54.7037 30.4113 54.6201 30.4389 54.5334 30.4496C54.4467 30.4604 54.3587 30.4541 54.2745 30.4312C54.1903 30.4082 54.1116 30.369 54.0429 30.3159C53.9743 30.2627 53.9171 30.1967 53.8746 30.1217C50.4929 24.3434 46.3018 18.7172 44.6153 16.5148C44.5415 16.7523 44.4721 16.9924 44.4061 17.2342C43.341 21.1434 42.7355 24.5231 43.8797 28.0159C44.6417 30.3419 46.1796 32.7111 48.8389 35.3247C51.2671 37.7111 53.6734 39.1163 56.0928 40.627C58.3496 42.0374 60.6187 43.5342 62.9327 45.931C63.0188 45.6546 63.1005 45.3757 63.1779 45.0932C66.6053 32.5211 59.0026 19.5792 46.2104 16.2107L45.9863 16.1529Z" fill="black"/>
</svg>
