<svg width="80" height="80" viewBox="0 0 80 80" fill="none" xmlns="http://www.w3.org/2000/svg">
<circle cx="40" cy="40" r="40" fill="white"/>
<path d="M29.0065 17.4287H30.6096V21.0181H29.0065V17.4287ZM62.6714 40.0953C61.9321 40.0985 61.2172 40.3622 60.6499 40.8409L54.6559 37.2085L53.8544 38.6106L59.6944 42.149C59.5502 42.5174 59.4652 42.9149 59.4652 43.3334C59.4652 45.1192 60.9032 46.5715 62.6714 46.5715C64.4396 46.5715 65.8776 45.1192 65.8776 43.3334C65.8776 41.5476 64.4396 40.0953 62.6714 40.0953ZM33.8158 35.2382C34.9139 35.2382 35.9855 35.3515 37.0219 35.5644V26.7916L29.808 22.4202L22.5941 26.7916V37.2085L24.4377 38.3257C27.078 36.3925 30.3122 35.2382 33.8158 35.2382ZM38.625 26.7916V35.9845C41.647 36.9526 44.3181 38.8017 46.3022 41.299L53.0528 37.2085V26.7916L45.8389 22.4202L38.625 26.7916Z" fill="#D41D3A"/>
<path d="M33.8158 36.8572C25.8604 36.8572 19.3879 43.3941 19.3879 51.4286C19.3879 59.4631 25.8604 66 33.8158 66C41.7711 66 48.2436 59.4631 48.2436 51.4286C48.2436 43.3941 41.7711 36.8572 33.8158 36.8572ZM43.3662 53.926C41.8371 55.4701 39.9213 56.5656 37.8235 57.0952L38.3974 57.4814C39.5838 58.2805 40.4727 59.456 40.9239 60.8223L41.0297 61.1428H38.4575C37.1011 61.1379 35.7723 60.7553 34.6173 60.037V64.3809H33.0142V60.037C31.8592 60.7553 30.5304 61.1379 29.174 61.1428H26.6018L26.7077 60.8223C27.1588 59.456 28.0477 58.2805 29.2341 57.4814L29.808 57.0952C27.7102 56.5656 25.7944 55.4701 24.2653 53.926L24.1972 53.8571L24.7647 53.6661C25.9815 53.2565 27.2558 53.0476 28.5384 53.0476H29.0065L28.0767 52.3433C26.6041 51.2276 25.5566 49.634 25.1102 47.8303L24.9988 47.381H25.3146C27.199 47.381 29.0409 47.9444 30.6096 49C30.6096 46.361 31.3831 43.7802 32.8331 41.5848L33.8158 40.0953L34.7992 41.5848C36.2486 43.7808 37.022 46.3609 37.0219 49C38.59 47.9443 40.4324 47.381 42.3169 47.381H42.6327L42.5213 47.8311C42.0749 49.6348 41.0274 51.2284 39.5548 52.3442L38.625 53.0476H39.0931C40.3756 53.0476 41.6493 53.2565 42.866 53.6661L43.4343 53.8571L43.3662 53.926ZM54.6559 26.7916L60.6499 23.1593C61.2172 23.638 61.9321 23.9017 62.6714 23.9049C64.4396 23.9049 65.8776 22.4526 65.8776 20.6668C65.8776 18.881 64.4396 17.4287 62.6714 17.4287C60.9032 17.4287 59.4652 18.881 59.4652 20.6668C59.4652 21.0853 59.5502 21.4828 59.6944 21.8511L53.8544 25.3895L54.6559 26.7916Z" fill="#D41D3A"/>
<path d="M27.6185 15H29.2216V18.5894H27.6185V15ZM61.2834 37.6666C60.5442 37.6698 59.8293 37.9335 59.2619 38.4121L53.268 34.7798L52.4664 36.1819L58.3065 39.7203C58.1622 40.0887 58.0773 40.4861 58.0773 40.9047C58.0773 42.6905 59.5152 44.1427 61.2834 44.1427C63.0517 44.1427 64.4896 42.6905 64.4896 40.9047C64.4896 39.1189 63.0517 37.6666 61.2834 37.6666ZM32.4278 32.8095C33.5259 32.8095 34.5976 32.9228 35.634 33.1357V24.3629L28.4201 19.9915L21.2062 24.3629V34.7798L23.0497 35.897C25.69 33.9638 28.9243 32.8095 32.4278 32.8095ZM37.2371 24.3629V33.5558C40.2591 34.5239 42.9302 36.373 44.9143 38.8703L51.6649 34.7798V24.3629L44.451 19.9915L37.2371 24.3629Z" fill="black"/>
<path d="M32.4278 34.4285C24.4725 34.4285 18 40.9654 18 48.9999C18 57.0344 24.4725 63.5712 32.4278 63.5712C40.3832 63.5712 46.8556 57.0344 46.8556 48.9999C46.8556 40.9654 40.3832 34.4285 32.4278 34.4285ZM41.9782 51.4972C40.4492 53.0414 38.5333 54.1369 36.4355 54.6665L37.0094 55.0527C38.1958 55.8518 39.0848 57.0273 39.5359 58.3935L39.6417 58.7141H37.0696C35.7132 58.7092 34.3844 58.3266 33.2294 57.6083V61.9522H31.6263V57.6083C30.4713 58.3266 29.1425 58.7092 27.7861 58.7141H25.2139L25.3197 58.3935C25.7708 57.0273 26.6598 55.8518 27.8462 55.0527L28.4201 54.6665C26.3223 54.1369 24.4065 53.0414 22.8774 51.4972L22.8093 51.4284L23.3768 51.2374C24.5936 50.8278 25.8678 50.6189 27.1504 50.6189H27.6185L26.6888 49.9146C25.2162 48.7989 24.1687 47.2053 23.7222 45.4016L23.6108 44.9523H23.9266C25.8111 44.9523 27.653 45.5157 29.2216 46.5713C29.2216 43.9323 29.9951 41.3515 31.4451 39.1561L32.4278 37.6666L33.4113 39.1561C34.8606 41.3521 35.634 43.9322 35.634 46.5713C37.2021 45.5156 39.0445 44.9523 40.929 44.9523H41.2448L41.1334 45.4024C40.6869 47.2061 39.6394 48.7997 38.1669 49.9154L37.2371 50.6189H37.7052C38.9877 50.6189 40.2613 50.8278 41.4781 51.2374L42.0464 51.4284L41.9782 51.4972ZM53.268 24.3629L59.2619 20.7306C59.8293 21.2093 60.5442 21.473 61.2834 21.4762C63.0517 21.4762 64.4896 20.0239 64.4896 18.2381C64.4896 16.4523 63.0517 15 61.2834 15C59.5152 15 58.0773 16.4523 58.0773 18.2381C58.0773 18.6566 58.1622 19.0541 58.3065 19.4224L52.4664 22.9608L53.268 24.3629Z" fill="black"/>
</svg>
