<svg width="20" height="20" viewBox="0 0 20 20" fill="none" xmlns="http://www.w3.org/2000/svg">
<path d="M19.8001 14.6406C19.7122 14.5873 17.6179 13.3292 14.9999 13.3292C14.7304 13.3292 14.4628 13.3399 14.1983 13.3561C14.8126 13.0224 15.4315 12.6358 16.0042 12.1883C18.7694 10.028 19.9315 6.51845 19.9795 6.37025C20.0014 6.3027 20.0057 6.2307 19.992 6.16103C19.9783 6.09136 19.9472 6.02632 19.9014 5.97204C19.8078 5.86251 19.6662 5.81161 19.5218 5.82911C19.4021 5.84704 16.5668 6.29286 13.9717 8.65309C13.2703 9.29109 12.6354 9.99957 12.0775 10.6956C12.3249 9.72992 12.4999 8.64668 12.4999 7.49235C12.4999 3.49944 10.4361 0.309452 10.3482 0.175898C10.1944 -0.0586326 9.80543 -0.0586326 9.65164 0.175898C9.56371 0.309452 7.49993 3.49944 7.49993 7.49235C7.49993 8.64672 7.67493 9.72992 7.92235 10.6956C7.36442 9.9996 6.72954 9.29109 6.02818 8.65313C3.43296 6.29286 0.597695 5.84704 0.478086 5.82915C0.336094 5.81165 0.192462 5.86255 0.0984391 5.97208C0.0526754 6.02636 0.0214891 6.0914 0.00782068 6.16107C-0.00584776 6.23074 -0.00154805 6.30274 0.0203144 6.37028C0.068322 6.51849 1.23043 10.0281 3.99573 12.1884C4.56838 12.6359 5.18732 13.0224 5.80166 13.3562C5.53709 13.3399 5.26955 13.3293 4.99998 13.3293C2.38198 13.3293 0.287696 14.5874 0.199806 14.6407C0.138614 14.6781 0.0880866 14.7307 0.0530917 14.7933C0.0180968 14.8559 -0.000186745 14.9265 2.00463e-06 14.9982C0.000186782 15.0699 0.0188996 15.1404 0.0543283 15.2029C0.089757 15.2653 0.140701 15.3175 0.202228 15.3544C0.291329 15.4077 2.41413 16.6646 4.99998 16.6646C5.57677 16.6646 6.14521 16.5817 6.68525 16.4559C5.80134 17.4975 5.83095 18.7071 5.83373 18.7671C5.83651 18.8305 5.85368 18.8924 5.88392 18.9481C5.91417 19.0038 5.9567 19.0519 6.0083 19.0888C6.07883 19.1391 6.16335 19.1662 6.25001 19.1661C6.2899 19.1661 6.32978 19.1604 6.36884 19.149C6.4315 19.1303 7.92239 18.6755 9.06496 17.3543C9.2698 17.1175 9.43492 16.8828 9.58336 16.6524V19.583C9.58336 19.8135 9.76972 20 10 20C10.2303 20 10.4167 19.8135 10.4167 19.583V16.6524C10.5651 16.8828 10.7303 17.1175 10.9351 17.3543C12.0777 18.6755 13.5686 19.1303 13.6312 19.149C13.6703 19.1604 13.7102 19.1661 13.7501 19.1661C13.8359 19.1661 13.9206 19.1397 13.9918 19.0888C14.0434 19.0519 14.0859 19.0038 14.1161 18.9481C14.1464 18.8924 14.1636 18.8305 14.1663 18.7671C14.1691 18.7071 14.199 17.4944 13.3117 16.4519C13.8547 16.58 14.4249 16.6646 15.0001 16.6646C17.618 16.6646 19.7123 15.4065 19.8002 15.3532C19.8613 15.3159 19.9117 15.2635 19.9467 15.2011C19.9816 15.1387 20 15.0684 20 14.9969C20 14.9253 19.9816 14.855 19.9466 14.7926C19.9116 14.7303 19.8612 14.6779 19.8001 14.6406Z" fill="#D41D3A"/>
</svg>
